<?xml version="1.0" encoding="UTF-8" standalone="no"?>
<!DOCTYPE svg PUBLIC "-//W3C//DTD SVG 1.1//EN"
 "http://www.w3.org/Graphics/SVG/1.1/DTD/svg11.dtd">
<!-- Generated by graphviz version 2.47.3 (20210619.1520)
 -->
<!-- Title: dependencies Pages: 1 -->
<svg width="1036pt" height="174pt"
 viewBox="0.00 0.00 1036.00 173.80" xmlns="http://www.w3.org/2000/svg" xmlns:xlink="http://www.w3.org/1999/xlink">
<g id="graph0" class="graph" transform="scale(1 1) rotate(0) translate(4 169.8)">
<title>dependencies</title>
<polygon fill="white" stroke="transparent" points="-4,4 -4,-169.8 1032,-169.8 1032,4 -4,4"/>
<text text-anchor="middle" x="514" y="-8.2" font-family="sans-serif" font-size="14.00">dependencies</text>
<g id="clust1" class="cluster">
<title>cluster_StimFeaturePlayerDomainModule</title>
<polygon fill="none" stroke="black" stroke-dasharray="1,5" points="8,-32.8 8,-157.8 1020,-157.8 1020,-32.8 8,-32.8"/>
</g>
<g id="clust3" class="cluster">
<title>cluster_StimFeaturePlayerDomainModule_imports</title>
<polygon fill="none" stroke="black" points="314,-40.8 314,-92.8 1012,-92.8 1012,-40.8 314,-40.8"/>
</g>
<g id="clust6" class="cluster">
<title>cluster_StimFeaturePlayerDomainModule_providers</title>
<polygon fill="none" stroke="black" points="16,-40.8 16,-92.8 306,-92.8 306,-40.8 16,-40.8"/>
</g>
<!-- StimFeatureExperimentsDomainModule -->
<g id="node1" class="node">
<title>StimFeatureExperimentsDomainModule</title>
<polygon fill="#8dd3c7" stroke="black" points="1003.84,-84.8 1000.84,-88.8 979.84,-88.8 976.84,-84.8 760.16,-84.8 760.16,-48.8 1003.84,-48.8 1003.84,-84.8"/>
<text text-anchor="middle" x="882" y="-62.6" font-family="Times,serif" font-size="14.00">StimFeatureExperimentsDomainModule</text>
</g>
<!-- StimFeaturePlayerDomainModule -->
<g id="node4" class="node">
<title>StimFeaturePlayerDomainModule</title>
<polygon fill="#8dd3c7" stroke="black" points="511.35,-149.8 508.35,-153.8 487.35,-153.8 484.35,-149.8 302.65,-149.8 302.65,-113.8 511.35,-113.8 511.35,-149.8"/>
<text text-anchor="middle" x="407" y="-127.6" font-family="Times,serif" font-size="14.00">StimFeaturePlayerDomainModule</text>
</g>
<!-- StimFeatureExperimentsDomainModule&#45;&gt;StimFeaturePlayerDomainModule -->
<g id="edge1" class="edge">
<title>StimFeatureExperimentsDomainModule&#45;&gt;StimFeaturePlayerDomainModule</title>
<path fill="none" stroke="black" d="M882,-84.91C882,-104.14 882,-131.8 882,-131.8 882,-131.8 521.53,-131.8 521.53,-131.8"/>
<polygon fill="black" stroke="black" points="521.53,-128.3 511.53,-131.8 521.53,-135.3 521.53,-128.3"/>
</g>
<!-- StimFeatureStimulatorDomainModule -->
<g id="node2" class="node">
<title>StimFeatureStimulatorDomainModule</title>
<polygon fill="#8dd3c7" stroke="black" points="742.2,-84.8 739.2,-88.8 718.2,-88.8 715.2,-84.8 509.8,-84.8 509.8,-48.8 742.2,-48.8 742.2,-84.8"/>
<text text-anchor="middle" x="626" y="-62.6" font-family="Times,serif" font-size="14.00">StimFeatureStimulatorDomainModule</text>
</g>
<!-- StimFeatureStimulatorDomainModule&#45;&gt;StimFeaturePlayerDomainModule -->
<g id="edge2" class="edge">
<title>StimFeatureStimulatorDomainModule&#45;&gt;StimFeaturePlayerDomainModule</title>
<path fill="none" stroke="black" d="M509.55,-66.8C504.16,-66.8 500.95,-66.8 500.95,-66.8 500.95,-66.8 500.95,-103.69 500.95,-103.69"/>
<polygon fill="black" stroke="black" points="497.45,-103.69 500.95,-113.69 504.45,-103.69 497.45,-103.69"/>
</g>
<!-- StimLibConnectionModule -->
<g id="node3" class="node">
<title>StimLibConnectionModule</title>
<polygon fill="#8dd3c7" stroke="black" points="491.99,-84.8 488.99,-88.8 467.99,-88.8 464.99,-84.8 322.01,-84.8 322.01,-48.8 491.99,-48.8 491.99,-84.8"/>
<text text-anchor="middle" x="407" y="-62.6" font-family="Times,serif" font-size="14.00">StimLibConnectionModule</text>
</g>
<!-- StimLibConnectionModule&#45;&gt;StimFeaturePlayerDomainModule -->
<g id="edge3" class="edge">
<title>StimLibConnectionModule&#45;&gt;StimFeaturePlayerDomainModule</title>
<path fill="none" stroke="black" d="M407,-84.91C407,-84.91 407,-103.79 407,-103.79"/>
<polygon fill="black" stroke="black" points="403.5,-103.79 407,-113.79 410.5,-103.79 403.5,-103.79"/>
</g>
<!-- PlayerFacade -->
<g id="node5" class="node">
<title>PlayerFacade</title>
<ellipse fill="#fdb462" stroke="black" cx="235" cy="-66.8" rx="63.1" ry="18"/>
<text text-anchor="middle" x="235" y="-62.6" font-family="Times,serif" font-size="14.00">PlayerFacade</text>
</g>
<!-- PlayerFacade&#45;&gt;StimFeaturePlayerDomainModule -->
<g id="edge4" class="edge">
<title>PlayerFacade&#45;&gt;StimFeaturePlayerDomainModule</title>
<path fill="none" stroke="black" d="M298.11,-66.8C306.51,-66.8 312.29,-66.8 312.29,-66.8 312.29,-66.8 312.29,-103.69 312.29,-103.69"/>
<polygon fill="black" stroke="black" points="308.79,-103.69 312.29,-113.69 315.79,-103.69 308.79,-103.69"/>
</g>
<!-- PlayerService -->
<g id="node6" class="node">
<title>PlayerService</title>
<ellipse fill="#fdb462" stroke="black" cx="89" cy="-66.8" rx="64.82" ry="18"/>
<text text-anchor="middle" x="89" y="-62.6" font-family="Times,serif" font-size="14.00">PlayerService</text>
</g>
<!-- PlayerService&#45;&gt;StimFeaturePlayerDomainModule -->
<g id="edge5" class="edge">
<title>PlayerService&#45;&gt;StimFeaturePlayerDomainModule</title>
<path fill="none" stroke="black" d="M89,-84.91C89,-104.14 89,-131.8 89,-131.8 89,-131.8 292.43,-131.8 292.43,-131.8"/>
<polygon fill="black" stroke="black" points="292.43,-135.3 302.43,-131.8 292.43,-128.3 292.43,-135.3"/>
</g>
</g>
</svg>
