<?xml version="1.0" encoding="UTF-8" standalone="no"?>
<!DOCTYPE svg PUBLIC "-//W3C//DTD SVG 1.1//EN"
 "http://www.w3.org/Graphics/SVG/1.1/DTD/svg11.dtd">
<!-- Generated by graphviz version 2.47.3 (20210619.1520)
 -->
<!-- Title: dependencies Pages: 1 -->
<svg width="658pt" height="174pt"
 viewBox="0.00 0.00 658.00 173.80" xmlns="http://www.w3.org/2000/svg" xmlns:xlink="http://www.w3.org/1999/xlink">
<g id="graph0" class="graph" transform="scale(1 1) rotate(0) translate(4 169.8)">
<title>dependencies</title>
<polygon fill="white" stroke="transparent" points="-4,4 -4,-169.8 654,-169.8 654,4 -4,4"/>
<text text-anchor="middle" x="325" y="-8.2" font-family="sans-serif" font-size="14.00">dependencies</text>
<g id="clust1" class="cluster">
<title>cluster_StimFeatureStimulatorDomainModule</title>
<polygon fill="none" stroke="black" stroke-dasharray="1,5" points="8,-32.8 8,-157.8 642,-157.8 642,-32.8 8,-32.8"/>
</g>
<g id="clust6" class="cluster">
<title>cluster_StimFeatureStimulatorDomainModule_providers</title>
<polygon fill="none" stroke="black" points="460,-40.8 460,-92.8 634,-92.8 634,-40.8 460,-40.8"/>
</g>
<g id="clust3" class="cluster">
<title>cluster_StimFeatureStimulatorDomainModule_imports</title>
<polygon fill="none" stroke="black" points="16,-40.8 16,-92.8 452,-92.8 452,-40.8 16,-40.8"/>
</g>
<!-- StimFeatureExperimentsDomainModule -->
<g id="node1" class="node">
<title>StimFeatureExperimentsDomainModule</title>
<polygon fill="#8dd3c7" stroke="black" points="443.84,-84.8 440.84,-88.8 419.84,-88.8 416.84,-84.8 200.16,-84.8 200.16,-48.8 443.84,-48.8 443.84,-84.8"/>
<text text-anchor="middle" x="322" y="-62.6" font-family="Times,serif" font-size="14.00">StimFeatureExperimentsDomainModule</text>
</g>
<!-- StimFeatureStimulatorDomainModule -->
<g id="node3" class="node">
<title>StimFeatureStimulatorDomainModule</title>
<polygon fill="#8dd3c7" stroke="black" points="438.2,-149.8 435.2,-153.8 414.2,-153.8 411.2,-149.8 205.8,-149.8 205.8,-113.8 438.2,-113.8 438.2,-149.8"/>
<text text-anchor="middle" x="322" y="-127.6" font-family="Times,serif" font-size="14.00">StimFeatureStimulatorDomainModule</text>
</g>
<!-- StimFeatureExperimentsDomainModule&#45;&gt;StimFeatureStimulatorDomainModule -->
<g id="edge1" class="edge">
<title>StimFeatureExperimentsDomainModule&#45;&gt;StimFeatureStimulatorDomainModule</title>
<path fill="none" stroke="black" d="M322,-84.91C322,-84.91 322,-103.79 322,-103.79"/>
<polygon fill="black" stroke="black" points="318.5,-103.79 322,-113.79 325.5,-103.79 318.5,-103.79"/>
</g>
<!-- StimLibCommonModule -->
<g id="node2" class="node">
<title>StimLibCommonModule</title>
<polygon fill="#8dd3c7" stroke="black" points="181.57,-84.8 178.57,-88.8 157.57,-88.8 154.57,-84.8 24.43,-84.8 24.43,-48.8 181.57,-48.8 181.57,-84.8"/>
<text text-anchor="middle" x="103" y="-62.6" font-family="Times,serif" font-size="14.00">StimLibCommonModule</text>
</g>
<!-- StimLibCommonModule&#45;&gt;StimFeatureStimulatorDomainModule -->
<g id="edge2" class="edge">
<title>StimLibCommonModule&#45;&gt;StimFeatureStimulatorDomainModule</title>
<path fill="none" stroke="black" d="M103,-84.91C103,-104.14 103,-131.8 103,-131.8 103,-131.8 195.77,-131.8 195.77,-131.8"/>
<polygon fill="black" stroke="black" points="195.77,-135.3 205.77,-131.8 195.77,-128.3 195.77,-135.3"/>
</g>
<!-- StimulatorFacade -->
<g id="node4" class="node">
<title>StimulatorFacade</title>
<ellipse fill="#fdb462" stroke="black" cx="547" cy="-66.8" rx="79.31" ry="18"/>
<text text-anchor="middle" x="547" y="-62.6" font-family="Times,serif" font-size="14.00">StimulatorFacade</text>
</g>
<!-- StimulatorFacade&#45;&gt;StimFeatureStimulatorDomainModule -->
<g id="edge3" class="edge">
<title>StimulatorFacade&#45;&gt;StimFeatureStimulatorDomainModule</title>
<path fill="none" stroke="black" d="M547,-84.91C547,-104.14 547,-131.8 547,-131.8 547,-131.8 448.12,-131.8 448.12,-131.8"/>
<polygon fill="black" stroke="black" points="448.12,-128.3 438.12,-131.8 448.12,-135.3 448.12,-128.3"/>
</g>
</g>
</svg>
