<?xml version="1.0" encoding="UTF-8" standalone="no"?>
<!DOCTYPE svg PUBLIC "-//W3C//DTD SVG 1.1//EN"
 "http://www.w3.org/Graphics/SVG/1.1/DTD/svg11.dtd">
<!-- Generated by graphviz version 2.47.3 (20210619.1520)
 -->
<!-- Title: dependencies Pages: 1 -->
<svg width="710pt" height="247pt"
 viewBox="0.00 0.00 710.00 246.80" xmlns="http://www.w3.org/2000/svg" xmlns:xlink="http://www.w3.org/1999/xlink">
<g id="graph0" class="graph" transform="scale(1 1) rotate(0) translate(4 242.8)">
<title>dependencies</title>
<polygon fill="white" stroke="transparent" points="-4,4 -4,-242.8 706,-242.8 706,4 -4,4"/>
<text text-anchor="middle" x="351" y="-8.2" font-family="sans-serif" font-size="14.00">dependencies</text>
<g id="clust1" class="cluster">
<title>cluster_StimLibModalModule</title>
<polygon fill="none" stroke="black" stroke-dasharray="1,5" points="8,-32.8 8,-230.8 694,-230.8 694,-32.8 8,-32.8"/>
</g>
<g id="clust2" class="cluster">
<title>cluster_StimLibModalModule_declarations</title>
<polygon fill="none" stroke="black" points="24,-40.8 24,-92.8 680,-92.8 680,-40.8 24,-40.8"/>
</g>
<g id="clust8" class="cluster">
<title>cluster_StimLibModalModule_exports</title>
<polygon fill="none" stroke="black" points="16,-170.8 16,-222.8 686,-222.8 686,-170.8 16,-170.8"/>
</g>
<!-- ConfirmDialogComponent -->
<g id="node1" class="node">
<title>ConfirmDialogComponent</title>
<polygon fill="#ffffb3" stroke="black" points="672.37,-84.8 505.63,-84.8 505.63,-48.8 672.37,-48.8 672.37,-84.8"/>
<text text-anchor="middle" x="589" y="-62.6" font-family="Times,serif" font-size="14.00">ConfirmDialogComponent</text>
</g>
<!-- StimLibModalModule -->
<g id="node5" class="node">
<title>StimLibModalModule</title>
<polygon fill="#8dd3c7" stroke="black" points="321,-149.8 318,-153.8 297,-153.8 294,-149.8 179,-149.8 179,-113.8 321,-113.8 321,-149.8"/>
<text text-anchor="middle" x="250" y="-127.6" font-family="Times,serif" font-size="14.00">StimLibModalModule</text>
</g>
<!-- ConfirmDialogComponent&#45;&gt;StimLibModalModule -->
<g id="edge1" class="edge">
<title>ConfirmDialogComponent&#45;&gt;StimLibModalModule</title>
<path fill="none" stroke="black" d="M617.56,-85.07C617.56,-103.36 617.56,-128.8 617.56,-128.8 617.56,-128.8 331.31,-128.8 331.31,-128.8"/>
<polygon fill="black" stroke="black" points="331.31,-125.3 321.31,-128.8 331.31,-132.3 331.31,-125.3"/>
</g>
<!-- DialogChildsDirective -->
<g id="node2" class="node">
<title>DialogChildsDirective</title>
<polygon fill="#ffffb3" stroke="black" points="487.25,-84.8 344.75,-84.8 344.75,-48.8 487.25,-48.8 487.25,-84.8"/>
<text text-anchor="middle" x="416" y="-62.6" font-family="Times,serif" font-size="14.00">DialogChildsDirective</text>
</g>
<!-- DialogChildsDirective&#45;&gt;StimLibModalModule -->
<g id="edge2" class="edge">
<title>DialogChildsDirective&#45;&gt;StimLibModalModule</title>
<path fill="none" stroke="black" d="M439.79,-84.81C439.79,-100.85 439.79,-121.8 439.79,-121.8 439.79,-121.8 331.21,-121.8 331.21,-121.8"/>
<polygon fill="black" stroke="black" points="331.21,-118.3 321.21,-121.8 331.21,-125.3 331.21,-118.3"/>
</g>
<!-- InformDialogComponent -->
<g id="node3" class="node">
<title>InformDialogComponent</title>
<polygon fill="#ffffb3" stroke="black" points="326.31,-84.8 167.69,-84.8 167.69,-48.8 326.31,-48.8 326.31,-84.8"/>
<text text-anchor="middle" x="247" y="-62.6" font-family="Times,serif" font-size="14.00">InformDialogComponent</text>
</g>
<!-- InformDialogComponent&#45;&gt;StimLibModalModule -->
<g id="edge3" class="edge">
<title>InformDialogComponent&#45;&gt;StimLibModalModule</title>
<path fill="none" stroke="black" d="M250,-84.91C250,-84.91 250,-103.79 250,-103.79"/>
<polygon fill="black" stroke="black" points="246.5,-103.79 250,-113.79 253.5,-103.79 246.5,-103.79"/>
</g>
<!-- ModalComponent -->
<g id="node4" class="node">
<title>ModalComponent</title>
<polygon fill="#ffffb3" stroke="black" points="149.88,-84.8 32.12,-84.8 32.12,-48.8 149.88,-48.8 149.88,-84.8"/>
<text text-anchor="middle" x="91" y="-62.6" font-family="Times,serif" font-size="14.00">ModalComponent</text>
</g>
<!-- ModalComponent&#45;&gt;StimLibModalModule -->
<g id="edge4" class="edge">
<title>ModalComponent&#45;&gt;StimLibModalModule</title>
<path fill="none" stroke="black" d="M107.81,-84.82C107.81,-102.17 107.81,-125.8 107.81,-125.8 107.81,-125.8 168.91,-125.8 168.91,-125.8"/>
<polygon fill="black" stroke="black" points="168.91,-129.3 178.91,-125.8 168.91,-122.3 168.91,-129.3"/>
</g>
<!-- ConfirmDialogComponent  -->
<g id="node6" class="node">
<title>ConfirmDialogComponent </title>
<polygon fill="#fb8072" stroke="black" points="678.37,-214.8 507.63,-214.8 507.63,-178.8 678.37,-178.8 678.37,-214.8"/>
<text text-anchor="middle" x="593" y="-192.6" font-family="Times,serif" font-size="14.00">ConfirmDialogComponent </text>
</g>
<!-- StimLibModalModule&#45;&gt;ConfirmDialogComponent  -->
<g id="edge5" class="edge">
<title>StimLibModalModule&#45;&gt;ConfirmDialogComponent </title>
<path fill="none" stroke="black" stroke-dasharray="5,2" d="M321.34,-135.8C413.63,-135.8 562.69,-135.8 562.69,-135.8 562.69,-135.8 562.69,-168.5 562.69,-168.5"/>
<polygon fill="black" stroke="black" points="559.19,-168.5 562.69,-178.5 566.19,-168.5 559.19,-168.5"/>
</g>
<!-- DialogChildsDirective  -->
<g id="node7" class="node">
<title>DialogChildsDirective </title>
<polygon fill="#fb8072" stroke="black" points="490.25,-214.8 343.75,-214.8 343.75,-178.8 490.25,-178.8 490.25,-214.8"/>
<text text-anchor="middle" x="417" y="-192.6" font-family="Times,serif" font-size="14.00">DialogChildsDirective </text>
</g>
<!-- StimLibModalModule&#45;&gt;DialogChildsDirective  -->
<g id="edge6" class="edge">
<title>StimLibModalModule&#45;&gt;DialogChildsDirective </title>
<path fill="none" stroke="black" stroke-dasharray="5,2" d="M321.1,-142.8C356.66,-142.8 392.21,-142.8 392.21,-142.8 392.21,-142.8 392.21,-168.52 392.21,-168.52"/>
<polygon fill="black" stroke="black" points="388.71,-168.52 392.21,-178.52 395.71,-168.52 388.71,-168.52"/>
</g>
<!-- InformDialogComponent  -->
<g id="node8" class="node">
<title>InformDialogComponent </title>
<polygon fill="#fb8072" stroke="black" points="325.81,-214.8 164.19,-214.8 164.19,-178.8 325.81,-178.8 325.81,-214.8"/>
<text text-anchor="middle" x="245" y="-192.6" font-family="Times,serif" font-size="14.00">InformDialogComponent </text>
</g>
<!-- StimLibModalModule&#45;&gt;InformDialogComponent  -->
<g id="edge7" class="edge">
<title>StimLibModalModule&#45;&gt;InformDialogComponent </title>
<path fill="none" stroke="black" stroke-dasharray="5,2" d="M250,-149.91C250,-149.91 250,-168.79 250,-168.79"/>
<polygon fill="black" stroke="black" points="246.5,-168.79 250,-178.79 253.5,-168.79 246.5,-168.79"/>
</g>
<!-- ModalComponent  -->
<g id="node9" class="node">
<title>ModalComponent </title>
<polygon fill="#fb8072" stroke="black" points="145.88,-214.8 24.12,-214.8 24.12,-178.8 145.88,-178.8 145.88,-214.8"/>
<text text-anchor="middle" x="85" y="-192.6" font-family="Times,serif" font-size="14.00">ModalComponent </text>
</g>
<!-- StimLibModalModule&#45;&gt;ModalComponent  -->
<g id="edge8" class="edge">
<title>StimLibModalModule&#45;&gt;ModalComponent </title>
<path fill="none" stroke="black" stroke-dasharray="5,2" d="M178.83,-137.8C128.5,-137.8 69.94,-137.8 69.94,-137.8 69.94,-137.8 69.94,-168.78 69.94,-168.78"/>
<polygon fill="black" stroke="black" points="66.44,-168.78 69.94,-178.78 73.44,-168.78 66.44,-168.78"/>
</g>
</g>
</svg>
