<?xml version="1.0" encoding="UTF-8" standalone="no"?>
<!DOCTYPE svg PUBLIC "-//W3C//DTD SVG 1.1//EN"
 "http://www.w3.org/Graphics/SVG/1.1/DTD/svg11.dtd">
<!-- Generated by graphviz version 2.47.3 (20210619.1520)
 -->
<!-- Title: dependencies Pages: 1 -->
<svg width="272pt" height="174pt"
 viewBox="0.00 0.00 272.00 173.80" xmlns="http://www.w3.org/2000/svg" xmlns:xlink="http://www.w3.org/1999/xlink">
<g id="graph0" class="graph" transform="scale(1 1) rotate(0) translate(4 169.8)">
<title>dependencies</title>
<polygon fill="white" stroke="transparent" points="-4,4 -4,-169.8 268,-169.8 268,4 -4,4"/>
<text text-anchor="middle" x="132" y="-8.2" font-family="sans-serif" font-size="14.00">dependencies</text>
<g id="clust1" class="cluster">
<title>cluster_StimFeatureSequencesDomainModule</title>
<polygon fill="none" stroke="black" stroke-dasharray="1,5" points="8,-32.8 8,-157.8 256,-157.8 256,-32.8 8,-32.8"/>
</g>
<g id="clust6" class="cluster">
<title>cluster_StimFeatureSequencesDomainModule_providers</title>
<polygon fill="none" stroke="black" points="45,-40.8 45,-92.8 219,-92.8 219,-40.8 45,-40.8"/>
</g>
<!-- SequencesFacade -->
<g id="node1" class="node">
<title>SequencesFacade</title>
<ellipse fill="#fdb462" stroke="black" cx="132" cy="-66.8" rx="79.27" ry="18"/>
<text text-anchor="middle" x="132" y="-62.6" font-family="Times,serif" font-size="14.00">SequencesFacade</text>
</g>
<!-- StimFeatureSequencesDomainModule -->
<g id="node2" class="node">
<title>StimFeatureSequencesDomainModule</title>
<polygon fill="#8dd3c7" stroke="black" points="248.17,-149.8 245.17,-153.8 224.17,-153.8 221.17,-149.8 15.83,-149.8 15.83,-113.8 248.17,-113.8 248.17,-149.8"/>
<text text-anchor="middle" x="132" y="-127.6" font-family="Times,serif" font-size="14.00">StimFeatureSequencesDomainModule</text>
</g>
<!-- SequencesFacade&#45;&gt;StimFeatureSequencesDomainModule -->
<g id="edge1" class="edge">
<title>SequencesFacade&#45;&gt;StimFeatureSequencesDomainModule</title>
<path fill="none" stroke="black" d="M132,-84.91C132,-84.91 132,-103.79 132,-103.79"/>
<polygon fill="black" stroke="black" points="128.5,-103.79 132,-113.79 135.5,-103.79 128.5,-103.79"/>
</g>
</g>
</svg>
