<?xml version="1.0" encoding="UTF-8" standalone="no"?>
<!DOCTYPE svg PUBLIC "-//W3C//DTD SVG 1.1//EN"
 "http://www.w3.org/Graphics/SVG/1.1/DTD/svg11.dtd">
<!-- Generated by graphviz version 2.47.3 (20210619.1520)
 -->
<!-- Title: dependencies Pages: 1 -->
<svg width="320pt" height="174pt"
 viewBox="0.00 0.00 320.00 173.80" xmlns="http://www.w3.org/2000/svg" xmlns:xlink="http://www.w3.org/1999/xlink">
<g id="graph0" class="graph" transform="scale(1 1) rotate(0) translate(4 169.8)">
<title>dependencies</title>
<polygon fill="white" stroke="transparent" points="-4,4 -4,-169.8 316,-169.8 316,4 -4,4"/>
<text text-anchor="middle" x="156" y="-8.2" font-family="sans-serif" font-size="14.00">dependencies</text>
<g id="clust1" class="cluster">
<title>cluster_StimFeatureHelpFeatureModule</title>
<polygon fill="none" stroke="black" stroke-dasharray="1,5" points="8,-32.8 8,-157.8 304,-157.8 304,-32.8 8,-32.8"/>
</g>
<g id="clust2" class="cluster">
<title>cluster_StimFeatureHelpFeatureModule_declarations</title>
<polygon fill="none" stroke="black" points="172,-40.8 172,-92.8 296,-92.8 296,-40.8 172,-40.8"/>
</g>
<g id="clust4" class="cluster">
<title>cluster_StimFeatureHelpFeatureModule_imports</title>
<polygon fill="none" stroke="black" points="16,-40.8 16,-92.8 164,-92.8 164,-40.8 16,-40.8"/>
</g>
<!-- HelpComponent -->
<g id="node1" class="node">
<title>HelpComponent</title>
<polygon fill="#ffffb3" stroke="black" points="288.05,-84.8 179.95,-84.8 179.95,-48.8 288.05,-48.8 288.05,-84.8"/>
<text text-anchor="middle" x="234" y="-62.6" font-family="Times,serif" font-size="14.00">HelpComponent</text>
</g>
<!-- StimFeatureHelpFeatureModule -->
<g id="node2" class="node">
<title>StimFeatureHelpFeatureModule</title>
<polygon fill="#8dd3c7" stroke="black" points="254.67,-149.8 251.67,-153.8 230.67,-153.8 227.67,-149.8 57.33,-149.8 57.33,-113.8 254.67,-113.8 254.67,-149.8"/>
<text text-anchor="middle" x="156" y="-127.6" font-family="Times,serif" font-size="14.00">StimFeatureHelpFeatureModule</text>
</g>
<!-- HelpComponent&#45;&gt;StimFeatureHelpFeatureModule -->
<g id="edge1" class="edge">
<title>HelpComponent&#45;&gt;StimFeatureHelpFeatureModule</title>
<path fill="none" stroke="black" d="M217.16,-84.91C217.16,-84.91 217.16,-103.79 217.16,-103.79"/>
<polygon fill="black" stroke="black" points="213.66,-103.79 217.16,-113.79 220.66,-103.79 213.66,-103.79"/>
</g>
<!-- HelpRoutingModule -->
<g id="node3" class="node">
<title>HelpRoutingModule</title>
<polygon fill="#8dd3c7" stroke="black" points="155.88,-84.8 152.88,-88.8 131.88,-88.8 128.88,-84.8 24.12,-84.8 24.12,-48.8 155.88,-48.8 155.88,-84.8"/>
<text text-anchor="middle" x="90" y="-62.6" font-family="Times,serif" font-size="14.00">HelpRoutingModule</text>
</g>
<!-- HelpRoutingModule&#45;&gt;StimFeatureHelpFeatureModule -->
<g id="edge2" class="edge">
<title>HelpRoutingModule&#45;&gt;StimFeatureHelpFeatureModule</title>
<path fill="none" stroke="black" d="M106.68,-84.91C106.68,-84.91 106.68,-103.79 106.68,-103.79"/>
<polygon fill="black" stroke="black" points="103.18,-103.79 106.68,-113.79 110.18,-103.79 103.18,-103.79"/>
</g>
</g>
</svg>
