<?xml version="1.0" encoding="UTF-8" standalone="no"?>
<!DOCTYPE svg PUBLIC "-//W3C//DTD SVG 1.1//EN"
 "http://www.w3.org/Graphics/SVG/1.1/DTD/svg11.dtd">
<!-- Generated by graphviz version 2.47.3 (20210619.1520)
 -->
<!-- Title: dependencies Pages: 1 -->
<svg width="1770pt" height="174pt"
 viewBox="0.00 0.00 1770.00 173.80" xmlns="http://www.w3.org/2000/svg" xmlns:xlink="http://www.w3.org/1999/xlink">
<g id="graph0" class="graph" transform="scale(1 1) rotate(0) translate(4 169.8)">
<title>dependencies</title>
<polygon fill="white" stroke="transparent" points="-4,4 -4,-169.8 1766,-169.8 1766,4 -4,4"/>
<text text-anchor="middle" x="881" y="-8.2" font-family="sans-serif" font-size="14.00">dependencies</text>
<g id="clust1" class="cluster">
<title>cluster_StimFeatureSequencesFeatureModule</title>
<polygon fill="none" stroke="black" stroke-dasharray="1,5" points="8,-32.8 8,-157.8 1754,-157.8 1754,-32.8 8,-32.8"/>
</g>
<g id="clust8" class="cluster">
<title>cluster_StimFeatureSequencesFeatureModule_imports</title>
<polygon fill="none" stroke="black" points="1006,-40.8 1006,-92.8 1746,-92.8 1746,-40.8 1006,-40.8"/>
</g>
<g id="clust2" class="cluster">
<title>cluster_StimFeatureSequencesFeatureModule_declarations</title>
<polygon fill="none" stroke="black" points="16,-40.8 16,-92.8 998,-92.8 998,-40.8 16,-40.8"/>
</g>
<!-- SequenceComponent -->
<g id="node1" class="node">
<title>SequenceComponent</title>
<polygon fill="#ffffb3" stroke="black" points="990.47,-84.8 855.53,-84.8 855.53,-48.8 990.47,-48.8 990.47,-84.8"/>
<text text-anchor="middle" x="923" y="-62.6" font-family="Times,serif" font-size="14.00">SequenceComponent</text>
</g>
<!-- StimFeatureSequencesFeatureModule -->
<g id="node6" class="node">
<title>StimFeatureSequencesFeatureModule</title>
<polygon fill="#8dd3c7" stroke="black" points="1037.55,-149.8 1034.55,-153.8 1013.55,-153.8 1010.55,-149.8 808.45,-149.8 808.45,-113.8 1037.55,-113.8 1037.55,-149.8"/>
<text text-anchor="middle" x="923" y="-127.6" font-family="Times,serif" font-size="14.00">StimFeatureSequencesFeatureModule</text>
</g>
<!-- SequenceComponent&#45;&gt;StimFeatureSequencesFeatureModule -->
<g id="edge1" class="edge">
<title>SequenceComponent&#45;&gt;StimFeatureSequencesFeatureModule</title>
<path fill="none" stroke="black" d="M923,-84.91C923,-84.91 923,-103.79 923,-103.79"/>
<polygon fill="black" stroke="black" points="919.5,-103.79 923,-113.79 926.5,-103.79 919.5,-103.79"/>
</g>
<!-- SequencesComponent -->
<g id="node2" class="node">
<title>SequencesComponent</title>
<polygon fill="#ffffb3" stroke="black" points="837.42,-84.8 696.58,-84.8 696.58,-48.8 837.42,-48.8 837.42,-84.8"/>
<text text-anchor="middle" x="767" y="-62.6" font-family="Times,serif" font-size="14.00">SequencesComponent</text>
</g>
<!-- SequencesComponent&#45;&gt;StimFeatureSequencesFeatureModule -->
<g id="edge2" class="edge">
<title>SequencesComponent&#45;&gt;StimFeatureSequencesFeatureModule</title>
<path fill="none" stroke="black" d="M822.84,-84.91C822.84,-84.91 822.84,-103.79 822.84,-103.79"/>
<polygon fill="black" stroke="black" points="819.34,-103.79 822.84,-113.79 826.34,-103.79 819.34,-103.79"/>
</g>
<!-- SequencesFilterDialogComponent -->
<g id="node3" class="node">
<title>SequencesFilterDialogComponent</title>
<polygon fill="#ffffb3" stroke="black" points="678.35,-84.8 469.65,-84.8 469.65,-48.8 678.35,-48.8 678.35,-84.8"/>
<text text-anchor="middle" x="574" y="-62.6" font-family="Times,serif" font-size="14.00">SequencesFilterDialogComponent</text>
</g>
<!-- SequencesFilterDialogComponent&#45;&gt;StimFeatureSequencesFeatureModule -->
<g id="edge3" class="edge">
<title>SequencesFilterDialogComponent&#45;&gt;StimFeatureSequencesFeatureModule</title>
<path fill="none" stroke="black" d="M574,-84.83C574,-101.2 574,-122.8 574,-122.8 574,-122.8 798.24,-122.8 798.24,-122.8"/>
<polygon fill="black" stroke="black" points="798.24,-126.3 808.24,-122.8 798.24,-119.3 798.24,-126.3"/>
</g>
<!-- SequencesGhostItemListComponent -->
<g id="node4" class="node">
<title>SequencesGhostItemListComponent</title>
<polygon fill="#ffffb3" stroke="black" points="451.79,-84.8 230.21,-84.8 230.21,-48.8 451.79,-48.8 451.79,-84.8"/>
<text text-anchor="middle" x="341" y="-62.6" font-family="Times,serif" font-size="14.00">SequencesGhostItemListComponent</text>
</g>
<!-- SequencesGhostItemListComponent&#45;&gt;StimFeatureSequencesFeatureModule -->
<g id="edge4" class="edge">
<title>SequencesGhostItemListComponent&#45;&gt;StimFeatureSequencesFeatureModule</title>
<path fill="none" stroke="black" d="M341,-84.91C341,-104.14 341,-131.8 341,-131.8 341,-131.8 798.36,-131.8 798.36,-131.8"/>
<polygon fill="black" stroke="black" points="798.36,-135.3 808.36,-131.8 798.36,-128.3 798.36,-135.3"/>
</g>
<!-- SequencesItemListComponent -->
<g id="node5" class="node">
<title>SequencesItemListComponent</title>
<polygon fill="#ffffb3" stroke="black" points="211.85,-84.8 24.15,-84.8 24.15,-48.8 211.85,-48.8 211.85,-84.8"/>
<text text-anchor="middle" x="118" y="-62.6" font-family="Times,serif" font-size="14.00">SequencesItemListComponent</text>
</g>
<!-- SequencesItemListComponent&#45;&gt;StimFeatureSequencesFeatureModule -->
<g id="edge5" class="edge">
<title>SequencesItemListComponent&#45;&gt;StimFeatureSequencesFeatureModule</title>
<path fill="none" stroke="black" d="M118,-85.09C118,-107.01 118,-140.8 118,-140.8 118,-140.8 798.09,-140.8 798.09,-140.8"/>
<polygon fill="black" stroke="black" points="798.09,-144.3 808.09,-140.8 798.09,-137.3 798.09,-144.3"/>
</g>
<!-- SequencesRoutingModule -->
<g id="node7" class="node">
<title>SequencesRoutingModule</title>
<polygon fill="#8dd3c7" stroke="black" points="1737.75,-84.8 1734.75,-88.8 1713.75,-88.8 1710.75,-84.8 1574.25,-84.8 1574.25,-48.8 1737.75,-48.8 1737.75,-84.8"/>
<text text-anchor="middle" x="1656" y="-62.6" font-family="Times,serif" font-size="14.00">SequencesRoutingModule</text>
</g>
<!-- SequencesRoutingModule&#45;&gt;StimFeatureSequencesFeatureModule -->
<g id="edge6" class="edge">
<title>SequencesRoutingModule&#45;&gt;StimFeatureSequencesFeatureModule</title>
<path fill="none" stroke="black" d="M1656,-85.09C1656,-107.01 1656,-140.8 1656,-140.8 1656,-140.8 1047.53,-140.8 1047.53,-140.8"/>
<polygon fill="black" stroke="black" points="1047.53,-137.3 1037.53,-140.8 1047.53,-144.3 1047.53,-137.3"/>
</g>
<!-- StimFeatureSequencesDomainModule -->
<g id="node8" class="node">
<title>StimFeatureSequencesDomainModule</title>
<polygon fill="#8dd3c7" stroke="black" points="1556.17,-84.8 1553.17,-88.8 1532.17,-88.8 1529.17,-84.8 1323.83,-84.8 1323.83,-48.8 1556.17,-48.8 1556.17,-84.8"/>
<text text-anchor="middle" x="1440" y="-62.6" font-family="Times,serif" font-size="14.00">StimFeatureSequencesDomainModule</text>
</g>
<!-- StimFeatureSequencesDomainModule&#45;&gt;StimFeatureSequencesFeatureModule -->
<g id="edge7" class="edge">
<title>StimFeatureSequencesDomainModule&#45;&gt;StimFeatureSequencesFeatureModule</title>
<path fill="none" stroke="black" d="M1440,-84.91C1440,-104.14 1440,-131.8 1440,-131.8 1440,-131.8 1047.74,-131.8 1047.74,-131.8"/>
<polygon fill="black" stroke="black" points="1047.74,-128.3 1037.74,-131.8 1047.74,-135.3 1047.74,-128.3"/>
</g>
<!-- StimLibListUtilsModule -->
<g id="node9" class="node">
<title>StimLibListUtilsModule</title>
<polygon fill="#8dd3c7" stroke="black" points="1306.45,-84.8 1303.45,-88.8 1282.45,-88.8 1279.45,-84.8 1151.55,-84.8 1151.55,-48.8 1306.45,-48.8 1306.45,-84.8"/>
<text text-anchor="middle" x="1229" y="-62.6" font-family="Times,serif" font-size="14.00">StimLibListUtilsModule</text>
</g>
<!-- StimLibListUtilsModule&#45;&gt;StimFeatureSequencesFeatureModule -->
<g id="edge8" class="edge">
<title>StimLibListUtilsModule&#45;&gt;StimFeatureSequencesFeatureModule</title>
<path fill="none" stroke="black" d="M1229,-84.83C1229,-101.2 1229,-122.8 1229,-122.8 1229,-122.8 1047.81,-122.8 1047.81,-122.8"/>
<polygon fill="black" stroke="black" points="1047.81,-119.3 1037.81,-122.8 1047.81,-126.3 1047.81,-119.3"/>
</g>
<!-- StimLibUiModule -->
<g id="node10" class="node">
<title>StimLibUiModule</title>
<polygon fill="#8dd3c7" stroke="black" points="1133.95,-84.8 1130.95,-88.8 1109.95,-88.8 1106.95,-84.8 1014.05,-84.8 1014.05,-48.8 1133.95,-48.8 1133.95,-84.8"/>
<text text-anchor="middle" x="1074" y="-62.6" font-family="Times,serif" font-size="14.00">StimLibUiModule</text>
</g>
<!-- StimLibUiModule&#45;&gt;StimFeatureSequencesFeatureModule -->
<g id="edge9" class="edge">
<title>StimLibUiModule&#45;&gt;StimFeatureSequencesFeatureModule</title>
<path fill="none" stroke="black" d="M1025.9,-84.91C1025.9,-84.91 1025.9,-103.79 1025.9,-103.79"/>
<polygon fill="black" stroke="black" points="1022.4,-103.79 1025.9,-113.79 1029.4,-103.79 1022.4,-103.79"/>
</g>
</g>
</svg>
