<?xml version="1.0" encoding="UTF-8" standalone="no"?>
<!DOCTYPE svg PUBLIC "-//W3C//DTD SVG 1.1//EN"
 "http://www.w3.org/Graphics/SVG/1.1/DTD/svg11.dtd">
<!-- Generated by graphviz version 2.47.3 (20210619.1520)
 -->
<!-- Title: dependencies Pages: 1 -->
<svg width="1770pt" height="174pt"
 viewBox="0.00 0.00 1770.00 173.80" xmlns="http://www.w3.org/2000/svg" xmlns:xlink="http://www.w3.org/1999/xlink">
<g id="graph0" class="graph" transform="scale(1 1) rotate(0) translate(4 169.8)">
<title>dependencies</title>
<polygon fill="white" stroke="transparent" points="-4,4 -4,-169.8 1766,-169.8 1766,4 -4,4"/>
<text text-anchor="middle" x="881" y="-8.2" font-family="sans-serif" font-size="14.00">dependencies</text>
<g id="clust1" class="cluster">
<title>cluster_StimFeatureSequencesFeatureModule</title>
<polygon fill="none" stroke="black" stroke-dasharray="1,5" points="8,-32.8 8,-157.8 1754,-157.8 1754,-32.8 8,-32.8"/>
</g>
<g id="clust2" class="cluster">
<title>cluster_StimFeatureSequencesFeatureModule_declarations</title>
<polygon fill="none" stroke="black" points="764,-40.8 764,-92.8 1746,-92.8 1746,-40.8 764,-40.8"/>
</g>
<g id="clust8" class="cluster">
<title>cluster_StimFeatureSequencesFeatureModule_imports</title>
<polygon fill="none" stroke="black" points="16,-40.8 16,-92.8 756,-92.8 756,-40.8 16,-40.8"/>
</g>
<!-- SequenceComponent -->
<g id="node1" class="node">
<title>SequenceComponent</title>
<polygon fill="#ffffb3" stroke="black" points="1738.47,-84.8 1603.53,-84.8 1603.53,-48.8 1738.47,-48.8 1738.47,-84.8"/>
<text text-anchor="middle" x="1671" y="-62.6" font-family="Times,serif" font-size="14.00">SequenceComponent</text>
</g>
<!-- StimFeatureSequencesFeatureModule -->
<g id="node6" class="node">
<title>StimFeatureSequencesFeatureModule</title>
<polygon fill="#8dd3c7" stroke="black" points="980.55,-149.8 977.55,-153.8 956.55,-153.8 953.55,-149.8 751.45,-149.8 751.45,-113.8 980.55,-113.8 980.55,-149.8"/>
<text text-anchor="middle" x="866" y="-127.6" font-family="Times,serif" font-size="14.00">StimFeatureSequencesFeatureModule</text>
</g>
<!-- SequenceComponent&#45;&gt;StimFeatureSequencesFeatureModule -->
<g id="edge1" class="edge">
<title>SequenceComponent&#45;&gt;StimFeatureSequencesFeatureModule</title>
<path fill="none" stroke="black" d="M1671,-85.09C1671,-107.01 1671,-140.8 1671,-140.8 1671,-140.8 990.91,-140.8 990.91,-140.8"/>
<polygon fill="black" stroke="black" points="990.91,-137.3 980.91,-140.8 990.91,-144.3 990.91,-137.3"/>
</g>
<!-- SequencesComponent -->
<g id="node2" class="node">
<title>SequencesComponent</title>
<polygon fill="#ffffb3" stroke="black" points="1585.42,-84.8 1444.58,-84.8 1444.58,-48.8 1585.42,-48.8 1585.42,-84.8"/>
<text text-anchor="middle" x="1515" y="-62.6" font-family="Times,serif" font-size="14.00">SequencesComponent</text>
</g>
<!-- SequencesComponent&#45;&gt;StimFeatureSequencesFeatureModule -->
<g id="edge2" class="edge">
<title>SequencesComponent&#45;&gt;StimFeatureSequencesFeatureModule</title>
<path fill="none" stroke="black" d="M1515,-84.91C1515,-104.14 1515,-131.8 1515,-131.8 1515,-131.8 990.53,-131.8 990.53,-131.8"/>
<polygon fill="black" stroke="black" points="990.53,-128.3 980.53,-131.8 990.53,-135.3 990.53,-128.3"/>
</g>
<!-- SequencesFilterDialogComponent -->
<g id="node3" class="node">
<title>SequencesFilterDialogComponent</title>
<polygon fill="#ffffb3" stroke="black" points="1426.35,-84.8 1217.65,-84.8 1217.65,-48.8 1426.35,-48.8 1426.35,-84.8"/>
<text text-anchor="middle" x="1322" y="-62.6" font-family="Times,serif" font-size="14.00">SequencesFilterDialogComponent</text>
</g>
<!-- SequencesFilterDialogComponent&#45;&gt;StimFeatureSequencesFeatureModule -->
<g id="edge3" class="edge">
<title>SequencesFilterDialogComponent&#45;&gt;StimFeatureSequencesFeatureModule</title>
<path fill="none" stroke="black" d="M1322,-84.83C1322,-101.2 1322,-122.8 1322,-122.8 1322,-122.8 990.77,-122.8 990.77,-122.8"/>
<polygon fill="black" stroke="black" points="990.77,-119.3 980.77,-122.8 990.77,-126.3 990.77,-119.3"/>
</g>
<!-- SequencesGhostItemListComponent -->
<g id="node4" class="node">
<title>SequencesGhostItemListComponent</title>
<polygon fill="#ffffb3" stroke="black" points="1199.79,-84.8 978.21,-84.8 978.21,-48.8 1199.79,-48.8 1199.79,-84.8"/>
<text text-anchor="middle" x="1089" y="-62.6" font-family="Times,serif" font-size="14.00">SequencesGhostItemListComponent</text>
</g>
<!-- SequencesGhostItemListComponent&#45;&gt;StimFeatureSequencesFeatureModule -->
<g id="edge4" class="edge">
<title>SequencesGhostItemListComponent&#45;&gt;StimFeatureSequencesFeatureModule</title>
<path fill="none" stroke="black" d="M978.15,-66.8C972.52,-66.8 969.14,-66.8 969.14,-66.8 969.14,-66.8 969.14,-103.69 969.14,-103.69"/>
<polygon fill="black" stroke="black" points="965.64,-103.69 969.14,-113.69 972.64,-103.69 965.64,-103.69"/>
</g>
<!-- SequencesItemListComponent -->
<g id="node5" class="node">
<title>SequencesItemListComponent</title>
<polygon fill="#ffffb3" stroke="black" points="959.85,-84.8 772.15,-84.8 772.15,-48.8 959.85,-48.8 959.85,-84.8"/>
<text text-anchor="middle" x="866" y="-62.6" font-family="Times,serif" font-size="14.00">SequencesItemListComponent</text>
</g>
<!-- SequencesItemListComponent&#45;&gt;StimFeatureSequencesFeatureModule -->
<g id="edge5" class="edge">
<title>SequencesItemListComponent&#45;&gt;StimFeatureSequencesFeatureModule</title>
<path fill="none" stroke="black" d="M866,-84.91C866,-84.91 866,-103.79 866,-103.79"/>
<polygon fill="black" stroke="black" points="862.5,-103.79 866,-113.79 869.5,-103.79 862.5,-103.79"/>
</g>
<!-- SequencesRoutingModule -->
<g id="node7" class="node">
<title>SequencesRoutingModule</title>
<polygon fill="#8dd3c7" stroke="black" points="747.75,-84.8 744.75,-88.8 723.75,-88.8 720.75,-84.8 584.25,-84.8 584.25,-48.8 747.75,-48.8 747.75,-84.8"/>
<text text-anchor="middle" x="666" y="-62.6" font-family="Times,serif" font-size="14.00">SequencesRoutingModule</text>
</g>
<!-- SequencesRoutingModule&#45;&gt;StimFeatureSequencesFeatureModule -->
<g id="edge6" class="edge">
<title>SequencesRoutingModule&#45;&gt;StimFeatureSequencesFeatureModule</title>
<path fill="none" stroke="black" d="M748.05,-66.8C756.34,-66.8 761.78,-66.8 761.78,-66.8 761.78,-66.8 761.78,-103.69 761.78,-103.69"/>
<polygon fill="black" stroke="black" points="758.28,-103.69 761.78,-113.69 765.28,-103.69 758.28,-103.69"/>
</g>
<!-- StimFeatureSequencesDomainModule -->
<g id="node8" class="node">
<title>StimFeatureSequencesDomainModule</title>
<polygon fill="#8dd3c7" stroke="black" points="566.17,-84.8 563.17,-88.8 542.17,-88.8 539.17,-84.8 333.83,-84.8 333.83,-48.8 566.17,-48.8 566.17,-84.8"/>
<text text-anchor="middle" x="450" y="-62.6" font-family="Times,serif" font-size="14.00">StimFeatureSequencesDomainModule</text>
</g>
<!-- StimFeatureSequencesDomainModule&#45;&gt;StimFeatureSequencesFeatureModule -->
<g id="edge7" class="edge">
<title>StimFeatureSequencesDomainModule&#45;&gt;StimFeatureSequencesFeatureModule</title>
<path fill="none" stroke="black" d="M450,-84.83C450,-101.2 450,-122.8 450,-122.8 450,-122.8 741.22,-122.8 741.22,-122.8"/>
<polygon fill="black" stroke="black" points="741.22,-126.3 751.22,-122.8 741.22,-119.3 741.22,-126.3"/>
</g>
<!-- StimLibListUtilsModule -->
<g id="node9" class="node">
<title>StimLibListUtilsModule</title>
<polygon fill="#8dd3c7" stroke="black" points="316.45,-84.8 313.45,-88.8 292.45,-88.8 289.45,-84.8 161.55,-84.8 161.55,-48.8 316.45,-48.8 316.45,-84.8"/>
<text text-anchor="middle" x="239" y="-62.6" font-family="Times,serif" font-size="14.00">StimLibListUtilsModule</text>
</g>
<!-- StimLibListUtilsModule&#45;&gt;StimFeatureSequencesFeatureModule -->
<g id="edge8" class="edge">
<title>StimLibListUtilsModule&#45;&gt;StimFeatureSequencesFeatureModule</title>
<path fill="none" stroke="black" d="M239,-84.91C239,-104.14 239,-131.8 239,-131.8 239,-131.8 741.36,-131.8 741.36,-131.8"/>
<polygon fill="black" stroke="black" points="741.36,-135.3 751.36,-131.8 741.36,-128.3 741.36,-135.3"/>
</g>
<!-- StimLibUiModule -->
<g id="node10" class="node">
<title>StimLibUiModule</title>
<polygon fill="#8dd3c7" stroke="black" points="143.95,-84.8 140.95,-88.8 119.95,-88.8 116.95,-84.8 24.05,-84.8 24.05,-48.8 143.95,-48.8 143.95,-84.8"/>
<text text-anchor="middle" x="84" y="-62.6" font-family="Times,serif" font-size="14.00">StimLibUiModule</text>
</g>
<!-- StimLibUiModule&#45;&gt;StimFeatureSequencesFeatureModule -->
<g id="edge9" class="edge">
<title>StimLibUiModule&#45;&gt;StimFeatureSequencesFeatureModule</title>
<path fill="none" stroke="black" d="M84,-85.09C84,-107.01 84,-140.8 84,-140.8 84,-140.8 741.45,-140.8 741.45,-140.8"/>
<polygon fill="black" stroke="black" points="741.45,-144.3 751.45,-140.8 741.45,-137.3 741.45,-144.3"/>
</g>
</g>
</svg>
