<?xml version="1.0" encoding="UTF-8" standalone="no"?>
<!DOCTYPE svg PUBLIC "-//W3C//DTD SVG 1.1//EN"
 "http://www.w3.org/Graphics/SVG/1.1/DTD/svg11.dtd">
<!-- Generated by graphviz version 2.47.3 (20210619.1520)
 -->
<!-- Title: dependencies Pages: 1 -->
<svg width="860pt" height="174pt"
 viewBox="0.00 0.00 860.00 173.80" xmlns="http://www.w3.org/2000/svg" xmlns:xlink="http://www.w3.org/1999/xlink">
<g id="graph0" class="graph" transform="scale(1 1) rotate(0) translate(4 169.8)">
<title>dependencies</title>
<polygon fill="white" stroke="transparent" points="-4,4 -4,-169.8 856,-169.8 856,4 -4,4"/>
<text text-anchor="middle" x="426" y="-8.2" font-family="sans-serif" font-size="14.00">dependencies</text>
<g id="clust1" class="cluster">
<title>cluster_StimFeatureStimulatorFeatureModule</title>
<polygon fill="none" stroke="black" stroke-dasharray="1,5" points="8,-32.8 8,-157.8 844,-157.8 844,-32.8 8,-32.8"/>
</g>
<g id="clust2" class="cluster">
<title>cluster_StimFeatureStimulatorFeatureModule_declarations</title>
<polygon fill="none" stroke="black" points="518,-40.8 518,-92.8 836,-92.8 836,-40.8 518,-40.8"/>
</g>
<g id="clust5" class="cluster">
<title>cluster_StimFeatureStimulatorFeatureModule_imports</title>
<polygon fill="none" stroke="black" points="16,-40.8 16,-92.8 510,-92.8 510,-40.8 16,-40.8"/>
</g>
<!-- CalibrationComponent -->
<g id="node1" class="node">
<title>CalibrationComponent</title>
<polygon fill="#ffffb3" stroke="black" points="828.32,-84.8 683.68,-84.8 683.68,-48.8 828.32,-48.8 828.32,-84.8"/>
<text text-anchor="middle" x="756" y="-62.6" font-family="Times,serif" font-size="14.00">CalibrationComponent</text>
</g>
<!-- StimFeatureStimulatorFeatureModule -->
<g id="node3" class="node">
<title>StimFeatureStimulatorFeatureModule</title>
<polygon fill="#8dd3c7" stroke="black" points="537.57,-149.8 534.57,-153.8 513.57,-153.8 510.57,-149.8 308.43,-149.8 308.43,-113.8 537.57,-113.8 537.57,-149.8"/>
<text text-anchor="middle" x="423" y="-127.6" font-family="Times,serif" font-size="14.00">StimFeatureStimulatorFeatureModule</text>
</g>
<!-- CalibrationComponent&#45;&gt;StimFeatureStimulatorFeatureModule -->
<g id="edge1" class="edge">
<title>CalibrationComponent&#45;&gt;StimFeatureStimulatorFeatureModule</title>
<path fill="none" stroke="black" d="M756,-84.91C756,-104.14 756,-131.8 756,-131.8 756,-131.8 547.6,-131.8 547.6,-131.8"/>
<polygon fill="black" stroke="black" points="547.6,-128.3 537.6,-131.8 547.6,-135.3 547.6,-128.3"/>
</g>
<!-- StimulatorComponent -->
<g id="node2" class="node">
<title>StimulatorComponent</title>
<polygon fill="#ffffb3" stroke="black" points="666.44,-84.8 525.56,-84.8 525.56,-48.8 666.44,-48.8 666.44,-84.8"/>
<text text-anchor="middle" x="596" y="-62.6" font-family="Times,serif" font-size="14.00">StimulatorComponent</text>
</g>
<!-- StimulatorComponent&#45;&gt;StimFeatureStimulatorFeatureModule -->
<g id="edge2" class="edge">
<title>StimulatorComponent&#45;&gt;StimFeatureStimulatorFeatureModule</title>
<path fill="none" stroke="black" d="M531.66,-84.91C531.66,-84.91 531.66,-103.79 531.66,-103.79"/>
<polygon fill="black" stroke="black" points="528.16,-103.79 531.66,-113.79 535.16,-103.79 528.16,-103.79"/>
</g>
<!-- StimLibCommonModule -->
<g id="node4" class="node">
<title>StimLibCommonModule</title>
<polygon fill="#8dd3c7" stroke="black" points="501.57,-84.8 498.57,-88.8 477.57,-88.8 474.57,-84.8 344.43,-84.8 344.43,-48.8 501.57,-48.8 501.57,-84.8"/>
<text text-anchor="middle" x="423" y="-62.6" font-family="Times,serif" font-size="14.00">StimLibCommonModule</text>
</g>
<!-- StimLibCommonModule&#45;&gt;StimFeatureStimulatorFeatureModule -->
<g id="edge3" class="edge">
<title>StimLibCommonModule&#45;&gt;StimFeatureStimulatorFeatureModule</title>
<path fill="none" stroke="black" d="M423,-84.91C423,-84.91 423,-103.79 423,-103.79"/>
<polygon fill="black" stroke="black" points="419.5,-103.79 423,-113.79 426.5,-103.79 419.5,-103.79"/>
</g>
<!-- StimLibUiModule -->
<g id="node5" class="node">
<title>StimLibUiModule</title>
<polygon fill="#8dd3c7" stroke="black" points="325.95,-84.8 322.95,-88.8 301.95,-88.8 298.95,-84.8 206.05,-84.8 206.05,-48.8 325.95,-48.8 325.95,-84.8"/>
<text text-anchor="middle" x="266" y="-62.6" font-family="Times,serif" font-size="14.00">StimLibUiModule</text>
</g>
<!-- StimLibUiModule&#45;&gt;StimFeatureStimulatorFeatureModule -->
<g id="edge4" class="edge">
<title>StimLibUiModule&#45;&gt;StimFeatureStimulatorFeatureModule</title>
<path fill="none" stroke="black" d="M317.09,-84.91C317.09,-84.91 317.09,-103.79 317.09,-103.79"/>
<polygon fill="black" stroke="black" points="313.59,-103.79 317.09,-113.79 320.59,-103.79 313.59,-103.79"/>
</g>
<!-- StimulatorRoutingModule -->
<g id="node6" class="node">
<title>StimulatorRoutingModule</title>
<polygon fill="#8dd3c7" stroke="black" points="187.78,-84.8 184.78,-88.8 163.78,-88.8 160.78,-84.8 24.22,-84.8 24.22,-48.8 187.78,-48.8 187.78,-84.8"/>
<text text-anchor="middle" x="106" y="-62.6" font-family="Times,serif" font-size="14.00">StimulatorRoutingModule</text>
</g>
<!-- StimulatorRoutingModule&#45;&gt;StimFeatureStimulatorFeatureModule -->
<g id="edge5" class="edge">
<title>StimulatorRoutingModule&#45;&gt;StimFeatureStimulatorFeatureModule</title>
<path fill="none" stroke="black" d="M106,-84.91C106,-104.14 106,-131.8 106,-131.8 106,-131.8 298.11,-131.8 298.11,-131.8"/>
<polygon fill="black" stroke="black" points="298.11,-135.3 308.11,-131.8 298.11,-128.3 298.11,-135.3"/>
</g>
</g>
</svg>
