<?xml version="1.0" encoding="UTF-8" standalone="no"?>
<!DOCTYPE svg PUBLIC "-//W3C//DTD SVG 1.1//EN"
 "http://www.w3.org/Graphics/SVG/1.1/DTD/svg11.dtd">
<!-- Generated by graphviz version 2.47.3 (20210619.1520)
 -->
<!-- Title: dependencies Pages: 1 -->
<svg width="626pt" height="174pt"
 viewBox="0.00 0.00 626.00 173.80" xmlns="http://www.w3.org/2000/svg" xmlns:xlink="http://www.w3.org/1999/xlink">
<g id="graph0" class="graph" transform="scale(1 1) rotate(0) translate(4 169.8)">
<title>dependencies</title>
<polygon fill="white" stroke="transparent" points="-4,4 -4,-169.8 622,-169.8 622,4 -4,4"/>
<text text-anchor="middle" x="309" y="-8.2" font-family="sans-serif" font-size="14.00">dependencies</text>
<g id="clust1" class="cluster">
<title>cluster_StimFeatureSettingsDomainModule</title>
<polygon fill="none" stroke="black" stroke-dasharray="1,5" points="8,-32.8 8,-157.8 610,-157.8 610,-32.8 8,-32.8"/>
</g>
<g id="clust3" class="cluster">
<title>cluster_StimFeatureSettingsDomainModule_imports</title>
<polygon fill="none" stroke="black" points="178,-40.8 178,-92.8 602,-92.8 602,-40.8 178,-40.8"/>
</g>
<g id="clust6" class="cluster">
<title>cluster_StimFeatureSettingsDomainModule_providers</title>
<polygon fill="none" stroke="black" points="16,-40.8 16,-92.8 170,-92.8 170,-40.8 16,-40.8"/>
</g>
<!-- StimFeatureStimulatorDomainModule -->
<g id="node1" class="node">
<title>StimFeatureStimulatorDomainModule</title>
<polygon fill="#8dd3c7" stroke="black" points="594.2,-84.8 591.2,-88.8 570.2,-88.8 567.2,-84.8 361.8,-84.8 361.8,-48.8 594.2,-48.8 594.2,-84.8"/>
<text text-anchor="middle" x="478" y="-62.6" font-family="Times,serif" font-size="14.00">StimFeatureStimulatorDomainModule</text>
</g>
<!-- StimFeatureSettingsDomainModule -->
<g id="node3" class="node">
<title>StimFeatureSettingsDomainModule</title>
<polygon fill="#8dd3c7" stroke="black" points="374.2,-149.8 371.2,-153.8 350.2,-153.8 347.2,-149.8 155.8,-149.8 155.8,-113.8 374.2,-113.8 374.2,-149.8"/>
<text text-anchor="middle" x="265" y="-127.6" font-family="Times,serif" font-size="14.00">StimFeatureSettingsDomainModule</text>
</g>
<!-- StimFeatureStimulatorDomainModule&#45;&gt;StimFeatureSettingsDomainModule -->
<g id="edge1" class="edge">
<title>StimFeatureStimulatorDomainModule&#45;&gt;StimFeatureSettingsDomainModule</title>
<path fill="none" stroke="black" d="M368,-84.91C368,-84.91 368,-103.79 368,-103.79"/>
<polygon fill="black" stroke="black" points="364.5,-103.79 368,-113.79 371.5,-103.79 364.5,-103.79"/>
</g>
<!-- StimLibCommonModule -->
<g id="node2" class="node">
<title>StimLibCommonModule</title>
<polygon fill="#8dd3c7" stroke="black" points="343.57,-84.8 340.57,-88.8 319.57,-88.8 316.57,-84.8 186.43,-84.8 186.43,-48.8 343.57,-48.8 343.57,-84.8"/>
<text text-anchor="middle" x="265" y="-62.6" font-family="Times,serif" font-size="14.00">StimLibCommonModule</text>
</g>
<!-- StimLibCommonModule&#45;&gt;StimFeatureSettingsDomainModule -->
<g id="edge2" class="edge">
<title>StimLibCommonModule&#45;&gt;StimFeatureSettingsDomainModule</title>
<path fill="none" stroke="black" d="M265,-84.91C265,-84.91 265,-103.79 265,-103.79"/>
<polygon fill="black" stroke="black" points="261.5,-103.79 265,-113.79 268.5,-103.79 261.5,-103.79"/>
</g>
<!-- SettingsFacade -->
<g id="node4" class="node">
<title>SettingsFacade</title>
<ellipse fill="#fdb462" stroke="black" cx="93" cy="-66.8" rx="69.5" ry="18"/>
<text text-anchor="middle" x="93" y="-62.6" font-family="Times,serif" font-size="14.00">SettingsFacade</text>
</g>
<!-- SettingsFacade&#45;&gt;StimFeatureSettingsDomainModule -->
<g id="edge3" class="edge">
<title>SettingsFacade&#45;&gt;StimFeatureSettingsDomainModule</title>
<path fill="none" stroke="black" d="M162.7,-66.8C169.74,-66.8 174.36,-66.8 174.36,-66.8 174.36,-66.8 174.36,-103.69 174.36,-103.69"/>
<polygon fill="black" stroke="black" points="170.86,-103.69 174.36,-113.69 177.86,-103.69 170.86,-103.69"/>
</g>
</g>
</svg>
