<?xml version="1.0" encoding="UTF-8" standalone="no"?>
<!DOCTYPE svg PUBLIC "-//W3C//DTD SVG 1.1//EN"
 "http://www.w3.org/Graphics/SVG/1.1/DTD/svg11.dtd">
<!-- Generated by graphviz version 2.47.3 (20210619.1520)
 -->
<!-- Title: dependencies Pages: 1 -->
<svg width="2653pt" height="174pt"
 viewBox="0.00 0.00 2653.00 173.80" xmlns="http://www.w3.org/2000/svg" xmlns:xlink="http://www.w3.org/1999/xlink">
<g id="graph0" class="graph" transform="scale(1 1) rotate(0) translate(4 169.8)">
<title>dependencies</title>
<polygon fill="white" stroke="transparent" points="-4,4 -4,-169.8 2649,-169.8 2649,4 -4,4"/>
<text text-anchor="middle" x="1322.5" y="-8.2" font-family="sans-serif" font-size="14.00">dependencies</text>
<g id="clust1" class="cluster">
<title>cluster_StimFeaturePlayerFeatureModule</title>
<polygon fill="none" stroke="black" stroke-dasharray="1,5" points="8,-32.8 8,-157.8 2637,-157.8 2637,-32.8 8,-32.8"/>
</g>
<g id="clust2" class="cluster">
<title>cluster_StimFeaturePlayerFeatureModule_declarations</title>
<polygon fill="none" stroke="black" points="1109,-40.8 1109,-92.8 2629,-92.8 2629,-40.8 1109,-40.8"/>
</g>
<g id="clust11" class="cluster">
<title>cluster_StimFeaturePlayerFeatureModule_imports</title>
<polygon fill="none" stroke="black" points="16,-40.8 16,-92.8 1101,-92.8 1101,-40.8 16,-40.8"/>
</g>
<!-- CountingCycleComponent -->
<g id="node1" class="node">
<title>CountingCycleComponent</title>
<polygon fill="#ffffb3" stroke="black" points="2621.11,-84.8 2454.89,-84.8 2454.89,-48.8 2621.11,-48.8 2621.11,-84.8"/>
<text text-anchor="middle" x="2538" y="-62.6" font-family="Times,serif" font-size="14.00">CountingCycleComponent</text>
</g>
<!-- StimFeaturePlayerFeatureModule -->
<g id="node9" class="node">
<title>StimFeaturePlayerFeatureModule</title>
<polygon fill="#8dd3c7" stroke="black" points="1480.72,-149.8 1477.72,-153.8 1456.72,-153.8 1453.72,-149.8 1275.28,-149.8 1275.28,-113.8 1480.72,-113.8 1480.72,-149.8"/>
<text text-anchor="middle" x="1378" y="-127.6" font-family="Times,serif" font-size="14.00">StimFeaturePlayerFeatureModule</text>
</g>
<!-- CountingCycleComponent&#45;&gt;StimFeaturePlayerFeatureModule -->
<g id="edge1" class="edge">
<title>CountingCycleComponent&#45;&gt;StimFeaturePlayerFeatureModule</title>
<path fill="none" stroke="black" d="M2538,-84.89C2538,-107.93 2538,-144.8 2538,-144.8 2538,-144.8 1490.94,-144.8 1490.94,-144.8"/>
<polygon fill="black" stroke="black" points="1490.94,-141.3 1480.94,-144.8 1490.94,-148.3 1490.94,-141.3"/>
</g>
<!-- CountingExperimentComponent -->
<g id="node2" class="node">
<title>CountingExperimentComponent</title>
<polygon fill="#ffffb3" stroke="black" points="2437.26,-84.8 2238.74,-84.8 2238.74,-48.8 2437.26,-48.8 2437.26,-84.8"/>
<text text-anchor="middle" x="2338" y="-62.6" font-family="Times,serif" font-size="14.00">CountingExperimentComponent</text>
</g>
<!-- CountingExperimentComponent&#45;&gt;StimFeaturePlayerFeatureModule -->
<g id="edge2" class="edge">
<title>CountingExperimentComponent&#45;&gt;StimFeaturePlayerFeatureModule</title>
<path fill="none" stroke="black" d="M2338,-85.08C2338,-106.12 2338,-137.8 2338,-137.8 2338,-137.8 1490.74,-137.8 1490.74,-137.8"/>
<polygon fill="black" stroke="black" points="1490.74,-134.3 1480.74,-137.8 1490.74,-141.3 1490.74,-134.3"/>
</g>
<!-- NoConditionComponent -->
<g id="node3" class="node">
<title>NoConditionComponent</title>
<polygon fill="#ffffb3" stroke="black" points="2220.45,-84.8 2065.55,-84.8 2065.55,-48.8 2220.45,-48.8 2220.45,-84.8"/>
<text text-anchor="middle" x="2143" y="-62.6" font-family="Times,serif" font-size="14.00">NoConditionComponent</text>
</g>
<!-- NoConditionComponent&#45;&gt;StimFeaturePlayerFeatureModule -->
<g id="edge3" class="edge">
<title>NoConditionComponent&#45;&gt;StimFeaturePlayerFeatureModule</title>
<path fill="none" stroke="black" d="M2143,-84.91C2143,-104.14 2143,-131.8 2143,-131.8 2143,-131.8 1490.77,-131.8 1490.77,-131.8"/>
<polygon fill="black" stroke="black" points="1490.77,-128.3 1480.77,-131.8 1490.77,-135.3 1490.77,-128.3"/>
</g>
<!-- PlayerComponent -->
<g id="node4" class="node">
<title>PlayerComponent</title>
<polygon fill="#ffffb3" stroke="black" points="2047.6,-84.8 1930.4,-84.8 1930.4,-48.8 2047.6,-48.8 2047.6,-84.8"/>
<text text-anchor="middle" x="1989" y="-62.6" font-family="Times,serif" font-size="14.00">PlayerComponent</text>
</g>
<!-- PlayerComponent&#45;&gt;StimFeaturePlayerFeatureModule -->
<g id="edge4" class="edge">
<title>PlayerComponent&#45;&gt;StimFeaturePlayerFeatureModule</title>
<path fill="none" stroke="black" d="M1989,-84.82C1989,-102.17 1989,-125.8 1989,-125.8 1989,-125.8 1490.96,-125.8 1490.96,-125.8"/>
<polygon fill="black" stroke="black" points="1490.96,-122.3 1480.96,-125.8 1490.96,-129.3 1490.96,-122.3"/>
</g>
<!-- PlayerExperimentTypeResolverDirective -->
<g id="node5" class="node">
<title>PlayerExperimentTypeResolverDirective</title>
<polygon fill="#ffffb3" stroke="black" points="1912.69,-84.8 1665.31,-84.8 1665.31,-48.8 1912.69,-48.8 1912.69,-84.8"/>
<text text-anchor="middle" x="1789" y="-62.6" font-family="Times,serif" font-size="14.00">PlayerExperimentTypeResolverDirective</text>
</g>
<!-- PlayerExperimentTypeResolverDirective&#45;&gt;StimFeaturePlayerFeatureModule -->
<g id="edge5" class="edge">
<title>PlayerExperimentTypeResolverDirective&#45;&gt;StimFeaturePlayerFeatureModule</title>
<path fill="none" stroke="black" d="M1789,-85.04C1789,-100.37 1789,-119.8 1789,-119.8 1789,-119.8 1490.92,-119.8 1490.92,-119.8"/>
<polygon fill="black" stroke="black" points="1490.92,-116.3 1480.92,-119.8 1490.92,-123.3 1490.92,-116.3"/>
</g>
<!-- PlayerPageToolsComponent -->
<g id="node6" class="node">
<title>PlayerPageToolsComponent</title>
<polygon fill="#ffffb3" stroke="black" points="1647.2,-84.8 1470.8,-84.8 1470.8,-48.8 1647.2,-48.8 1647.2,-84.8"/>
<text text-anchor="middle" x="1559" y="-62.6" font-family="Times,serif" font-size="14.00">PlayerPageToolsComponent</text>
</g>
<!-- PlayerPageToolsComponent&#45;&gt;StimFeaturePlayerFeatureModule -->
<g id="edge6" class="edge">
<title>PlayerPageToolsComponent&#45;&gt;StimFeaturePlayerFeatureModule</title>
<path fill="none" stroke="black" d="M1475.88,-84.91C1475.88,-84.91 1475.88,-103.79 1475.88,-103.79"/>
<polygon fill="black" stroke="black" points="1472.38,-103.79 1475.88,-113.79 1479.38,-103.79 1472.38,-103.79"/>
</g>
<!-- StopConditionDirective -->
<g id="node7" class="node">
<title>StopConditionDirective</title>
<polygon fill="#ffffb3" stroke="black" points="1452.76,-84.8 1303.24,-84.8 1303.24,-48.8 1452.76,-48.8 1452.76,-84.8"/>
<text text-anchor="middle" x="1378" y="-62.6" font-family="Times,serif" font-size="14.00">StopConditionDirective</text>
</g>
<!-- StopConditionDirective&#45;&gt;StimFeaturePlayerFeatureModule -->
<g id="edge7" class="edge">
<title>StopConditionDirective&#45;&gt;StimFeaturePlayerFeatureModule</title>
<path fill="none" stroke="black" d="M1378,-84.91C1378,-84.91 1378,-103.79 1378,-103.79"/>
<polygon fill="black" stroke="black" points="1374.5,-103.79 1378,-113.79 1381.5,-103.79 1374.5,-103.79"/>
</g>
<!-- StopConditionsComponent -->
<g id="node8" class="node">
<title>StopConditionsComponent</title>
<polygon fill="#ffffb3" stroke="black" points="1285.46,-84.8 1116.54,-84.8 1116.54,-48.8 1285.46,-48.8 1285.46,-84.8"/>
<text text-anchor="middle" x="1201" y="-62.6" font-family="Times,serif" font-size="14.00">StopConditionsComponent</text>
</g>
<!-- StopConditionsComponent&#45;&gt;StimFeaturePlayerFeatureModule -->
<g id="edge8" class="edge">
<title>StopConditionsComponent&#45;&gt;StimFeaturePlayerFeatureModule</title>
<path fill="none" stroke="black" d="M1280.18,-84.91C1280.18,-84.91 1280.18,-103.79 1280.18,-103.79"/>
<polygon fill="black" stroke="black" points="1276.68,-103.79 1280.18,-113.79 1283.68,-103.79 1276.68,-103.79"/>
</g>
<!-- PlayerRoutingModule -->
<g id="node10" class="node">
<title>PlayerRoutingModule</title>
<polygon fill="#8dd3c7" stroke="black" points="1093.43,-84.8 1090.43,-88.8 1069.43,-88.8 1066.43,-84.8 952.57,-84.8 952.57,-48.8 1093.43,-48.8 1093.43,-84.8"/>
<text text-anchor="middle" x="1023" y="-62.6" font-family="Times,serif" font-size="14.00">PlayerRoutingModule</text>
</g>
<!-- PlayerRoutingModule&#45;&gt;StimFeaturePlayerFeatureModule -->
<g id="edge9" class="edge">
<title>PlayerRoutingModule&#45;&gt;StimFeaturePlayerFeatureModule</title>
<path fill="none" stroke="black" d="M1023,-85.04C1023,-100.37 1023,-119.8 1023,-119.8 1023,-119.8 1264.84,-119.8 1264.84,-119.8"/>
<polygon fill="black" stroke="black" points="1264.84,-123.3 1274.84,-119.8 1264.84,-116.3 1264.84,-123.3"/>
</g>
<!-- StimFeatureExperimentsDomainModule -->
<g id="node11" class="node">
<title>StimFeatureExperimentsDomainModule</title>
<polygon fill="#8dd3c7" stroke="black" points="934.84,-84.8 931.84,-88.8 910.84,-88.8 907.84,-84.8 691.16,-84.8 691.16,-48.8 934.84,-48.8 934.84,-84.8"/>
<text text-anchor="middle" x="813" y="-62.6" font-family="Times,serif" font-size="14.00">StimFeatureExperimentsDomainModule</text>
</g>
<!-- StimFeatureExperimentsDomainModule&#45;&gt;StimFeaturePlayerFeatureModule -->
<g id="edge10" class="edge">
<title>StimFeatureExperimentsDomainModule&#45;&gt;StimFeaturePlayerFeatureModule</title>
<path fill="none" stroke="black" d="M813,-84.82C813,-102.17 813,-125.8 813,-125.8 813,-125.8 1265.03,-125.8 1265.03,-125.8"/>
<polygon fill="black" stroke="black" points="1265.03,-129.3 1275.03,-125.8 1265.03,-122.3 1265.03,-129.3"/>
</g>
<!-- StimFeaturePlayerDomainModule -->
<g id="node12" class="node">
<title>StimFeaturePlayerDomainModule</title>
<polygon fill="#8dd3c7" stroke="black" points="673.35,-84.8 670.35,-88.8 649.35,-88.8 646.35,-84.8 464.65,-84.8 464.65,-48.8 673.35,-48.8 673.35,-84.8"/>
<text text-anchor="middle" x="569" y="-62.6" font-family="Times,serif" font-size="14.00">StimFeaturePlayerDomainModule</text>
</g>
<!-- StimFeaturePlayerDomainModule&#45;&gt;StimFeaturePlayerFeatureModule -->
<g id="edge11" class="edge">
<title>StimFeaturePlayerDomainModule&#45;&gt;StimFeaturePlayerFeatureModule</title>
<path fill="none" stroke="black" d="M569,-84.91C569,-104.14 569,-131.8 569,-131.8 569,-131.8 1265.13,-131.8 1265.13,-131.8"/>
<polygon fill="black" stroke="black" points="1265.13,-135.3 1275.13,-131.8 1265.13,-128.3 1265.13,-135.3"/>
</g>
<!-- StimFeatureSettingsFeatureServiceStateModule -->
<g id="node13" class="node">
<title>StimFeatureSettingsFeatureServiceStateModule</title>
<polygon fill="#8dd3c7" stroke="black" points="446.54,-84.8 443.54,-88.8 422.54,-88.8 419.54,-84.8 161.46,-84.8 161.46,-48.8 446.54,-48.8 446.54,-84.8"/>
<text text-anchor="middle" x="304" y="-62.6" font-family="Times,serif" font-size="14.00">StimFeatureSettingsFeatureServiceStateModule</text>
</g>
<!-- StimFeatureSettingsFeatureServiceStateModule&#45;&gt;StimFeaturePlayerFeatureModule -->
<g id="edge12" class="edge">
<title>StimFeatureSettingsFeatureServiceStateModule&#45;&gt;StimFeaturePlayerFeatureModule</title>
<path fill="none" stroke="black" d="M304,-85.08C304,-106.12 304,-137.8 304,-137.8 304,-137.8 1265.02,-137.8 1265.02,-137.8"/>
<polygon fill="black" stroke="black" points="1265.02,-141.3 1275.02,-137.8 1265.02,-134.3 1265.02,-141.3"/>
</g>
<!-- StimLibUiModule -->
<g id="node14" class="node">
<title>StimLibUiModule</title>
<polygon fill="#8dd3c7" stroke="black" points="143.95,-84.8 140.95,-88.8 119.95,-88.8 116.95,-84.8 24.05,-84.8 24.05,-48.8 143.95,-48.8 143.95,-84.8"/>
<text text-anchor="middle" x="84" y="-62.6" font-family="Times,serif" font-size="14.00">StimLibUiModule</text>
</g>
<!-- StimLibUiModule&#45;&gt;StimFeaturePlayerFeatureModule -->
<g id="edge13" class="edge">
<title>StimLibUiModule&#45;&gt;StimFeaturePlayerFeatureModule</title>
<path fill="none" stroke="black" d="M84,-84.89C84,-107.93 84,-144.8 84,-144.8 84,-144.8 1265.11,-144.8 1265.11,-144.8"/>
<polygon fill="black" stroke="black" points="1265.11,-148.3 1275.11,-144.8 1265.11,-141.3 1265.11,-148.3"/>
</g>
</g>
</svg>
