<?xml version="1.0" encoding="UTF-8" standalone="no"?>
<!DOCTYPE svg PUBLIC "-//W3C//DTD SVG 1.1//EN"
 "http://www.w3.org/Graphics/SVG/1.1/DTD/svg11.dtd">
<!-- Generated by graphviz version 2.47.3 (20210619.1520)
 -->
<!-- Title: dependencies Pages: 1 -->
<svg width="2653pt" height="174pt"
 viewBox="0.00 0.00 2653.00 173.80" xmlns="http://www.w3.org/2000/svg" xmlns:xlink="http://www.w3.org/1999/xlink">
<g id="graph0" class="graph" transform="scale(1 1) rotate(0) translate(4 169.8)">
<title>dependencies</title>
<polygon fill="white" stroke="transparent" points="-4,4 -4,-169.8 2649,-169.8 2649,4 -4,4"/>
<text text-anchor="middle" x="1322.5" y="-8.2" font-family="sans-serif" font-size="14.00">dependencies</text>
<g id="clust1" class="cluster">
<title>cluster_StimFeaturePlayerFeatureModule</title>
<polygon fill="none" stroke="black" stroke-dasharray="1,5" points="8,-32.8 8,-157.8 2637,-157.8 2637,-32.8 8,-32.8"/>
</g>
<g id="clust11" class="cluster">
<title>cluster_StimFeaturePlayerFeatureModule_imports</title>
<polygon fill="none" stroke="black" points="1544,-40.8 1544,-92.8 2629,-92.8 2629,-40.8 1544,-40.8"/>
</g>
<g id="clust2" class="cluster">
<title>cluster_StimFeaturePlayerFeatureModule_declarations</title>
<polygon fill="none" stroke="black" points="16,-40.8 16,-92.8 1536,-92.8 1536,-40.8 16,-40.8"/>
</g>
<!-- CountingCycleComponent -->
<g id="node1" class="node">
<title>CountingCycleComponent</title>
<polygon fill="#ffffb3" stroke="black" points="1528.11,-84.8 1361.89,-84.8 1361.89,-48.8 1528.11,-48.8 1528.11,-84.8"/>
<text text-anchor="middle" x="1445" y="-62.6" font-family="Times,serif" font-size="14.00">CountingCycleComponent</text>
</g>
<!-- StimFeaturePlayerFeatureModule -->
<g id="node9" class="node">
<title>StimFeaturePlayerFeatureModule</title>
<polygon fill="#8dd3c7" stroke="black" points="1347.72,-149.8 1344.72,-153.8 1323.72,-153.8 1320.72,-149.8 1142.28,-149.8 1142.28,-113.8 1347.72,-113.8 1347.72,-149.8"/>
<text text-anchor="middle" x="1245" y="-127.6" font-family="Times,serif" font-size="14.00">StimFeaturePlayerFeatureModule</text>
</g>
<!-- CountingCycleComponent&#45;&gt;StimFeaturePlayerFeatureModule -->
<g id="edge1" class="edge">
<title>CountingCycleComponent&#45;&gt;StimFeaturePlayerFeatureModule</title>
<path fill="none" stroke="black" d="M1445,-85.04C1445,-100.37 1445,-119.8 1445,-119.8 1445,-119.8 1357.93,-119.8 1357.93,-119.8"/>
<polygon fill="black" stroke="black" points="1357.93,-116.3 1347.93,-119.8 1357.93,-123.3 1357.93,-116.3"/>
</g>
<!-- CountingExperimentComponent -->
<g id="node2" class="node">
<title>CountingExperimentComponent</title>
<polygon fill="#ffffb3" stroke="black" points="1344.26,-84.8 1145.74,-84.8 1145.74,-48.8 1344.26,-48.8 1344.26,-84.8"/>
<text text-anchor="middle" x="1245" y="-62.6" font-family="Times,serif" font-size="14.00">CountingExperimentComponent</text>
</g>
<!-- CountingExperimentComponent&#45;&gt;StimFeaturePlayerFeatureModule -->
<g id="edge2" class="edge">
<title>CountingExperimentComponent&#45;&gt;StimFeaturePlayerFeatureModule</title>
<path fill="none" stroke="black" d="M1245,-84.91C1245,-84.91 1245,-103.79 1245,-103.79"/>
<polygon fill="black" stroke="black" points="1241.5,-103.79 1245,-113.79 1248.5,-103.79 1241.5,-103.79"/>
</g>
<!-- NoConditionComponent -->
<g id="node3" class="node">
<title>NoConditionComponent</title>
<polygon fill="#ffffb3" stroke="black" points="1127.45,-84.8 972.55,-84.8 972.55,-48.8 1127.45,-48.8 1127.45,-84.8"/>
<text text-anchor="middle" x="1050" y="-62.6" font-family="Times,serif" font-size="14.00">NoConditionComponent</text>
</g>
<!-- NoConditionComponent&#45;&gt;StimFeaturePlayerFeatureModule -->
<g id="edge3" class="edge">
<title>NoConditionComponent&#45;&gt;StimFeaturePlayerFeatureModule</title>
<path fill="none" stroke="black" d="M1050,-85.04C1050,-100.37 1050,-119.8 1050,-119.8 1050,-119.8 1132.08,-119.8 1132.08,-119.8"/>
<polygon fill="black" stroke="black" points="1132.08,-123.3 1142.08,-119.8 1132.08,-116.3 1132.08,-123.3"/>
</g>
<!-- PlayerComponent -->
<g id="node4" class="node">
<title>PlayerComponent</title>
<polygon fill="#ffffb3" stroke="black" points="954.6,-84.8 837.4,-84.8 837.4,-48.8 954.6,-48.8 954.6,-84.8"/>
<text text-anchor="middle" x="896" y="-62.6" font-family="Times,serif" font-size="14.00">PlayerComponent</text>
</g>
<!-- PlayerComponent&#45;&gt;StimFeaturePlayerFeatureModule -->
<g id="edge4" class="edge">
<title>PlayerComponent&#45;&gt;StimFeaturePlayerFeatureModule</title>
<path fill="none" stroke="black" d="M896,-84.83C896,-101.86 896,-124.8 896,-124.8 896,-124.8 1132.18,-124.8 1132.18,-124.8"/>
<polygon fill="black" stroke="black" points="1132.18,-128.3 1142.18,-124.8 1132.18,-121.3 1132.18,-128.3"/>
</g>
<!-- PlayerExperimentTypeResolverDirective -->
<g id="node5" class="node">
<title>PlayerExperimentTypeResolverDirective</title>
<polygon fill="#ffffb3" stroke="black" points="819.69,-84.8 572.31,-84.8 572.31,-48.8 819.69,-48.8 819.69,-84.8"/>
<text text-anchor="middle" x="696" y="-62.6" font-family="Times,serif" font-size="14.00">PlayerExperimentTypeResolverDirective</text>
</g>
<!-- PlayerExperimentTypeResolverDirective&#45;&gt;StimFeaturePlayerFeatureModule -->
<g id="edge5" class="edge">
<title>PlayerExperimentTypeResolverDirective&#45;&gt;StimFeaturePlayerFeatureModule</title>
<path fill="none" stroke="black" d="M696,-85.02C696,-103.63 696,-129.8 696,-129.8 696,-129.8 1132.06,-129.8 1132.06,-129.8"/>
<polygon fill="black" stroke="black" points="1132.06,-133.3 1142.06,-129.8 1132.06,-126.3 1132.06,-133.3"/>
</g>
<!-- PlayerPageToolsComponent -->
<g id="node6" class="node">
<title>PlayerPageToolsComponent</title>
<polygon fill="#ffffb3" stroke="black" points="554.2,-84.8 377.8,-84.8 377.8,-48.8 554.2,-48.8 554.2,-84.8"/>
<text text-anchor="middle" x="466" y="-62.6" font-family="Times,serif" font-size="14.00">PlayerPageToolsComponent</text>
</g>
<!-- PlayerPageToolsComponent&#45;&gt;StimFeaturePlayerFeatureModule -->
<g id="edge6" class="edge">
<title>PlayerPageToolsComponent&#45;&gt;StimFeaturePlayerFeatureModule</title>
<path fill="none" stroke="black" d="M466,-85.02C466,-105.17 466,-134.8 466,-134.8 466,-134.8 1131.96,-134.8 1131.96,-134.8"/>
<polygon fill="black" stroke="black" points="1131.96,-138.3 1141.96,-134.8 1131.96,-131.3 1131.96,-138.3"/>
</g>
<!-- StopConditionDirective -->
<g id="node7" class="node">
<title>StopConditionDirective</title>
<polygon fill="#ffffb3" stroke="black" points="359.76,-84.8 210.24,-84.8 210.24,-48.8 359.76,-48.8 359.76,-84.8"/>
<text text-anchor="middle" x="285" y="-62.6" font-family="Times,serif" font-size="14.00">StopConditionDirective</text>
</g>
<!-- StopConditionDirective&#45;&gt;StimFeaturePlayerFeatureModule -->
<g id="edge7" class="edge">
<title>StopConditionDirective&#45;&gt;StimFeaturePlayerFeatureModule</title>
<path fill="none" stroke="black" d="M285,-84.84C285,-106.46 285,-139.8 285,-139.8 285,-139.8 1132.26,-139.8 1132.26,-139.8"/>
<polygon fill="black" stroke="black" points="1132.26,-143.3 1142.26,-139.8 1132.26,-136.3 1132.26,-143.3"/>
</g>
<!-- StopConditionsComponent -->
<g id="node8" class="node">
<title>StopConditionsComponent</title>
<polygon fill="#ffffb3" stroke="black" points="192.46,-84.8 23.54,-84.8 23.54,-48.8 192.46,-48.8 192.46,-84.8"/>
<text text-anchor="middle" x="108" y="-62.6" font-family="Times,serif" font-size="14.00">StopConditionsComponent</text>
</g>
<!-- StopConditionsComponent&#45;&gt;StimFeaturePlayerFeatureModule -->
<g id="edge8" class="edge">
<title>StopConditionsComponent&#45;&gt;StimFeaturePlayerFeatureModule</title>
<path fill="none" stroke="black" d="M108,-84.89C108,-107.93 108,-144.8 108,-144.8 108,-144.8 1132.09,-144.8 1132.09,-144.8"/>
<polygon fill="black" stroke="black" points="1132.09,-148.3 1142.09,-144.8 1132.09,-141.3 1132.09,-148.3"/>
</g>
<!-- PlayerRoutingModule -->
<g id="node10" class="node">
<title>PlayerRoutingModule</title>
<polygon fill="#8dd3c7" stroke="black" points="2621.43,-84.8 2618.43,-88.8 2597.43,-88.8 2594.43,-84.8 2480.57,-84.8 2480.57,-48.8 2621.43,-48.8 2621.43,-84.8"/>
<text text-anchor="middle" x="2551" y="-62.6" font-family="Times,serif" font-size="14.00">PlayerRoutingModule</text>
</g>
<!-- PlayerRoutingModule&#45;&gt;StimFeaturePlayerFeatureModule -->
<g id="edge9" class="edge">
<title>PlayerRoutingModule&#45;&gt;StimFeaturePlayerFeatureModule</title>
<path fill="none" stroke="black" d="M2551,-84.89C2551,-107.93 2551,-144.8 2551,-144.8 2551,-144.8 1357.75,-144.8 1357.75,-144.8"/>
<polygon fill="black" stroke="black" points="1357.75,-141.3 1347.75,-144.8 1357.75,-148.3 1357.75,-141.3"/>
</g>
<!-- StimFeatureExperimentsDomainModule -->
<g id="node11" class="node">
<title>StimFeatureExperimentsDomainModule</title>
<polygon fill="#8dd3c7" stroke="black" points="2462.84,-84.8 2459.84,-88.8 2438.84,-88.8 2435.84,-84.8 2219.16,-84.8 2219.16,-48.8 2462.84,-48.8 2462.84,-84.8"/>
<text text-anchor="middle" x="2341" y="-62.6" font-family="Times,serif" font-size="14.00">StimFeatureExperimentsDomainModule</text>
</g>
<!-- StimFeatureExperimentsDomainModule&#45;&gt;StimFeaturePlayerFeatureModule -->
<g id="edge10" class="edge">
<title>StimFeatureExperimentsDomainModule&#45;&gt;StimFeaturePlayerFeatureModule</title>
<path fill="none" stroke="black" d="M2341,-84.84C2341,-106.46 2341,-139.8 2341,-139.8 2341,-139.8 1358.11,-139.8 1358.11,-139.8"/>
<polygon fill="black" stroke="black" points="1358.11,-136.3 1348.11,-139.8 1358.11,-143.3 1358.11,-136.3"/>
</g>
<!-- StimFeaturePlayerDomainModule -->
<g id="node12" class="node">
<title>StimFeaturePlayerDomainModule</title>
<polygon fill="#8dd3c7" stroke="black" points="2201.35,-84.8 2198.35,-88.8 2177.35,-88.8 2174.35,-84.8 1992.65,-84.8 1992.65,-48.8 2201.35,-48.8 2201.35,-84.8"/>
<text text-anchor="middle" x="2097" y="-62.6" font-family="Times,serif" font-size="14.00">StimFeaturePlayerDomainModule</text>
</g>
<!-- StimFeaturePlayerDomainModule&#45;&gt;StimFeaturePlayerFeatureModule -->
<g id="edge11" class="edge">
<title>StimFeaturePlayerDomainModule&#45;&gt;StimFeaturePlayerFeatureModule</title>
<path fill="none" stroke="black" d="M2097,-85.02C2097,-105.17 2097,-134.8 2097,-134.8 2097,-134.8 1357.77,-134.8 1357.77,-134.8"/>
<polygon fill="black" stroke="black" points="1357.77,-131.3 1347.77,-134.8 1357.77,-138.3 1357.77,-131.3"/>
</g>
<!-- StimFeatureSettingsFeatureServiceStateModule -->
<g id="node13" class="node">
<title>StimFeatureSettingsFeatureServiceStateModule</title>
<polygon fill="#8dd3c7" stroke="black" points="1974.54,-84.8 1971.54,-88.8 1950.54,-88.8 1947.54,-84.8 1689.46,-84.8 1689.46,-48.8 1974.54,-48.8 1974.54,-84.8"/>
<text text-anchor="middle" x="1832" y="-62.6" font-family="Times,serif" font-size="14.00">StimFeatureSettingsFeatureServiceStateModule</text>
</g>
<!-- StimFeatureSettingsFeatureServiceStateModule&#45;&gt;StimFeaturePlayerFeatureModule -->
<g id="edge12" class="edge">
<title>StimFeatureSettingsFeatureServiceStateModule&#45;&gt;StimFeaturePlayerFeatureModule</title>
<path fill="none" stroke="black" d="M1832,-85.02C1832,-103.63 1832,-129.8 1832,-129.8 1832,-129.8 1357.92,-129.8 1357.92,-129.8"/>
<polygon fill="black" stroke="black" points="1357.92,-126.3 1347.92,-129.8 1357.92,-133.3 1357.92,-126.3"/>
</g>
<!-- StimLibUiModule -->
<g id="node14" class="node">
<title>StimLibUiModule</title>
<polygon fill="#8dd3c7" stroke="black" points="1671.95,-84.8 1668.95,-88.8 1647.95,-88.8 1644.95,-84.8 1552.05,-84.8 1552.05,-48.8 1671.95,-48.8 1671.95,-84.8"/>
<text text-anchor="middle" x="1612" y="-62.6" font-family="Times,serif" font-size="14.00">StimLibUiModule</text>
</g>
<!-- StimLibUiModule&#45;&gt;StimFeaturePlayerFeatureModule -->
<g id="edge13" class="edge">
<title>StimLibUiModule&#45;&gt;StimFeaturePlayerFeatureModule</title>
<path fill="none" stroke="black" d="M1612,-84.83C1612,-101.86 1612,-124.8 1612,-124.8 1612,-124.8 1358.21,-124.8 1358.21,-124.8"/>
<polygon fill="black" stroke="black" points="1358.21,-121.3 1348.21,-124.8 1358.21,-128.3 1358.21,-121.3"/>
</g>
</g>
</svg>
