<?xml version="1.0" encoding="UTF-8" standalone="no"?>
<!DOCTYPE svg PUBLIC "-//W3C//DTD SVG 1.1//EN"
 "http://www.w3.org/Graphics/SVG/1.1/DTD/svg11.dtd">
<!-- Generated by graphviz version 2.47.3 (20210619.1520)
 -->
<!-- Title: dependencies Pages: 1 -->
<svg width="447pt" height="174pt"
 viewBox="0.00 0.00 447.00 173.80" xmlns="http://www.w3.org/2000/svg" xmlns:xlink="http://www.w3.org/1999/xlink">
<g id="graph0" class="graph" transform="scale(1 1) rotate(0) translate(4 169.8)">
<title>dependencies</title>
<polygon fill="white" stroke="transparent" points="-4,4 -4,-169.8 443,-169.8 443,4 -4,4"/>
<text text-anchor="middle" x="219.5" y="-8.2" font-family="sans-serif" font-size="14.00">dependencies</text>
<g id="clust1" class="cluster">
<title>cluster_StimFeatureNavigationDomainModule</title>
<polygon fill="none" stroke="black" stroke-dasharray="1,5" points="8,-32.8 8,-157.8 431,-157.8 431,-32.8 8,-32.8"/>
</g>
<g id="clust6" class="cluster">
<title>cluster_StimFeatureNavigationDomainModule_providers</title>
<polygon fill="none" stroke="black" points="16,-40.8 16,-92.8 423,-92.8 423,-40.8 16,-40.8"/>
</g>
<!-- ComponentStoreService -->
<g id="node1" class="node">
<title>ComponentStoreService</title>
<ellipse fill="#fdb462" stroke="black" cx="310" cy="-66.8" rx="105.38" ry="18"/>
<text text-anchor="middle" x="310" y="-62.6" font-family="Times,serif" font-size="14.00">ComponentStoreService</text>
</g>
<!-- StimFeatureNavigationDomainModule -->
<g id="node3" class="node">
<title>StimFeatureNavigationDomainModule</title>
<polygon fill="#8dd3c7" stroke="black" points="336.79,-149.8 333.79,-153.8 312.79,-153.8 309.79,-149.8 101.21,-149.8 101.21,-113.8 336.79,-113.8 336.79,-149.8"/>
<text text-anchor="middle" x="219" y="-127.6" font-family="Times,serif" font-size="14.00">StimFeatureNavigationDomainModule</text>
</g>
<!-- ComponentStoreService&#45;&gt;StimFeatureNavigationDomainModule -->
<g id="edge1" class="edge">
<title>ComponentStoreService&#45;&gt;StimFeatureNavigationDomainModule</title>
<path fill="none" stroke="black" d="M270.6,-83.54C270.6,-83.54 270.6,-103.52 270.6,-103.52"/>
<polygon fill="black" stroke="black" points="267.1,-103.52 270.6,-113.52 274.1,-103.52 267.1,-103.52"/>
</g>
<!-- NavigationFacade -->
<g id="node2" class="node">
<title>NavigationFacade</title>
<ellipse fill="#fdb462" stroke="black" cx="105" cy="-66.8" rx="81.08" ry="18"/>
<text text-anchor="middle" x="105" y="-62.6" font-family="Times,serif" font-size="14.00">NavigationFacade</text>
</g>
<!-- NavigationFacade&#45;&gt;StimFeatureNavigationDomainModule -->
<g id="edge2" class="edge">
<title>NavigationFacade&#45;&gt;StimFeatureNavigationDomainModule</title>
<path fill="none" stroke="black" d="M143.82,-82.87C143.82,-82.87 143.82,-103.62 143.82,-103.62"/>
<polygon fill="black" stroke="black" points="140.32,-103.62 143.82,-113.62 147.32,-103.62 140.32,-103.62"/>
</g>
</g>
</svg>
