<?xml version="1.0" encoding="UTF-8" standalone="no"?>
<!DOCTYPE svg PUBLIC "-//W3C//DTD SVG 1.1//EN"
 "http://www.w3.org/Graphics/SVG/1.1/DTD/svg11.dtd">
<!-- Generated by graphviz version 2.47.3 (20210619.1520)
 -->
<!-- Title: dependencies Pages: 1 -->
<svg width="1452pt" height="247pt"
 viewBox="0.00 0.00 1452.00 246.80" xmlns="http://www.w3.org/2000/svg" xmlns:xlink="http://www.w3.org/1999/xlink">
<g id="graph0" class="graph" transform="scale(1 1) rotate(0) translate(4 242.8)">
<title>dependencies</title>
<polygon fill="white" stroke="transparent" points="-4,4 -4,-242.8 1448,-242.8 1448,4 -4,4"/>
<text text-anchor="middle" x="722" y="-8.2" font-family="sans-serif" font-size="14.00">dependencies</text>
<g id="clust1" class="cluster">
<title>cluster_StimFeatureSettingsFeatureParamConfigModule</title>
<polygon fill="none" stroke="black" stroke-dasharray="1,5" points="8,-32.8 8,-230.8 1436,-230.8 1436,-32.8 8,-32.8"/>
</g>
<g id="clust5" class="cluster">
<title>cluster_StimFeatureSettingsFeatureParamConfigModule_exports</title>
<polygon fill="none" stroke="black" points="598,-170.8 598,-222.8 774,-222.8 774,-170.8 598,-170.8"/>
</g>
<g id="clust2" class="cluster">
<title>cluster_StimFeatureSettingsFeatureParamConfigModule_declarations</title>
<polygon fill="none" stroke="black" points="1256,-40.8 1256,-92.8 1428,-92.8 1428,-40.8 1256,-40.8"/>
</g>
<g id="clust4" class="cluster">
<title>cluster_StimFeatureSettingsFeatureParamConfigModule_imports</title>
<polygon fill="none" stroke="black" points="16,-40.8 16,-92.8 1248,-92.8 1248,-40.8 16,-40.8"/>
</g>
<!-- ParamConfigComponent -->
<g id="node1" class="node">
<title>ParamConfigComponent</title>
<polygon fill="#ffffb3" stroke="black" points="1419.98,-84.8 1264.02,-84.8 1264.02,-48.8 1419.98,-48.8 1419.98,-84.8"/>
<text text-anchor="middle" x="1342" y="-62.6" font-family="Times,serif" font-size="14.00">ParamConfigComponent</text>
</g>
<!-- StimFeatureSettingsFeatureParamConfigModule -->
<g id="node2" class="node">
<title>StimFeatureSettingsFeatureParamConfigModule</title>
<polygon fill="#8dd3c7" stroke="black" points="830.72,-149.8 827.72,-153.8 806.72,-153.8 803.72,-149.8 541.28,-149.8 541.28,-113.8 830.72,-113.8 830.72,-149.8"/>
<text text-anchor="middle" x="686" y="-127.6" font-family="Times,serif" font-size="14.00">StimFeatureSettingsFeatureParamConfigModule</text>
</g>
<!-- ParamConfigComponent&#45;&gt;StimFeatureSettingsFeatureParamConfigModule -->
<g id="edge1" class="edge">
<title>ParamConfigComponent&#45;&gt;StimFeatureSettingsFeatureParamConfigModule</title>
<path fill="none" stroke="black" d="M1342,-85.08C1342,-106.12 1342,-137.8 1342,-137.8 1342,-137.8 840.77,-137.8 840.77,-137.8"/>
<polygon fill="black" stroke="black" points="840.77,-134.3 830.77,-137.8 840.77,-141.3 840.77,-134.3"/>
</g>
<!-- ParamConfigComponent  -->
<g id="node7" class="node">
<title>ParamConfigComponent </title>
<polygon fill="#fb8072" stroke="black" points="765.98,-214.8 606.02,-214.8 606.02,-178.8 765.98,-178.8 765.98,-214.8"/>
<text text-anchor="middle" x="686" y="-192.6" font-family="Times,serif" font-size="14.00">ParamConfigComponent </text>
</g>
<!-- StimFeatureSettingsFeatureParamConfigModule&#45;&gt;ParamConfigComponent  -->
<g id="edge6" class="edge">
<title>StimFeatureSettingsFeatureParamConfigModule&#45;&gt;ParamConfigComponent </title>
<path fill="none" stroke="black" stroke-dasharray="5,2" d="M686,-149.91C686,-149.91 686,-168.79 686,-168.79"/>
<polygon fill="black" stroke="black" points="682.5,-168.79 686,-178.79 689.5,-168.79 682.5,-168.79"/>
</g>
<!-- StimFeatureSettingsFeatureParamConfigApplicationModule -->
<g id="node3" class="node">
<title>StimFeatureSettingsFeatureParamConfigApplicationModule</title>
<polygon fill="#8dd3c7" stroke="black" points="1239.82,-84.8 1236.82,-88.8 1215.82,-88.8 1212.82,-84.8 884.18,-84.8 884.18,-48.8 1239.82,-48.8 1239.82,-84.8"/>
<text text-anchor="middle" x="1062" y="-62.6" font-family="Times,serif" font-size="14.00">StimFeatureSettingsFeatureParamConfigApplicationModule</text>
</g>
<!-- StimFeatureSettingsFeatureParamConfigApplicationModule&#45;&gt;StimFeatureSettingsFeatureParamConfigModule -->
<g id="edge2" class="edge">
<title>StimFeatureSettingsFeatureParamConfigApplicationModule&#45;&gt;StimFeatureSettingsFeatureParamConfigModule</title>
<path fill="none" stroke="black" d="M1062,-84.82C1062,-102.17 1062,-125.8 1062,-125.8 1062,-125.8 840.83,-125.8 840.83,-125.8"/>
<polygon fill="black" stroke="black" points="840.83,-122.3 830.83,-125.8 840.83,-129.3 840.83,-122.3"/>
</g>
<!-- StimFeatureSettingsFeatureParamConfigExperimentsModule -->
<g id="node4" class="node">
<title>StimFeatureSettingsFeatureParamConfigExperimentsModule</title>
<polygon fill="#8dd3c7" stroke="black" points="866.48,-84.8 863.48,-88.8 842.48,-88.8 839.48,-84.8 505.52,-84.8 505.52,-48.8 866.48,-48.8 866.48,-84.8"/>
<text text-anchor="middle" x="686" y="-62.6" font-family="Times,serif" font-size="14.00">StimFeatureSettingsFeatureParamConfigExperimentsModule</text>
</g>
<!-- StimFeatureSettingsFeatureParamConfigExperimentsModule&#45;&gt;StimFeatureSettingsFeatureParamConfigModule -->
<g id="edge3" class="edge">
<title>StimFeatureSettingsFeatureParamConfigExperimentsModule&#45;&gt;StimFeatureSettingsFeatureParamConfigModule</title>
<path fill="none" stroke="black" d="M686,-84.91C686,-84.91 686,-103.79 686,-103.79"/>
<polygon fill="black" stroke="black" points="682.5,-103.79 686,-113.79 689.5,-103.79 682.5,-103.79"/>
</g>
<!-- StimFeatureSettingsFeatureParamConfigServerModule -->
<g id="node5" class="node">
<title>StimFeatureSettingsFeatureParamConfigServerModule</title>
<polygon fill="#8dd3c7" stroke="black" points="488.26,-84.8 485.26,-88.8 464.26,-88.8 461.26,-84.8 161.74,-84.8 161.74,-48.8 488.26,-48.8 488.26,-84.8"/>
<text text-anchor="middle" x="325" y="-62.6" font-family="Times,serif" font-size="14.00">StimFeatureSettingsFeatureParamConfigServerModule</text>
</g>
<!-- StimFeatureSettingsFeatureParamConfigServerModule&#45;&gt;StimFeatureSettingsFeatureParamConfigModule -->
<g id="edge4" class="edge">
<title>StimFeatureSettingsFeatureParamConfigServerModule&#45;&gt;StimFeatureSettingsFeatureParamConfigModule</title>
<path fill="none" stroke="black" d="M325,-84.82C325,-102.17 325,-125.8 325,-125.8 325,-125.8 531.25,-125.8 531.25,-125.8"/>
<polygon fill="black" stroke="black" points="531.25,-129.3 541.25,-125.8 531.25,-122.3 531.25,-129.3"/>
</g>
<!-- StimLibUiModule -->
<g id="node6" class="node">
<title>StimLibUiModule</title>
<polygon fill="#8dd3c7" stroke="black" points="143.95,-84.8 140.95,-88.8 119.95,-88.8 116.95,-84.8 24.05,-84.8 24.05,-48.8 143.95,-48.8 143.95,-84.8"/>
<text text-anchor="middle" x="84" y="-62.6" font-family="Times,serif" font-size="14.00">StimLibUiModule</text>
</g>
<!-- StimLibUiModule&#45;&gt;StimFeatureSettingsFeatureParamConfigModule -->
<g id="edge5" class="edge">
<title>StimLibUiModule&#45;&gt;StimFeatureSettingsFeatureParamConfigModule</title>
<path fill="none" stroke="black" d="M84,-85.08C84,-106.12 84,-137.8 84,-137.8 84,-137.8 531.04,-137.8 531.04,-137.8"/>
<polygon fill="black" stroke="black" points="531.04,-141.3 541.04,-137.8 531.04,-134.3 531.04,-141.3"/>
</g>
</g>
</svg>
