<?xml version="1.0" encoding="UTF-8" standalone="no"?>
<!DOCTYPE svg PUBLIC "-//W3C//DTD SVG 1.1//EN"
 "http://www.w3.org/Graphics/SVG/1.1/DTD/svg11.dtd">
<!-- Generated by graphviz version 2.47.3 (20210619.1520)
 -->
<!-- Title: dependencies Pages: 1 -->
<svg width="2102pt" height="174pt"
 viewBox="0.00 0.00 2102.00 173.80" xmlns="http://www.w3.org/2000/svg" xmlns:xlink="http://www.w3.org/1999/xlink">
<g id="graph0" class="graph" transform="scale(1 1) rotate(0) translate(4 169.8)">
<title>dependencies</title>
<polygon fill="white" stroke="transparent" points="-4,4 -4,-169.8 2098,-169.8 2098,4 -4,4"/>
<text text-anchor="middle" x="1047" y="-8.2" font-family="sans-serif" font-size="14.00">dependencies</text>
<g id="clust1" class="cluster">
<title>cluster_StimFeatureExperimentResultsFeatureModule</title>
<polygon fill="none" stroke="black" stroke-dasharray="1,5" points="8,-32.8 8,-157.8 2086,-157.8 2086,-32.8 8,-32.8"/>
</g>
<g id="clust2" class="cluster">
<title>cluster_StimFeatureExperimentResultsFeatureModule_declarations</title>
<polygon fill="none" stroke="black" points="859,-40.8 859,-92.8 2078,-92.8 2078,-40.8 859,-40.8"/>
</g>
<g id="clust8" class="cluster">
<title>cluster_StimFeatureExperimentResultsFeatureModule_imports</title>
<polygon fill="none" stroke="black" points="16,-40.8 16,-92.8 851,-92.8 851,-40.8 16,-40.8"/>
</g>
<!-- ExperimentResultComponent -->
<g id="node1" class="node">
<title>ExperimentResultComponent</title>
<polygon fill="#ffffb3" stroke="black" points="2070.42,-84.8 1887.58,-84.8 1887.58,-48.8 2070.42,-48.8 2070.42,-84.8"/>
<text text-anchor="middle" x="1979" y="-62.6" font-family="Times,serif" font-size="14.00">ExperimentResultComponent</text>
</g>
<!-- StimFeatureExperimentResultsFeatureModule -->
<g id="node6" class="node">
<title>StimFeatureExperimentResultsFeatureModule</title>
<polygon fill="#8dd3c7" stroke="black" points="1123.5,-149.8 1120.5,-153.8 1099.5,-153.8 1096.5,-149.8 846.5,-149.8 846.5,-113.8 1123.5,-113.8 1123.5,-149.8"/>
<text text-anchor="middle" x="985" y="-127.6" font-family="Times,serif" font-size="14.00">StimFeatureExperimentResultsFeatureModule</text>
</g>
<!-- ExperimentResultComponent&#45;&gt;StimFeatureExperimentResultsFeatureModule -->
<g id="edge1" class="edge">
<title>ExperimentResultComponent&#45;&gt;StimFeatureExperimentResultsFeatureModule</title>
<path fill="none" stroke="black" d="M1979,-85.09C1979,-107.01 1979,-140.8 1979,-140.8 1979,-140.8 1133.47,-140.8 1133.47,-140.8"/>
<polygon fill="black" stroke="black" points="1133.47,-137.3 1123.47,-140.8 1133.47,-144.3 1133.47,-137.3"/>
</g>
<!-- ExperimentResultsComponent -->
<g id="node2" class="node">
<title>ExperimentResultsComponent</title>
<polygon fill="#ffffb3" stroke="black" points="1869.87,-84.8 1682.13,-84.8 1682.13,-48.8 1869.87,-48.8 1869.87,-84.8"/>
<text text-anchor="middle" x="1776" y="-62.6" font-family="Times,serif" font-size="14.00">ExperimentResultsComponent</text>
</g>
<!-- ExperimentResultsComponent&#45;&gt;StimFeatureExperimentResultsFeatureModule -->
<g id="edge2" class="edge">
<title>ExperimentResultsComponent&#45;&gt;StimFeatureExperimentResultsFeatureModule</title>
<path fill="none" stroke="black" d="M1776,-84.91C1776,-104.14 1776,-131.8 1776,-131.8 1776,-131.8 1133.69,-131.8 1133.69,-131.8"/>
<polygon fill="black" stroke="black" points="1133.69,-128.3 1123.69,-131.8 1133.69,-135.3 1133.69,-128.3"/>
</g>
<!-- ExperimentResultsFilterDialogComponent -->
<g id="node3" class="node">
<title>ExperimentResultsFilterDialogComponent</title>
<polygon fill="#ffffb3" stroke="black" points="1664.3,-84.8 1407.7,-84.8 1407.7,-48.8 1664.3,-48.8 1664.3,-84.8"/>
<text text-anchor="middle" x="1536" y="-62.6" font-family="Times,serif" font-size="14.00">ExperimentResultsFilterDialogComponent</text>
</g>
<!-- ExperimentResultsFilterDialogComponent&#45;&gt;StimFeatureExperimentResultsFeatureModule -->
<g id="edge3" class="edge">
<title>ExperimentResultsFilterDialogComponent&#45;&gt;StimFeatureExperimentResultsFeatureModule</title>
<path fill="none" stroke="black" d="M1536,-84.83C1536,-101.2 1536,-122.8 1536,-122.8 1536,-122.8 1133.33,-122.8 1133.33,-122.8"/>
<polygon fill="black" stroke="black" points="1133.33,-119.3 1123.33,-122.8 1133.33,-126.3 1133.33,-119.3"/>
</g>
<!-- ExperimentResultsGhostItemListComponent -->
<g id="node4" class="node">
<title>ExperimentResultsGhostItemListComponent</title>
<polygon fill="#ffffb3" stroke="black" points="1389.24,-84.8 1120.76,-84.8 1120.76,-48.8 1389.24,-48.8 1389.24,-84.8"/>
<text text-anchor="middle" x="1255" y="-62.6" font-family="Times,serif" font-size="14.00">ExperimentResultsGhostItemListComponent</text>
</g>
<!-- ExperimentResultsGhostItemListComponent&#45;&gt;StimFeatureExperimentResultsFeatureModule -->
<g id="edge4" class="edge">
<title>ExperimentResultsGhostItemListComponent&#45;&gt;StimFeatureExperimentResultsFeatureModule</title>
<path fill="none" stroke="black" d="M1120.61,-66.8C1114.97,-66.8 1111.64,-66.8 1111.64,-66.8 1111.64,-66.8 1111.64,-103.69 1111.64,-103.69"/>
<polygon fill="black" stroke="black" points="1108.14,-103.69 1111.64,-113.69 1115.14,-103.69 1108.14,-103.69"/>
</g>
<!-- ExperimentResultsItemListComponent -->
<g id="node5" class="node">
<title>ExperimentResultsItemListComponent</title>
<polygon fill="#ffffb3" stroke="black" points="1102.8,-84.8 867.2,-84.8 867.2,-48.8 1102.8,-48.8 1102.8,-84.8"/>
<text text-anchor="middle" x="985" y="-62.6" font-family="Times,serif" font-size="14.00">ExperimentResultsItemListComponent</text>
</g>
<!-- ExperimentResultsItemListComponent&#45;&gt;StimFeatureExperimentResultsFeatureModule -->
<g id="edge5" class="edge">
<title>ExperimentResultsItemListComponent&#45;&gt;StimFeatureExperimentResultsFeatureModule</title>
<path fill="none" stroke="black" d="M985,-84.91C985,-84.91 985,-103.79 985,-103.79"/>
<polygon fill="black" stroke="black" points="981.5,-103.79 985,-113.79 988.5,-103.79 981.5,-103.79"/>
</g>
<!-- ExperimentResultsRoutingModule -->
<g id="node7" class="node">
<title>ExperimentResultsRoutingModule</title>
<polygon fill="#8dd3c7" stroke="black" points="842.7,-84.8 839.7,-88.8 818.7,-88.8 815.7,-84.8 631.3,-84.8 631.3,-48.8 842.7,-48.8 842.7,-84.8"/>
<text text-anchor="middle" x="737" y="-62.6" font-family="Times,serif" font-size="14.00">ExperimentResultsRoutingModule</text>
</g>
<!-- ExperimentResultsRoutingModule&#45;&gt;StimFeatureExperimentResultsFeatureModule -->
<g id="edge6" class="edge">
<title>ExperimentResultsRoutingModule&#45;&gt;StimFeatureExperimentResultsFeatureModule</title>
<path fill="none" stroke="black" d="M842.81,-66.8C851.51,-66.8 857.05,-66.8 857.05,-66.8 857.05,-66.8 857.05,-103.69 857.05,-103.69"/>
<polygon fill="black" stroke="black" points="853.55,-103.69 857.05,-113.69 860.55,-103.69 853.55,-103.69"/>
</g>
<!-- StimFeatureExperimentResultsDomainModule -->
<g id="node8" class="node">
<title>StimFeatureExperimentResultsDomainModule</title>
<polygon fill="#8dd3c7" stroke="black" points="613.62,-84.8 610.62,-88.8 589.62,-88.8 586.62,-84.8 334.38,-84.8 334.38,-48.8 613.62,-48.8 613.62,-84.8"/>
<text text-anchor="middle" x="474" y="-62.6" font-family="Times,serif" font-size="14.00">StimFeatureExperimentResultsDomainModule</text>
</g>
<!-- StimFeatureExperimentResultsDomainModule&#45;&gt;StimFeatureExperimentResultsFeatureModule -->
<g id="edge7" class="edge">
<title>StimFeatureExperimentResultsDomainModule&#45;&gt;StimFeatureExperimentResultsFeatureModule</title>
<path fill="none" stroke="black" d="M474,-84.83C474,-101.2 474,-122.8 474,-122.8 474,-122.8 836.72,-122.8 836.72,-122.8"/>
<polygon fill="black" stroke="black" points="836.72,-126.3 846.72,-122.8 836.72,-119.3 836.72,-126.3"/>
</g>
<!-- StimLibListUtilsModule -->
<g id="node9" class="node">
<title>StimLibListUtilsModule</title>
<polygon fill="#8dd3c7" stroke="black" points="316.45,-84.8 313.45,-88.8 292.45,-88.8 289.45,-84.8 161.55,-84.8 161.55,-48.8 316.45,-48.8 316.45,-84.8"/>
<text text-anchor="middle" x="239" y="-62.6" font-family="Times,serif" font-size="14.00">StimLibListUtilsModule</text>
</g>
<!-- StimLibListUtilsModule&#45;&gt;StimFeatureExperimentResultsFeatureModule -->
<g id="edge8" class="edge">
<title>StimLibListUtilsModule&#45;&gt;StimFeatureExperimentResultsFeatureModule</title>
<path fill="none" stroke="black" d="M239,-84.91C239,-104.14 239,-131.8 239,-131.8 239,-131.8 836.43,-131.8 836.43,-131.8"/>
<polygon fill="black" stroke="black" points="836.43,-135.3 846.43,-131.8 836.43,-128.3 836.43,-135.3"/>
</g>
<!-- StimLibUiModule -->
<g id="node10" class="node">
<title>StimLibUiModule</title>
<polygon fill="#8dd3c7" stroke="black" points="143.95,-84.8 140.95,-88.8 119.95,-88.8 116.95,-84.8 24.05,-84.8 24.05,-48.8 143.95,-48.8 143.95,-84.8"/>
<text text-anchor="middle" x="84" y="-62.6" font-family="Times,serif" font-size="14.00">StimLibUiModule</text>
</g>
<!-- StimLibUiModule&#45;&gt;StimFeatureExperimentResultsFeatureModule -->
<g id="edge9" class="edge">
<title>StimLibUiModule&#45;&gt;StimFeatureExperimentResultsFeatureModule</title>
<path fill="none" stroke="black" d="M84,-85.09C84,-107.01 84,-140.8 84,-140.8 84,-140.8 836.69,-140.8 836.69,-140.8"/>
<polygon fill="black" stroke="black" points="836.69,-144.3 846.69,-140.8 836.69,-137.3 836.69,-144.3"/>
</g>
</g>
</svg>
