<?xml version="1.0" encoding="UTF-8" standalone="no"?>
<!DOCTYPE svg PUBLIC "-//W3C//DTD SVG 1.1//EN"
 "http://www.w3.org/Graphics/SVG/1.1/DTD/svg11.dtd">
<!-- Generated by graphviz version 2.47.3 (20210619.1520)
 -->
<!-- Title: dependencies Pages: 1 -->
<svg width="2102pt" height="174pt"
 viewBox="0.00 0.00 2102.00 173.80" xmlns="http://www.w3.org/2000/svg" xmlns:xlink="http://www.w3.org/1999/xlink">
<g id="graph0" class="graph" transform="scale(1 1) rotate(0) translate(4 169.8)">
<title>dependencies</title>
<polygon fill="white" stroke="transparent" points="-4,4 -4,-169.8 2098,-169.8 2098,4 -4,4"/>
<text text-anchor="middle" x="1047" y="-8.2" font-family="sans-serif" font-size="14.00">dependencies</text>
<g id="clust1" class="cluster">
<title>cluster_StimFeatureExperimentResultsFeatureModule</title>
<polygon fill="none" stroke="black" stroke-dasharray="1,5" points="8,-32.8 8,-157.8 2086,-157.8 2086,-32.8 8,-32.8"/>
</g>
<g id="clust8" class="cluster">
<title>cluster_StimFeatureExperimentResultsFeatureModule_imports</title>
<polygon fill="none" stroke="black" points="1243,-40.8 1243,-92.8 2078,-92.8 2078,-40.8 1243,-40.8"/>
</g>
<g id="clust2" class="cluster">
<title>cluster_StimFeatureExperimentResultsFeatureModule_declarations</title>
<polygon fill="none" stroke="black" points="16,-40.8 16,-92.8 1235,-92.8 1235,-40.8 16,-40.8"/>
</g>
<!-- ExperimentResultComponent -->
<g id="node1" class="node">
<title>ExperimentResultComponent</title>
<polygon fill="#ffffb3" stroke="black" points="1227.42,-84.8 1044.58,-84.8 1044.58,-48.8 1227.42,-48.8 1227.42,-84.8"/>
<text text-anchor="middle" x="1136" y="-62.6" font-family="Times,serif" font-size="14.00">ExperimentResultComponent</text>
</g>
<!-- StimFeatureExperimentResultsFeatureModule -->
<g id="node6" class="node">
<title>StimFeatureExperimentResultsFeatureModule</title>
<polygon fill="#8dd3c7" stroke="black" points="1274.5,-149.8 1271.5,-153.8 1250.5,-153.8 1247.5,-149.8 997.5,-149.8 997.5,-113.8 1274.5,-113.8 1274.5,-149.8"/>
<text text-anchor="middle" x="1136" y="-127.6" font-family="Times,serif" font-size="14.00">StimFeatureExperimentResultsFeatureModule</text>
</g>
<!-- ExperimentResultComponent&#45;&gt;StimFeatureExperimentResultsFeatureModule -->
<g id="edge1" class="edge">
<title>ExperimentResultComponent&#45;&gt;StimFeatureExperimentResultsFeatureModule</title>
<path fill="none" stroke="black" d="M1136,-84.91C1136,-84.91 1136,-103.79 1136,-103.79"/>
<polygon fill="black" stroke="black" points="1132.5,-103.79 1136,-113.79 1139.5,-103.79 1132.5,-103.79"/>
</g>
<!-- ExperimentResultsComponent -->
<g id="node2" class="node">
<title>ExperimentResultsComponent</title>
<polygon fill="#ffffb3" stroke="black" points="1026.87,-84.8 839.13,-84.8 839.13,-48.8 1026.87,-48.8 1026.87,-84.8"/>
<text text-anchor="middle" x="933" y="-62.6" font-family="Times,serif" font-size="14.00">ExperimentResultsComponent</text>
</g>
<!-- ExperimentResultsComponent&#45;&gt;StimFeatureExperimentResultsFeatureModule -->
<g id="edge2" class="edge">
<title>ExperimentResultsComponent&#45;&gt;StimFeatureExperimentResultsFeatureModule</title>
<path fill="none" stroke="black" d="M1012.34,-84.91C1012.34,-84.91 1012.34,-103.79 1012.34,-103.79"/>
<polygon fill="black" stroke="black" points="1008.84,-103.79 1012.34,-113.79 1015.84,-103.79 1008.84,-103.79"/>
</g>
<!-- ExperimentResultsFilterDialogComponent -->
<g id="node3" class="node">
<title>ExperimentResultsFilterDialogComponent</title>
<polygon fill="#ffffb3" stroke="black" points="821.3,-84.8 564.7,-84.8 564.7,-48.8 821.3,-48.8 821.3,-84.8"/>
<text text-anchor="middle" x="693" y="-62.6" font-family="Times,serif" font-size="14.00">ExperimentResultsFilterDialogComponent</text>
</g>
<!-- ExperimentResultsFilterDialogComponent&#45;&gt;StimFeatureExperimentResultsFeatureModule -->
<g id="edge3" class="edge">
<title>ExperimentResultsFilterDialogComponent&#45;&gt;StimFeatureExperimentResultsFeatureModule</title>
<path fill="none" stroke="black" d="M693,-84.83C693,-101.2 693,-122.8 693,-122.8 693,-122.8 987.65,-122.8 987.65,-122.8"/>
<polygon fill="black" stroke="black" points="987.65,-126.3 997.65,-122.8 987.65,-119.3 987.65,-126.3"/>
</g>
<!-- ExperimentResultsGhostItemListComponent -->
<g id="node4" class="node">
<title>ExperimentResultsGhostItemListComponent</title>
<polygon fill="#ffffb3" stroke="black" points="546.24,-84.8 277.76,-84.8 277.76,-48.8 546.24,-48.8 546.24,-84.8"/>
<text text-anchor="middle" x="412" y="-62.6" font-family="Times,serif" font-size="14.00">ExperimentResultsGhostItemListComponent</text>
</g>
<!-- ExperimentResultsGhostItemListComponent&#45;&gt;StimFeatureExperimentResultsFeatureModule -->
<g id="edge4" class="edge">
<title>ExperimentResultsGhostItemListComponent&#45;&gt;StimFeatureExperimentResultsFeatureModule</title>
<path fill="none" stroke="black" d="M412,-84.91C412,-104.14 412,-131.8 412,-131.8 412,-131.8 987.69,-131.8 987.69,-131.8"/>
<polygon fill="black" stroke="black" points="987.69,-135.3 997.69,-131.8 987.69,-128.3 987.69,-135.3"/>
</g>
<!-- ExperimentResultsItemListComponent -->
<g id="node5" class="node">
<title>ExperimentResultsItemListComponent</title>
<polygon fill="#ffffb3" stroke="black" points="259.8,-84.8 24.2,-84.8 24.2,-48.8 259.8,-48.8 259.8,-84.8"/>
<text text-anchor="middle" x="142" y="-62.6" font-family="Times,serif" font-size="14.00">ExperimentResultsItemListComponent</text>
</g>
<!-- ExperimentResultsItemListComponent&#45;&gt;StimFeatureExperimentResultsFeatureModule -->
<g id="edge5" class="edge">
<title>ExperimentResultsItemListComponent&#45;&gt;StimFeatureExperimentResultsFeatureModule</title>
<path fill="none" stroke="black" d="M142,-85.09C142,-107.01 142,-140.8 142,-140.8 142,-140.8 987.53,-140.8 987.53,-140.8"/>
<polygon fill="black" stroke="black" points="987.53,-144.3 997.53,-140.8 987.53,-137.3 987.53,-144.3"/>
</g>
<!-- ExperimentResultsRoutingModule -->
<g id="node7" class="node">
<title>ExperimentResultsRoutingModule</title>
<polygon fill="#8dd3c7" stroke="black" points="2069.7,-84.8 2066.7,-88.8 2045.7,-88.8 2042.7,-84.8 1858.3,-84.8 1858.3,-48.8 2069.7,-48.8 2069.7,-84.8"/>
<text text-anchor="middle" x="1964" y="-62.6" font-family="Times,serif" font-size="14.00">ExperimentResultsRoutingModule</text>
</g>
<!-- ExperimentResultsRoutingModule&#45;&gt;StimFeatureExperimentResultsFeatureModule -->
<g id="edge6" class="edge">
<title>ExperimentResultsRoutingModule&#45;&gt;StimFeatureExperimentResultsFeatureModule</title>
<path fill="none" stroke="black" d="M1964,-85.09C1964,-107.01 1964,-140.8 1964,-140.8 1964,-140.8 1284.59,-140.8 1284.59,-140.8"/>
<polygon fill="black" stroke="black" points="1284.59,-137.3 1274.59,-140.8 1284.59,-144.3 1284.59,-137.3"/>
</g>
<!-- StimFeatureExperimentResultsDomainModule -->
<g id="node8" class="node">
<title>StimFeatureExperimentResultsDomainModule</title>
<polygon fill="#8dd3c7" stroke="black" points="1840.62,-84.8 1837.62,-88.8 1816.62,-88.8 1813.62,-84.8 1561.38,-84.8 1561.38,-48.8 1840.62,-48.8 1840.62,-84.8"/>
<text text-anchor="middle" x="1701" y="-62.6" font-family="Times,serif" font-size="14.00">StimFeatureExperimentResultsDomainModule</text>
</g>
<!-- StimFeatureExperimentResultsDomainModule&#45;&gt;StimFeatureExperimentResultsFeatureModule -->
<g id="edge7" class="edge">
<title>StimFeatureExperimentResultsDomainModule&#45;&gt;StimFeatureExperimentResultsFeatureModule</title>
<path fill="none" stroke="black" d="M1701,-84.91C1701,-104.14 1701,-131.8 1701,-131.8 1701,-131.8 1284.58,-131.8 1284.58,-131.8"/>
<polygon fill="black" stroke="black" points="1284.58,-128.3 1274.58,-131.8 1284.58,-135.3 1284.58,-128.3"/>
</g>
<!-- StimLibListUtilsModule -->
<g id="node9" class="node">
<title>StimLibListUtilsModule</title>
<polygon fill="#8dd3c7" stroke="black" points="1543.45,-84.8 1540.45,-88.8 1519.45,-88.8 1516.45,-84.8 1388.55,-84.8 1388.55,-48.8 1543.45,-48.8 1543.45,-84.8"/>
<text text-anchor="middle" x="1466" y="-62.6" font-family="Times,serif" font-size="14.00">StimLibListUtilsModule</text>
</g>
<!-- StimLibListUtilsModule&#45;&gt;StimFeatureExperimentResultsFeatureModule -->
<g id="edge8" class="edge">
<title>StimLibListUtilsModule&#45;&gt;StimFeatureExperimentResultsFeatureModule</title>
<path fill="none" stroke="black" d="M1466,-84.83C1466,-101.2 1466,-122.8 1466,-122.8 1466,-122.8 1284.52,-122.8 1284.52,-122.8"/>
<polygon fill="black" stroke="black" points="1284.52,-119.3 1274.52,-122.8 1284.52,-126.3 1284.52,-119.3"/>
</g>
<!-- StimLibUiModule -->
<g id="node10" class="node">
<title>StimLibUiModule</title>
<polygon fill="#8dd3c7" stroke="black" points="1370.95,-84.8 1367.95,-88.8 1346.95,-88.8 1343.95,-84.8 1251.05,-84.8 1251.05,-48.8 1370.95,-48.8 1370.95,-84.8"/>
<text text-anchor="middle" x="1311" y="-62.6" font-family="Times,serif" font-size="14.00">StimLibUiModule</text>
</g>
<!-- StimLibUiModule&#45;&gt;StimFeatureExperimentResultsFeatureModule -->
<g id="edge9" class="edge">
<title>StimLibUiModule&#45;&gt;StimFeatureExperimentResultsFeatureModule</title>
<path fill="none" stroke="black" d="M1262.76,-84.91C1262.76,-84.91 1262.76,-103.79 1262.76,-103.79"/>
<polygon fill="black" stroke="black" points="1259.26,-103.79 1262.76,-113.79 1266.26,-103.79 1259.26,-103.79"/>
</g>
</g>
</svg>
