<?xml version="1.0" encoding="UTF-8" standalone="no"?>
<!DOCTYPE svg PUBLIC "-//W3C//DTD SVG 1.1//EN"
 "http://www.w3.org/Graphics/SVG/1.1/DTD/svg11.dtd">
<!-- Generated by graphviz version 2.47.3 (20210619.1520)
 -->
<!-- Title: dependencies Pages: 1 -->
<svg width="422pt" height="247pt"
 viewBox="0.00 0.00 422.00 246.80" xmlns="http://www.w3.org/2000/svg" xmlns:xlink="http://www.w3.org/1999/xlink">
<g id="graph0" class="graph" transform="scale(1 1) rotate(0) translate(4 242.8)">
<title>dependencies</title>
<polygon fill="white" stroke="transparent" points="-4,4 -4,-242.8 418,-242.8 418,4 -4,4"/>
<text text-anchor="middle" x="207" y="-8.2" font-family="sans-serif" font-size="14.00">dependencies</text>
<g id="clust1" class="cluster">
<title>cluster_StimFeatureSettingsFeatureParamConfigApplicationModule</title>
<polygon fill="none" stroke="black" stroke-dasharray="1,5" points="8,-32.8 8,-230.8 406,-230.8 406,-32.8 8,-32.8"/>
</g>
<g id="clust2" class="cluster">
<title>cluster_StimFeatureSettingsFeatureParamConfigApplicationModule_declarations</title>
<polygon fill="none" stroke="black" points="160,-40.8 160,-92.8 398,-92.8 398,-40.8 160,-40.8"/>
</g>
<g id="clust4" class="cluster">
<title>cluster_StimFeatureSettingsFeatureParamConfigApplicationModule_imports</title>
<polygon fill="none" stroke="black" points="16,-40.8 16,-92.8 152,-92.8 152,-40.8 16,-40.8"/>
</g>
<g id="clust5" class="cluster">
<title>cluster_StimFeatureSettingsFeatureParamConfigApplicationModule_exports</title>
<polygon fill="none" stroke="black" points="86,-170.8 86,-222.8 328,-222.8 328,-170.8 86,-170.8"/>
</g>
<!-- ParamConfigApplicationComponent -->
<g id="node1" class="node">
<title>ParamConfigApplicationComponent</title>
<polygon fill="#ffffb3" stroke="black" points="390.08,-84.8 167.92,-84.8 167.92,-48.8 390.08,-48.8 390.08,-84.8"/>
<text text-anchor="middle" x="279" y="-62.6" font-family="Times,serif" font-size="14.00">ParamConfigApplicationComponent</text>
</g>
<!-- StimFeatureSettingsFeatureParamConfigApplicationModule -->
<g id="node2" class="node">
<title>StimFeatureSettingsFeatureParamConfigApplicationModule</title>
<polygon fill="#8dd3c7" stroke="black" points="384.82,-149.8 381.82,-153.8 360.82,-153.8 357.82,-149.8 29.18,-149.8 29.18,-113.8 384.82,-113.8 384.82,-149.8"/>
<text text-anchor="middle" x="207" y="-127.6" font-family="Times,serif" font-size="14.00">StimFeatureSettingsFeatureParamConfigApplicationModule</text>
</g>
<!-- ParamConfigApplicationComponent&#45;&gt;StimFeatureSettingsFeatureParamConfigApplicationModule -->
<g id="edge1" class="edge">
<title>ParamConfigApplicationComponent&#45;&gt;StimFeatureSettingsFeatureParamConfigApplicationModule</title>
<path fill="none" stroke="black" d="M276.44,-84.91C276.44,-84.91 276.44,-103.79 276.44,-103.79"/>
<polygon fill="black" stroke="black" points="272.94,-103.79 276.44,-113.79 279.94,-103.79 272.94,-103.79"/>
</g>
<!-- ParamConfigApplicationComponent  -->
<g id="node4" class="node">
<title>ParamConfigApplicationComponent </title>
<polygon fill="#fb8072" stroke="black" points="319.58,-214.8 94.42,-214.8 94.42,-178.8 319.58,-178.8 319.58,-214.8"/>
<text text-anchor="middle" x="207" y="-192.6" font-family="Times,serif" font-size="14.00">ParamConfigApplicationComponent </text>
</g>
<!-- StimFeatureSettingsFeatureParamConfigApplicationModule&#45;&gt;ParamConfigApplicationComponent  -->
<g id="edge3" class="edge">
<title>StimFeatureSettingsFeatureParamConfigApplicationModule&#45;&gt;ParamConfigApplicationComponent </title>
<path fill="none" stroke="black" stroke-dasharray="5,2" d="M207,-149.91C207,-149.91 207,-168.79 207,-168.79"/>
<polygon fill="black" stroke="black" points="203.5,-168.79 207,-178.79 210.5,-168.79 203.5,-168.79"/>
</g>
<!-- StimLibUiModule -->
<g id="node3" class="node">
<title>StimLibUiModule</title>
<polygon fill="#8dd3c7" stroke="black" points="143.95,-84.8 140.95,-88.8 119.95,-88.8 116.95,-84.8 24.05,-84.8 24.05,-48.8 143.95,-48.8 143.95,-84.8"/>
<text text-anchor="middle" x="84" y="-62.6" font-family="Times,serif" font-size="14.00">StimLibUiModule</text>
</g>
<!-- StimLibUiModule&#45;&gt;StimFeatureSettingsFeatureParamConfigApplicationModule -->
<g id="edge2" class="edge">
<title>StimLibUiModule&#45;&gt;StimFeatureSettingsFeatureParamConfigApplicationModule</title>
<path fill="none" stroke="black" d="M86.41,-84.91C86.41,-84.91 86.41,-103.79 86.41,-103.79"/>
<polygon fill="black" stroke="black" points="82.91,-103.79 86.41,-113.79 89.91,-103.79 82.91,-103.79"/>
</g>
</g>
</svg>
