<?xml version="1.0" encoding="UTF-8" standalone="no"?>
<!DOCTYPE svg PUBLIC "-//W3C//DTD SVG 1.1//EN"
 "http://www.w3.org/Graphics/SVG/1.1/DTD/svg11.dtd">
<!-- Generated by graphviz version 2.47.3 (20210619.1520)
 -->
<!-- Title: dependencies Pages: 1 -->
<svg width="610pt" height="247pt"
 viewBox="0.00 0.00 610.00 246.80" xmlns="http://www.w3.org/2000/svg" xmlns:xlink="http://www.w3.org/1999/xlink">
<g id="graph0" class="graph" transform="scale(1 1) rotate(0) translate(4 242.8)">
<title>dependencies</title>
<polygon fill="white" stroke="transparent" points="-4,4 -4,-242.8 606,-242.8 606,4 -4,4"/>
<text text-anchor="middle" x="301" y="-8.2" font-family="sans-serif" font-size="14.00">dependencies</text>
<g id="clust1" class="cluster">
<title>cluster_StimFeatureFileBrowserFeatureModule</title>
<polygon fill="none" stroke="black" stroke-dasharray="1,5" points="8,-32.8 8,-230.8 594,-230.8 594,-32.8 8,-32.8"/>
</g>
<g id="clust4" class="cluster">
<title>cluster_StimFeatureFileBrowserFeatureModule_imports</title>
<polygon fill="none" stroke="black" points="190,-40.8 190,-92.8 586,-92.8 586,-40.8 190,-40.8"/>
</g>
<g id="clust2" class="cluster">
<title>cluster_StimFeatureFileBrowserFeatureModule_declarations</title>
<polygon fill="none" stroke="black" points="16,-40.8 16,-92.8 182,-92.8 182,-40.8 16,-40.8"/>
</g>
<g id="clust5" class="cluster">
<title>cluster_StimFeatureFileBrowserFeatureModule_exports</title>
<polygon fill="none" stroke="black" points="173,-170.8 173,-222.8 343,-222.8 343,-170.8 173,-170.8"/>
</g>
<!-- FileBrowserComponent -->
<g id="node1" class="node">
<title>FileBrowserComponent</title>
<polygon fill="#ffffb3" stroke="black" points="174.04,-84.8 23.96,-84.8 23.96,-48.8 174.04,-48.8 174.04,-84.8"/>
<text text-anchor="middle" x="99" y="-62.6" font-family="Times,serif" font-size="14.00">FileBrowserComponent</text>
</g>
<!-- StimFeatureFileBrowserFeatureModule -->
<g id="node2" class="node">
<title>StimFeatureFileBrowserFeatureModule</title>
<polygon fill="#8dd3c7" stroke="black" points="377.66,-149.8 374.66,-153.8 353.66,-153.8 350.66,-149.8 138.34,-149.8 138.34,-113.8 377.66,-113.8 377.66,-149.8"/>
<text text-anchor="middle" x="258" y="-127.6" font-family="Times,serif" font-size="14.00">StimFeatureFileBrowserFeatureModule</text>
</g>
<!-- FileBrowserComponent&#45;&gt;StimFeatureFileBrowserFeatureModule -->
<g id="edge1" class="edge">
<title>FileBrowserComponent&#45;&gt;StimFeatureFileBrowserFeatureModule</title>
<path fill="none" stroke="black" d="M156.34,-84.91C156.34,-84.91 156.34,-103.79 156.34,-103.79"/>
<polygon fill="black" stroke="black" points="152.84,-103.79 156.34,-113.79 159.84,-103.79 152.84,-103.79"/>
</g>
<!-- FileBrowserComponent  -->
<g id="node5" class="node">
<title>FileBrowserComponent </title>
<polygon fill="#fb8072" stroke="black" points="335.03,-214.8 180.97,-214.8 180.97,-178.8 335.03,-178.8 335.03,-214.8"/>
<text text-anchor="middle" x="258" y="-192.6" font-family="Times,serif" font-size="14.00">FileBrowserComponent </text>
</g>
<!-- StimFeatureFileBrowserFeatureModule&#45;&gt;FileBrowserComponent  -->
<g id="edge4" class="edge">
<title>StimFeatureFileBrowserFeatureModule&#45;&gt;FileBrowserComponent </title>
<path fill="none" stroke="black" stroke-dasharray="5,2" d="M258,-149.91C258,-149.91 258,-168.79 258,-168.79"/>
<polygon fill="black" stroke="black" points="254.5,-168.79 258,-178.79 261.5,-168.79 254.5,-168.79"/>
</g>
<!-- StimFeatureFileBrowserDomainModule -->
<g id="node3" class="node">
<title>StimFeatureFileBrowserDomainModule</title>
<polygon fill="#8dd3c7" stroke="black" points="578.29,-84.8 575.29,-88.8 554.29,-88.8 551.29,-84.8 335.71,-84.8 335.71,-48.8 578.29,-48.8 578.29,-84.8"/>
<text text-anchor="middle" x="457" y="-62.6" font-family="Times,serif" font-size="14.00">StimFeatureFileBrowserDomainModule</text>
</g>
<!-- StimFeatureFileBrowserDomainModule&#45;&gt;StimFeatureFileBrowserFeatureModule -->
<g id="edge2" class="edge">
<title>StimFeatureFileBrowserDomainModule&#45;&gt;StimFeatureFileBrowserFeatureModule</title>
<path fill="none" stroke="black" d="M356.72,-84.91C356.72,-84.91 356.72,-103.79 356.72,-103.79"/>
<polygon fill="black" stroke="black" points="353.22,-103.79 356.72,-113.79 360.22,-103.79 353.22,-103.79"/>
</g>
<!-- StimLibUiModule -->
<g id="node4" class="node">
<title>StimLibUiModule</title>
<polygon fill="#8dd3c7" stroke="black" points="317.95,-84.8 314.95,-88.8 293.95,-88.8 290.95,-84.8 198.05,-84.8 198.05,-48.8 317.95,-48.8 317.95,-84.8"/>
<text text-anchor="middle" x="258" y="-62.6" font-family="Times,serif" font-size="14.00">StimLibUiModule</text>
</g>
<!-- StimLibUiModule&#45;&gt;StimFeatureFileBrowserFeatureModule -->
<g id="edge3" class="edge">
<title>StimLibUiModule&#45;&gt;StimFeatureFileBrowserFeatureModule</title>
<path fill="none" stroke="black" d="M258,-84.91C258,-84.91 258,-103.79 258,-103.79"/>
<polygon fill="black" stroke="black" points="254.5,-103.79 258,-113.79 261.5,-103.79 254.5,-103.79"/>
</g>
</g>
</svg>
