<?xml version="1.0" encoding="UTF-8" standalone="no"?>
<!DOCTYPE svg PUBLIC "-//W3C//DTD SVG 1.1//EN"
 "http://www.w3.org/Graphics/SVG/1.1/DTD/svg11.dtd">
<!-- Generated by graphviz version 2.47.3 (20210619.1520)
 -->
<!-- Title: dependencies Pages: 1 -->
<svg width="610pt" height="247pt"
 viewBox="0.00 0.00 610.00 246.80" xmlns="http://www.w3.org/2000/svg" xmlns:xlink="http://www.w3.org/1999/xlink">
<g id="graph0" class="graph" transform="scale(1 1) rotate(0) translate(4 242.8)">
<title>dependencies</title>
<polygon fill="white" stroke="transparent" points="-4,4 -4,-242.8 606,-242.8 606,4 -4,4"/>
<text text-anchor="middle" x="301" y="-8.2" font-family="sans-serif" font-size="14.00">dependencies</text>
<g id="clust1" class="cluster">
<title>cluster_StimFeatureFileBrowserFeatureModule</title>
<polygon fill="none" stroke="black" stroke-dasharray="1,5" points="8,-32.8 8,-230.8 594,-230.8 594,-32.8 8,-32.8"/>
</g>
<g id="clust5" class="cluster">
<title>cluster_StimFeatureFileBrowserFeatureModule_exports</title>
<polygon fill="none" stroke="black" points="198,-170.8 198,-222.8 368,-222.8 368,-170.8 198,-170.8"/>
</g>
<g id="clust2" class="cluster">
<title>cluster_StimFeatureFileBrowserFeatureModule_declarations</title>
<polygon fill="none" stroke="black" points="420,-40.8 420,-92.8 586,-92.8 586,-40.8 420,-40.8"/>
</g>
<g id="clust4" class="cluster">
<title>cluster_StimFeatureFileBrowserFeatureModule_imports</title>
<polygon fill="none" stroke="black" points="16,-40.8 16,-92.8 412,-92.8 412,-40.8 16,-40.8"/>
</g>
<!-- FileBrowserComponent -->
<g id="node1" class="node">
<title>FileBrowserComponent</title>
<polygon fill="#ffffb3" stroke="black" points="578.04,-84.8 427.96,-84.8 427.96,-48.8 578.04,-48.8 578.04,-84.8"/>
<text text-anchor="middle" x="503" y="-62.6" font-family="Times,serif" font-size="14.00">FileBrowserComponent</text>
</g>
<!-- StimFeatureFileBrowserFeatureModule -->
<g id="node2" class="node">
<title>StimFeatureFileBrowserFeatureModule</title>
<polygon fill="#8dd3c7" stroke="black" points="402.66,-149.8 399.66,-153.8 378.66,-153.8 375.66,-149.8 163.34,-149.8 163.34,-113.8 402.66,-113.8 402.66,-149.8"/>
<text text-anchor="middle" x="283" y="-127.6" font-family="Times,serif" font-size="14.00">StimFeatureFileBrowserFeatureModule</text>
</g>
<!-- FileBrowserComponent&#45;&gt;StimFeatureFileBrowserFeatureModule -->
<g id="edge1" class="edge">
<title>FileBrowserComponent&#45;&gt;StimFeatureFileBrowserFeatureModule</title>
<path fill="none" stroke="black" d="M503,-84.91C503,-104.14 503,-131.8 503,-131.8 503,-131.8 412.66,-131.8 412.66,-131.8"/>
<polygon fill="black" stroke="black" points="412.66,-128.3 402.66,-131.8 412.66,-135.3 412.66,-128.3"/>
</g>
<!-- FileBrowserComponent  -->
<g id="node5" class="node">
<title>FileBrowserComponent </title>
<polygon fill="#fb8072" stroke="black" points="360.03,-214.8 205.97,-214.8 205.97,-178.8 360.03,-178.8 360.03,-214.8"/>
<text text-anchor="middle" x="283" y="-192.6" font-family="Times,serif" font-size="14.00">FileBrowserComponent </text>
</g>
<!-- StimFeatureFileBrowserFeatureModule&#45;&gt;FileBrowserComponent  -->
<g id="edge4" class="edge">
<title>StimFeatureFileBrowserFeatureModule&#45;&gt;FileBrowserComponent </title>
<path fill="none" stroke="black" stroke-dasharray="5,2" d="M283,-149.91C283,-149.91 283,-168.79 283,-168.79"/>
<polygon fill="black" stroke="black" points="279.5,-168.79 283,-178.79 286.5,-168.79 279.5,-168.79"/>
</g>
<!-- StimFeatureFileBrowserDomainModule -->
<g id="node3" class="node">
<title>StimFeatureFileBrowserDomainModule</title>
<polygon fill="#8dd3c7" stroke="black" points="404.29,-84.8 401.29,-88.8 380.29,-88.8 377.29,-84.8 161.71,-84.8 161.71,-48.8 404.29,-48.8 404.29,-84.8"/>
<text text-anchor="middle" x="283" y="-62.6" font-family="Times,serif" font-size="14.00">StimFeatureFileBrowserDomainModule</text>
</g>
<!-- StimFeatureFileBrowserDomainModule&#45;&gt;StimFeatureFileBrowserFeatureModule -->
<g id="edge2" class="edge">
<title>StimFeatureFileBrowserDomainModule&#45;&gt;StimFeatureFileBrowserFeatureModule</title>
<path fill="none" stroke="black" d="M283,-84.91C283,-84.91 283,-103.79 283,-103.79"/>
<polygon fill="black" stroke="black" points="279.5,-103.79 283,-113.79 286.5,-103.79 279.5,-103.79"/>
</g>
<!-- StimLibUiModule -->
<g id="node4" class="node">
<title>StimLibUiModule</title>
<polygon fill="#8dd3c7" stroke="black" points="143.95,-84.8 140.95,-88.8 119.95,-88.8 116.95,-84.8 24.05,-84.8 24.05,-48.8 143.95,-48.8 143.95,-84.8"/>
<text text-anchor="middle" x="84" y="-62.6" font-family="Times,serif" font-size="14.00">StimLibUiModule</text>
</g>
<!-- StimLibUiModule&#45;&gt;StimFeatureFileBrowserFeatureModule -->
<g id="edge3" class="edge">
<title>StimLibUiModule&#45;&gt;StimFeatureFileBrowserFeatureModule</title>
<path fill="none" stroke="black" d="M84,-84.91C84,-104.14 84,-131.8 84,-131.8 84,-131.8 153.22,-131.8 153.22,-131.8"/>
<polygon fill="black" stroke="black" points="153.22,-135.3 163.22,-131.8 153.22,-128.3 153.22,-135.3"/>
</g>
</g>
</svg>
