<?xml version="1.0" encoding="UTF-8" standalone="no"?>
<!DOCTYPE svg PUBLIC "-//W3C//DTD SVG 1.1//EN"
 "http://www.w3.org/Graphics/SVG/1.1/DTD/svg11.dtd">
<!-- Generated by graphviz version 2.47.3 (20210619.1520)
 -->
<!-- Title: dependencies Pages: 1 -->
<svg width="2574pt" height="247pt"
 viewBox="0.00 0.00 2574.00 246.80" xmlns="http://www.w3.org/2000/svg" xmlns:xlink="http://www.w3.org/1999/xlink">
<g id="graph0" class="graph" transform="scale(1 1) rotate(0) translate(4 242.8)">
<title>dependencies</title>
<polygon fill="white" stroke="transparent" points="-4,4 -4,-242.8 2570,-242.8 2570,4 -4,4"/>
<text text-anchor="middle" x="1283" y="-8.2" font-family="sans-serif" font-size="14.00">dependencies</text>
<g id="clust1" class="cluster">
<title>cluster_AppModule</title>
<polygon fill="none" stroke="black" stroke-dasharray="1,5" points="8,-32.8 8,-230.8 2558,-230.8 2558,-32.8 8,-32.8"/>
</g>
<g id="clust5" class="cluster">
<title>cluster_AppModule_imports</title>
<polygon fill="none" stroke="black" points="1032,-40.8 1032,-92.8 2550,-92.8 2550,-40.8 1032,-40.8"/>
</g>
<g id="clust2" class="cluster">
<title>cluster_AppModule_declarations</title>
<polygon fill="none" stroke="black" points="719,-40.8 719,-92.8 1024,-92.8 1024,-40.8 719,-40.8"/>
</g>
<g id="clust8" class="cluster">
<title>cluster_AppModule_providers</title>
<polygon fill="none" stroke="black" points="16,-40.8 16,-92.8 711,-92.8 711,-40.8 16,-40.8"/>
</g>
<g id="clust7" class="cluster">
<title>cluster_AppModule_bootstrap</title>
<polygon fill="none" stroke="black" points="1183,-170.8 1183,-222.8 1307,-222.8 1307,-170.8 1183,-170.8"/>
</g>
<!-- AppComponent -->
<g id="node1" class="node">
<title>AppComponent</title>
<polygon fill="#ffffb3" stroke="black" points="1015.94,-84.8 910.06,-84.8 910.06,-48.8 1015.94,-48.8 1015.94,-84.8"/>
<text text-anchor="middle" x="963" y="-62.6" font-family="Times,serif" font-size="14.00">AppComponent</text>
</g>
<!-- AppModule -->
<g id="node3" class="node">
<title>AppModule</title>
<polygon fill="#8dd3c7" stroke="black" points="1286.66,-149.8 1283.66,-153.8 1262.66,-153.8 1259.66,-149.8 1203.34,-149.8 1203.34,-113.8 1286.66,-113.8 1286.66,-149.8"/>
<text text-anchor="middle" x="1245" y="-127.6" font-family="Times,serif" font-size="14.00">AppModule</text>
</g>
<!-- AppComponent&#45;&gt;AppModule -->
<g id="edge1" class="edge">
<title>AppComponent&#45;&gt;AppModule</title>
<path fill="none" stroke="black" d="M963,-84.83C963,-101.86 963,-124.8 963,-124.8 963,-124.8 1193.09,-124.8 1193.09,-124.8"/>
<polygon fill="black" stroke="black" points="1193.09,-128.3 1203.09,-124.8 1193.09,-121.3 1193.09,-128.3"/>
</g>
<!-- PageNotFoundComponent -->
<g id="node2" class="node">
<title>PageNotFoundComponent</title>
<polygon fill="#ffffb3" stroke="black" points="892.82,-84.8 727.18,-84.8 727.18,-48.8 892.82,-48.8 892.82,-84.8"/>
<text text-anchor="middle" x="810" y="-62.6" font-family="Times,serif" font-size="14.00">PageNotFoundComponent</text>
</g>
<!-- PageNotFoundComponent&#45;&gt;AppModule -->
<g id="edge2" class="edge">
<title>PageNotFoundComponent&#45;&gt;AppModule</title>
<path fill="none" stroke="black" d="M810,-85.02C810,-103.63 810,-129.8 810,-129.8 810,-129.8 1193.29,-129.8 1193.29,-129.8"/>
<polygon fill="black" stroke="black" points="1193.29,-133.3 1203.29,-129.8 1193.29,-126.3 1193.29,-133.3"/>
</g>
<!-- AppComponent  -->
<g id="node12" class="node">
<title>AppComponent </title>
<polygon fill="#80b1d3" stroke="black" points="1299.44,-214.8 1190.56,-214.8 1190.56,-178.8 1299.44,-178.8 1299.44,-214.8"/>
<text text-anchor="middle" x="1245" y="-192.6" font-family="Times,serif" font-size="14.00">AppComponent </text>
</g>
<!-- AppModule&#45;&gt;AppComponent  -->
<g id="edge11" class="edge">
<title>AppModule&#45;&gt;AppComponent </title>
<path fill="none" stroke="black" stroke-dasharray="1,5" d="M1245,-149.91C1245,-149.91 1245,-168.79 1245,-168.79"/>
<polygon fill="black" stroke="black" points="1241.5,-168.79 1245,-178.79 1248.5,-168.79 1241.5,-168.79"/>
</g>
<!-- AppRoutingModule -->
<g id="node4" class="node">
<title>AppRoutingModule</title>
<polygon fill="#8dd3c7" stroke="black" points="2542.27,-84.8 2539.27,-88.8 2518.27,-88.8 2515.27,-84.8 2413.73,-84.8 2413.73,-48.8 2542.27,-48.8 2542.27,-84.8"/>
<text text-anchor="middle" x="2478" y="-62.6" font-family="Times,serif" font-size="14.00">AppRoutingModule</text>
</g>
<!-- AppRoutingModule&#45;&gt;AppModule -->
<g id="edge3" class="edge">
<title>AppRoutingModule&#45;&gt;AppModule</title>
<path fill="none" stroke="black" d="M2478,-84.89C2478,-107.93 2478,-144.8 2478,-144.8 2478,-144.8 1296.73,-144.8 1296.73,-144.8"/>
<polygon fill="black" stroke="black" points="1296.73,-141.3 1286.73,-144.8 1296.73,-148.3 1296.73,-141.3"/>
</g>
<!-- StimFeatureAuthDomainModule -->
<g id="node5" class="node">
<title>StimFeatureAuthDomainModule</title>
<polygon fill="#8dd3c7" stroke="black" points="2395.58,-84.8 2392.58,-88.8 2371.58,-88.8 2368.58,-84.8 2194.42,-84.8 2194.42,-48.8 2395.58,-48.8 2395.58,-84.8"/>
<text text-anchor="middle" x="2295" y="-62.6" font-family="Times,serif" font-size="14.00">StimFeatureAuthDomainModule</text>
</g>
<!-- StimFeatureAuthDomainModule&#45;&gt;AppModule -->
<g id="edge4" class="edge">
<title>StimFeatureAuthDomainModule&#45;&gt;AppModule</title>
<path fill="none" stroke="black" d="M2295,-84.84C2295,-106.46 2295,-139.8 2295,-139.8 2295,-139.8 1296.81,-139.8 1296.81,-139.8"/>
<polygon fill="black" stroke="black" points="1296.81,-136.3 1286.81,-139.8 1296.81,-143.3 1296.81,-136.3"/>
</g>
<!-- StimFeatureNavigationFeatureModule -->
<g id="node6" class="node">
<title>StimFeatureNavigationFeatureModule</title>
<polygon fill="#8dd3c7" stroke="black" points="2176.17,-84.8 2173.17,-88.8 2152.17,-88.8 2149.17,-84.8 1943.83,-84.8 1943.83,-48.8 2176.17,-48.8 2176.17,-84.8"/>
<text text-anchor="middle" x="2060" y="-62.6" font-family="Times,serif" font-size="14.00">StimFeatureNavigationFeatureModule</text>
</g>
<!-- StimFeatureNavigationFeatureModule&#45;&gt;AppModule -->
<g id="edge5" class="edge">
<title>StimFeatureNavigationFeatureModule&#45;&gt;AppModule</title>
<path fill="none" stroke="black" d="M2060,-85.02C2060,-105.17 2060,-134.8 2060,-134.8 2060,-134.8 1296.82,-134.8 1296.82,-134.8"/>
<polygon fill="black" stroke="black" points="1296.82,-131.3 1286.82,-134.8 1296.82,-138.3 1296.82,-131.3"/>
</g>
<!-- StimFeatureSettingsDomainModule -->
<g id="node7" class="node">
<title>StimFeatureSettingsDomainModule</title>
<polygon fill="#8dd3c7" stroke="black" points="1926.2,-84.8 1923.2,-88.8 1902.2,-88.8 1899.2,-84.8 1707.8,-84.8 1707.8,-48.8 1926.2,-48.8 1926.2,-84.8"/>
<text text-anchor="middle" x="1817" y="-62.6" font-family="Times,serif" font-size="14.00">StimFeatureSettingsDomainModule</text>
</g>
<!-- StimFeatureSettingsDomainModule&#45;&gt;AppModule -->
<g id="edge6" class="edge">
<title>StimFeatureSettingsDomainModule&#45;&gt;AppModule</title>
<path fill="none" stroke="black" d="M1817,-85.02C1817,-103.63 1817,-129.8 1817,-129.8 1817,-129.8 1297.06,-129.8 1297.06,-129.8"/>
<polygon fill="black" stroke="black" points="1297.06,-126.3 1287.06,-129.8 1297.06,-133.3 1297.06,-126.3"/>
</g>
<!-- StimLibAssetPlayerModule -->
<g id="node8" class="node">
<title>StimLibAssetPlayerModule</title>
<polygon fill="#8dd3c7" stroke="black" points="1690.31,-84.8 1687.31,-88.8 1666.31,-88.8 1663.31,-84.8 1517.69,-84.8 1517.69,-48.8 1690.31,-48.8 1690.31,-84.8"/>
<text text-anchor="middle" x="1604" y="-62.6" font-family="Times,serif" font-size="14.00">StimLibAssetPlayerModule</text>
</g>
<!-- StimLibAssetPlayerModule&#45;&gt;AppModule -->
<g id="edge7" class="edge">
<title>StimLibAssetPlayerModule&#45;&gt;AppModule</title>
<path fill="none" stroke="black" d="M1604,-84.83C1604,-101.86 1604,-124.8 1604,-124.8 1604,-124.8 1296.88,-124.8 1296.88,-124.8"/>
<polygon fill="black" stroke="black" points="1296.88,-121.3 1286.88,-124.8 1296.88,-128.3 1296.88,-121.3"/>
</g>
<!-- StimLibConnectionModule -->
<g id="node9" class="node">
<title>StimLibConnectionModule</title>
<polygon fill="#8dd3c7" stroke="black" points="1499.99,-84.8 1496.99,-88.8 1475.99,-88.8 1472.99,-84.8 1330.01,-84.8 1330.01,-48.8 1499.99,-48.8 1499.99,-84.8"/>
<text text-anchor="middle" x="1415" y="-62.6" font-family="Times,serif" font-size="14.00">StimLibConnectionModule</text>
</g>
<!-- StimLibConnectionModule&#45;&gt;AppModule -->
<g id="edge8" class="edge">
<title>StimLibConnectionModule&#45;&gt;AppModule</title>
<path fill="none" stroke="black" d="M1415,-85.04C1415,-100.37 1415,-119.8 1415,-119.8 1415,-119.8 1297.02,-119.8 1297.02,-119.8"/>
<polygon fill="black" stroke="black" points="1297.02,-116.3 1287.02,-119.8 1297.02,-123.3 1297.02,-116.3"/>
</g>
<!-- StimLibStoreModule -->
<g id="node10" class="node">
<title>StimLibStoreModule</title>
<polygon fill="#8dd3c7" stroke="black" points="1312.5,-84.8 1309.5,-88.8 1288.5,-88.8 1285.5,-84.8 1177.5,-84.8 1177.5,-48.8 1312.5,-48.8 1312.5,-84.8"/>
<text text-anchor="middle" x="1245" y="-62.6" font-family="Times,serif" font-size="14.00">StimLibStoreModule</text>
</g>
<!-- StimLibStoreModule&#45;&gt;AppModule -->
<g id="edge9" class="edge">
<title>StimLibStoreModule&#45;&gt;AppModule</title>
<path fill="none" stroke="black" d="M1245,-84.91C1245,-84.91 1245,-103.79 1245,-103.79"/>
<polygon fill="black" stroke="black" points="1241.5,-103.79 1245,-113.79 1248.5,-103.79 1241.5,-103.79"/>
</g>
<!-- StimLibUiModule -->
<g id="node11" class="node">
<title>StimLibUiModule</title>
<polygon fill="#8dd3c7" stroke="black" points="1159.95,-84.8 1156.95,-88.8 1135.95,-88.8 1132.95,-84.8 1040.05,-84.8 1040.05,-48.8 1159.95,-48.8 1159.95,-84.8"/>
<text text-anchor="middle" x="1100" y="-62.6" font-family="Times,serif" font-size="14.00">StimLibUiModule</text>
</g>
<!-- StimLibUiModule&#45;&gt;AppModule -->
<g id="edge10" class="edge">
<title>StimLibUiModule&#45;&gt;AppModule</title>
<path fill="none" stroke="black" d="M1100,-85.04C1100,-100.37 1100,-119.8 1100,-119.8 1100,-119.8 1193.06,-119.8 1193.06,-119.8"/>
<polygon fill="black" stroke="black" points="1193.06,-123.3 1203.06,-119.8 1193.06,-116.3 1193.06,-123.3"/>
</g>
<!-- ClientIdInterceptorService -->
<g id="node13" class="node">
<title>ClientIdInterceptorService</title>
<ellipse fill="#fdb462" stroke="black" cx="589" cy="-66.8" rx="114" ry="18"/>
<text text-anchor="middle" x="589" y="-62.6" font-family="Times,serif" font-size="14.00">ClientIdInterceptorService</text>
</g>
<!-- ClientIdInterceptorService&#45;&gt;AppModule -->
<g id="edge12" class="edge">
<title>ClientIdInterceptorService&#45;&gt;AppModule</title>
<path fill="none" stroke="black" d="M589,-85.02C589,-105.17 589,-134.8 589,-134.8 589,-134.8 1193.22,-134.8 1193.22,-134.8"/>
<polygon fill="black" stroke="black" points="1193.22,-138.3 1203.22,-134.8 1193.22,-131.3 1193.22,-138.3"/>
</g>
<!-- RequestTimeoutInterceptor -->
<g id="node14" class="node">
<title>RequestTimeoutInterceptor</title>
<ellipse fill="#fdb462" stroke="black" cx="340" cy="-66.8" rx="117.45" ry="18"/>
<text text-anchor="middle" x="340" y="-62.6" font-family="Times,serif" font-size="14.00">RequestTimeoutInterceptor</text>
</g>
<!-- RequestTimeoutInterceptor&#45;&gt;AppModule -->
<g id="edge13" class="edge">
<title>RequestTimeoutInterceptor&#45;&gt;AppModule</title>
<path fill="none" stroke="black" d="M340,-84.84C340,-106.46 340,-139.8 340,-139.8 340,-139.8 1193.17,-139.8 1193.17,-139.8"/>
<polygon fill="black" stroke="black" points="1193.17,-143.3 1203.17,-139.8 1193.16,-136.3 1193.17,-143.3"/>
</g>
<!-- ResponseInterceptor -->
<g id="node15" class="node">
<title>ResponseInterceptor</title>
<ellipse fill="#fdb462" stroke="black" cx="114" cy="-66.8" rx="90.31" ry="18"/>
<text text-anchor="middle" x="114" y="-62.6" font-family="Times,serif" font-size="14.00">ResponseInterceptor</text>
</g>
<!-- ResponseInterceptor&#45;&gt;AppModule -->
<g id="edge14" class="edge">
<title>ResponseInterceptor&#45;&gt;AppModule</title>
<path fill="none" stroke="black" d="M114,-84.89C114,-107.93 114,-144.8 114,-144.8 114,-144.8 1193.07,-144.8 1193.07,-144.8"/>
<polygon fill="black" stroke="black" points="1193.07,-148.3 1203.07,-144.8 1193.07,-141.3 1193.07,-148.3"/>
</g>
</g>
</svg>
