<?xml version="1.0" encoding="UTF-8" standalone="no"?>
<!DOCTYPE svg PUBLIC "-//W3C//DTD SVG 1.1//EN"
 "http://www.w3.org/Graphics/SVG/1.1/DTD/svg11.dtd">
<!-- Generated by graphviz version 2.47.3 (20210619.1520)
 -->
<!-- Title: dependencies Pages: 1 -->
<svg width="542pt" height="247pt"
 viewBox="0.00 0.00 542.00 246.80" xmlns="http://www.w3.org/2000/svg" xmlns:xlink="http://www.w3.org/1999/xlink">
<g id="graph0" class="graph" transform="scale(1 1) rotate(0) translate(4 242.8)">
<title>dependencies</title>
<polygon fill="white" stroke="transparent" points="-4,4 -4,-242.8 538,-242.8 538,4 -4,4"/>
<text text-anchor="middle" x="267" y="-8.2" font-family="sans-serif" font-size="14.00">dependencies</text>
<g id="clust1" class="cluster">
<title>cluster_StimLibConsoleFeatureModule</title>
<polygon fill="none" stroke="black" stroke-dasharray="1,5" points="8,-32.8 8,-230.8 526,-230.8 526,-32.8 8,-32.8"/>
</g>
<g id="clust2" class="cluster">
<title>cluster_StimLibConsoleFeatureModule_declarations</title>
<polygon fill="none" stroke="black" points="374,-40.8 374,-92.8 518,-92.8 518,-40.8 374,-40.8"/>
</g>
<g id="clust4" class="cluster">
<title>cluster_StimLibConsoleFeatureModule_imports</title>
<polygon fill="none" stroke="black" points="16,-40.8 16,-92.8 366,-92.8 366,-40.8 16,-40.8"/>
</g>
<g id="clust5" class="cluster">
<title>cluster_StimLibConsoleFeatureModule_exports</title>
<polygon fill="none" stroke="black" points="187,-170.8 187,-222.8 333,-222.8 333,-170.8 187,-170.8"/>
</g>
<!-- ConsoleComponent -->
<g id="node1" class="node">
<title>ConsoleComponent</title>
<polygon fill="#ffffb3" stroke="black" points="509.72,-84.8 382.28,-84.8 382.28,-48.8 509.72,-48.8 509.72,-84.8"/>
<text text-anchor="middle" x="446" y="-62.6" font-family="Times,serif" font-size="14.00">ConsoleComponent</text>
</g>
<!-- StimLibConsoleFeatureModule -->
<g id="node2" class="node">
<title>StimLibConsoleFeatureModule</title>
<polygon fill="#8dd3c7" stroke="black" points="356.81,-149.8 353.81,-153.8 332.81,-153.8 329.81,-149.8 163.19,-149.8 163.19,-113.8 356.81,-113.8 356.81,-149.8"/>
<text text-anchor="middle" x="260" y="-127.6" font-family="Times,serif" font-size="14.00">StimLibConsoleFeatureModule</text>
</g>
<!-- ConsoleComponent&#45;&gt;StimLibConsoleFeatureModule -->
<g id="edge1" class="edge">
<title>ConsoleComponent&#45;&gt;StimLibConsoleFeatureModule</title>
<path fill="none" stroke="black" d="M446,-84.91C446,-104.14 446,-131.8 446,-131.8 446,-131.8 366.81,-131.8 366.81,-131.8"/>
<polygon fill="black" stroke="black" points="366.81,-128.3 356.81,-131.8 366.81,-135.3 366.81,-128.3"/>
</g>
<!-- ConsoleComponent  -->
<g id="node5" class="node">
<title>ConsoleComponent </title>
<polygon fill="#fb8072" stroke="black" points="325.22,-214.8 194.78,-214.8 194.78,-178.8 325.22,-178.8 325.22,-214.8"/>
<text text-anchor="middle" x="260" y="-192.6" font-family="Times,serif" font-size="14.00">ConsoleComponent </text>
</g>
<!-- StimLibConsoleFeatureModule&#45;&gt;ConsoleComponent  -->
<g id="edge4" class="edge">
<title>StimLibConsoleFeatureModule&#45;&gt;ConsoleComponent </title>
<path fill="none" stroke="black" stroke-dasharray="5,2" d="M260,-149.91C260,-149.91 260,-168.79 260,-168.79"/>
<polygon fill="black" stroke="black" points="256.5,-168.79 260,-178.79 263.5,-168.79 256.5,-168.79"/>
</g>
<!-- StimLibConsoleDomainModule -->
<g id="node3" class="node">
<title>StimLibConsoleDomainModule</title>
<polygon fill="#8dd3c7" stroke="black" points="358.44,-84.8 355.44,-88.8 334.44,-88.8 331.44,-84.8 161.56,-84.8 161.56,-48.8 358.44,-48.8 358.44,-84.8"/>
<text text-anchor="middle" x="260" y="-62.6" font-family="Times,serif" font-size="14.00">StimLibConsoleDomainModule</text>
</g>
<!-- StimLibConsoleDomainModule&#45;&gt;StimLibConsoleFeatureModule -->
<g id="edge2" class="edge">
<title>StimLibConsoleDomainModule&#45;&gt;StimLibConsoleFeatureModule</title>
<path fill="none" stroke="black" d="M260,-84.91C260,-84.91 260,-103.79 260,-103.79"/>
<polygon fill="black" stroke="black" points="256.5,-103.79 260,-113.79 263.5,-103.79 256.5,-103.79"/>
</g>
<!-- StimLibUiModule -->
<g id="node4" class="node">
<title>StimLibUiModule</title>
<polygon fill="#8dd3c7" stroke="black" points="143.95,-84.8 140.95,-88.8 119.95,-88.8 116.95,-84.8 24.05,-84.8 24.05,-48.8 143.95,-48.8 143.95,-84.8"/>
<text text-anchor="middle" x="84" y="-62.6" font-family="Times,serif" font-size="14.00">StimLibUiModule</text>
</g>
<!-- StimLibUiModule&#45;&gt;StimLibConsoleFeatureModule -->
<g id="edge3" class="edge">
<title>StimLibUiModule&#45;&gt;StimLibConsoleFeatureModule</title>
<path fill="none" stroke="black" d="M84,-84.91C84,-104.14 84,-131.8 84,-131.8 84,-131.8 153.25,-131.8 153.25,-131.8"/>
<polygon fill="black" stroke="black" points="153.25,-135.3 163.25,-131.8 153.25,-128.3 153.25,-135.3"/>
</g>
</g>
</svg>
