<?xml version="1.0" encoding="UTF-8" standalone="no"?>
<!DOCTYPE svg PUBLIC "-//W3C//DTD SVG 1.1//EN"
 "http://www.w3.org/Graphics/SVG/1.1/DTD/svg11.dtd">
<!-- Generated by graphviz version 2.47.3 (20210619.1520)
 -->
<!-- Title: dependencies Pages: 1 -->
<svg width="1065pt" height="174pt"
 viewBox="0.00 0.00 1065.00 173.80" xmlns="http://www.w3.org/2000/svg" xmlns:xlink="http://www.w3.org/1999/xlink">
<g id="graph0" class="graph" transform="scale(1 1) rotate(0) translate(4 169.8)">
<title>dependencies</title>
<polygon fill="white" stroke="transparent" points="-4,4 -4,-169.8 1061,-169.8 1061,4 -4,4"/>
<text text-anchor="middle" x="528.5" y="-8.2" font-family="sans-serif" font-size="14.00">dependencies</text>
<g id="clust1" class="cluster">
<title>cluster_StimFeatureUsersFeatureModule</title>
<polygon fill="none" stroke="black" stroke-dasharray="1,5" points="8,-32.8 8,-157.8 1049,-157.8 1049,-32.8 8,-32.8"/>
</g>
<g id="clust2" class="cluster">
<title>cluster_StimFeatureUsersFeatureModule_declarations</title>
<polygon fill="none" stroke="black" points="905,-40.8 905,-92.8 1041,-92.8 1041,-40.8 905,-40.8"/>
</g>
<g id="clust4" class="cluster">
<title>cluster_StimFeatureUsersFeatureModule_imports</title>
<polygon fill="none" stroke="black" points="16,-40.8 16,-92.8 897,-92.8 897,-40.8 16,-40.8"/>
</g>
<!-- ProfileComponent -->
<g id="node1" class="node">
<title>ProfileComponent</title>
<polygon fill="#ffffb3" stroke="black" points="1032.93,-84.8 913.07,-84.8 913.07,-48.8 1032.93,-48.8 1032.93,-84.8"/>
<text text-anchor="middle" x="973" y="-62.6" font-family="Times,serif" font-size="14.00">ProfileComponent</text>
</g>
<!-- StimFeatureUsersFeatureModule -->
<g id="node2" class="node">
<title>StimFeatureUsersFeatureModule</title>
<polygon fill="#8dd3c7" stroke="black" points="667.83,-149.8 664.83,-153.8 643.83,-153.8 640.83,-149.8 466.17,-149.8 466.17,-113.8 667.83,-113.8 667.83,-149.8"/>
<text text-anchor="middle" x="567" y="-127.6" font-family="Times,serif" font-size="14.00">StimFeatureUsersFeatureModule</text>
</g>
<!-- ProfileComponent&#45;&gt;StimFeatureUsersFeatureModule -->
<g id="edge1" class="edge">
<title>ProfileComponent&#45;&gt;StimFeatureUsersFeatureModule</title>
<path fill="none" stroke="black" d="M973,-85.08C973,-106.12 973,-137.8 973,-137.8 973,-137.8 677.88,-137.8 677.88,-137.8"/>
<polygon fill="black" stroke="black" points="677.88,-134.3 667.88,-137.8 677.88,-141.3 677.88,-134.3"/>
</g>
<!-- StimFeatureAuthDomainModule -->
<g id="node3" class="node">
<title>StimFeatureAuthDomainModule</title>
<polygon fill="#8dd3c7" stroke="black" points="888.58,-84.8 885.58,-88.8 864.58,-88.8 861.58,-84.8 687.42,-84.8 687.42,-48.8 888.58,-48.8 888.58,-84.8"/>
<text text-anchor="middle" x="788" y="-62.6" font-family="Times,serif" font-size="14.00">StimFeatureAuthDomainModule</text>
</g>
<!-- StimFeatureAuthDomainModule&#45;&gt;StimFeatureUsersFeatureModule -->
<g id="edge2" class="edge">
<title>StimFeatureAuthDomainModule&#45;&gt;StimFeatureUsersFeatureModule</title>
<path fill="none" stroke="black" d="M788,-84.82C788,-102.17 788,-125.8 788,-125.8 788,-125.8 678.12,-125.8 678.12,-125.8"/>
<polygon fill="black" stroke="black" points="678.12,-122.3 668.12,-125.8 678.12,-129.3 678.12,-122.3"/>
</g>
<!-- StimFeatureUsersDomainModule -->
<g id="node4" class="node">
<title>StimFeatureUsersDomainModule</title>
<polygon fill="#8dd3c7" stroke="black" points="669.46,-84.8 666.46,-88.8 645.46,-88.8 642.46,-84.8 464.54,-84.8 464.54,-48.8 669.46,-48.8 669.46,-84.8"/>
<text text-anchor="middle" x="567" y="-62.6" font-family="Times,serif" font-size="14.00">StimFeatureUsersDomainModule</text>
</g>
<!-- StimFeatureUsersDomainModule&#45;&gt;StimFeatureUsersFeatureModule -->
<g id="edge3" class="edge">
<title>StimFeatureUsersDomainModule&#45;&gt;StimFeatureUsersFeatureModule</title>
<path fill="none" stroke="black" d="M567,-84.91C567,-84.91 567,-103.79 567,-103.79"/>
<polygon fill="black" stroke="black" points="563.5,-103.79 567,-113.79 570.5,-103.79 563.5,-103.79"/>
</g>
<!-- StimFeatureUsersFeatureRoutingModule -->
<g id="node5" class="node">
<title>StimFeatureUsersFeatureRoutingModule</title>
<polygon fill="#8dd3c7" stroke="black" points="446.45,-84.8 443.45,-88.8 422.45,-88.8 419.45,-84.8 199.55,-84.8 199.55,-48.8 446.45,-48.8 446.45,-84.8"/>
<text text-anchor="middle" x="323" y="-62.6" font-family="Times,serif" font-size="14.00">StimFeatureUsersFeatureRoutingModule</text>
</g>
<!-- StimFeatureUsersFeatureRoutingModule&#45;&gt;StimFeatureUsersFeatureModule -->
<g id="edge4" class="edge">
<title>StimFeatureUsersFeatureRoutingModule&#45;&gt;StimFeatureUsersFeatureModule</title>
<path fill="none" stroke="black" d="M323,-84.82C323,-102.17 323,-125.8 323,-125.8 323,-125.8 455.99,-125.8 455.99,-125.8"/>
<polygon fill="black" stroke="black" points="455.99,-129.3 465.99,-125.8 455.99,-122.3 455.99,-129.3"/>
</g>
<!-- StimLibCommonModule -->
<g id="node6" class="node">
<title>StimLibCommonModule</title>
<polygon fill="#8dd3c7" stroke="black" points="181.57,-84.8 178.57,-88.8 157.57,-88.8 154.57,-84.8 24.43,-84.8 24.43,-48.8 181.57,-48.8 181.57,-84.8"/>
<text text-anchor="middle" x="103" y="-62.6" font-family="Times,serif" font-size="14.00">StimLibCommonModule</text>
</g>
<!-- StimLibCommonModule&#45;&gt;StimFeatureUsersFeatureModule -->
<g id="edge5" class="edge">
<title>StimLibCommonModule&#45;&gt;StimFeatureUsersFeatureModule</title>
<path fill="none" stroke="black" d="M103,-85.08C103,-106.12 103,-137.8 103,-137.8 103,-137.8 456.03,-137.8 456.03,-137.8"/>
<polygon fill="black" stroke="black" points="456.03,-141.3 466.03,-137.8 456.03,-134.3 456.03,-141.3"/>
</g>
</g>
</svg>
