<?xml version="1.0" encoding="UTF-8" standalone="no"?>
<!DOCTYPE svg PUBLIC "-//W3C//DTD SVG 1.1//EN"
 "http://www.w3.org/Graphics/SVG/1.1/DTD/svg11.dtd">
<!-- Generated by graphviz version 2.47.3 (20210619.1520)
 -->
<!-- Title: dependencies Pages: 1 -->
<svg width="1070pt" height="247pt"
 viewBox="0.00 0.00 1070.00 246.80" xmlns="http://www.w3.org/2000/svg" xmlns:xlink="http://www.w3.org/1999/xlink">
<g id="graph0" class="graph" transform="scale(1 1) rotate(0) translate(4 242.8)">
<title>dependencies</title>
<polygon fill="white" stroke="transparent" points="-4,4 -4,-242.8 1066,-242.8 1066,4 -4,4"/>
<text text-anchor="middle" x="531" y="-8.2" font-family="sans-serif" font-size="14.00">dependencies</text>
<g id="clust1" class="cluster">
<title>cluster_StimFeatureSettingsFeatureServiceStateModule</title>
<polygon fill="none" stroke="black" stroke-dasharray="1,5" points="8,-32.8 8,-230.8 1054,-230.8 1054,-32.8 8,-32.8"/>
</g>
<g id="clust4" class="cluster">
<title>cluster_StimFeatureSettingsFeatureServiceStateModule_imports</title>
<polygon fill="none" stroke="black" points="192,-40.8 192,-92.8 1046,-92.8 1046,-40.8 192,-40.8"/>
</g>
<g id="clust5" class="cluster">
<title>cluster_StimFeatureSettingsFeatureServiceStateModule_exports</title>
<polygon fill="none" stroke="black" points="360,-170.8 360,-222.8 530,-222.8 530,-170.8 360,-170.8"/>
</g>
<g id="clust2" class="cluster">
<title>cluster_StimFeatureSettingsFeatureServiceStateModule_declarations</title>
<polygon fill="none" stroke="black" points="16,-40.8 16,-92.8 184,-92.8 184,-40.8 16,-40.8"/>
</g>
<!-- ServiceStateComponent -->
<g id="node1" class="node">
<title>ServiceStateComponent</title>
<polygon fill="#ffffb3" stroke="black" points="175.8,-84.8 24.2,-84.8 24.2,-48.8 175.8,-48.8 175.8,-84.8"/>
<text text-anchor="middle" x="100" y="-62.6" font-family="Times,serif" font-size="14.00">ServiceStateComponent</text>
</g>
<!-- StimFeatureSettingsFeatureServiceStateModule -->
<g id="node2" class="node">
<title>StimFeatureSettingsFeatureServiceStateModule</title>
<polygon fill="#8dd3c7" stroke="black" points="587.54,-149.8 584.54,-153.8 563.54,-153.8 560.54,-149.8 302.46,-149.8 302.46,-113.8 587.54,-113.8 587.54,-149.8"/>
<text text-anchor="middle" x="445" y="-127.6" font-family="Times,serif" font-size="14.00">StimFeatureSettingsFeatureServiceStateModule</text>
</g>
<!-- ServiceStateComponent&#45;&gt;StimFeatureSettingsFeatureServiceStateModule -->
<g id="edge1" class="edge">
<title>ServiceStateComponent&#45;&gt;StimFeatureSettingsFeatureServiceStateModule</title>
<path fill="none" stroke="black" d="M100,-84.91C100,-104.14 100,-131.8 100,-131.8 100,-131.8 292.18,-131.8 292.18,-131.8"/>
<polygon fill="black" stroke="black" points="292.18,-135.3 302.18,-131.8 292.18,-128.3 292.18,-135.3"/>
</g>
<!-- ServiceStateComponent  -->
<g id="node7" class="node">
<title>ServiceStateComponent </title>
<polygon fill="#fb8072" stroke="black" points="522.3,-214.8 367.7,-214.8 367.7,-178.8 522.3,-178.8 522.3,-214.8"/>
<text text-anchor="middle" x="445" y="-192.6" font-family="Times,serif" font-size="14.00">ServiceStateComponent </text>
</g>
<!-- StimFeatureSettingsFeatureServiceStateModule&#45;&gt;ServiceStateComponent  -->
<g id="edge6" class="edge">
<title>StimFeatureSettingsFeatureServiceStateModule&#45;&gt;ServiceStateComponent </title>
<path fill="none" stroke="black" stroke-dasharray="5,2" d="M445,-149.91C445,-149.91 445,-168.79 445,-168.79"/>
<polygon fill="black" stroke="black" points="441.5,-168.79 445,-178.79 448.5,-168.79 441.5,-168.79"/>
</g>
<!-- StimFeatureFileBrowserFeatureModule -->
<g id="node3" class="node">
<title>StimFeatureFileBrowserFeatureModule</title>
<polygon fill="#8dd3c7" stroke="black" points="1037.66,-84.8 1034.66,-88.8 1013.66,-88.8 1010.66,-84.8 798.34,-84.8 798.34,-48.8 1037.66,-48.8 1037.66,-84.8"/>
<text text-anchor="middle" x="918" y="-62.6" font-family="Times,serif" font-size="14.00">StimFeatureFileBrowserFeatureModule</text>
</g>
<!-- StimFeatureFileBrowserFeatureModule&#45;&gt;StimFeatureSettingsFeatureServiceStateModule -->
<g id="edge2" class="edge">
<title>StimFeatureFileBrowserFeatureModule&#45;&gt;StimFeatureSettingsFeatureServiceStateModule</title>
<path fill="none" stroke="black" d="M918,-84.91C918,-104.14 918,-131.8 918,-131.8 918,-131.8 597.56,-131.8 597.56,-131.8"/>
<polygon fill="black" stroke="black" points="597.56,-128.3 587.56,-131.8 597.56,-135.3 597.56,-128.3"/>
</g>
<!-- StimFeatureStimulatorDomainModule -->
<g id="node4" class="node">
<title>StimFeatureStimulatorDomainModule</title>
<polygon fill="#8dd3c7" stroke="black" points="780.2,-84.8 777.2,-88.8 756.2,-88.8 753.2,-84.8 547.8,-84.8 547.8,-48.8 780.2,-48.8 780.2,-84.8"/>
<text text-anchor="middle" x="664" y="-62.6" font-family="Times,serif" font-size="14.00">StimFeatureStimulatorDomainModule</text>
</g>
<!-- StimFeatureStimulatorDomainModule&#45;&gt;StimFeatureSettingsFeatureServiceStateModule -->
<g id="edge3" class="edge">
<title>StimFeatureStimulatorDomainModule&#45;&gt;StimFeatureSettingsFeatureServiceStateModule</title>
<path fill="none" stroke="black" d="M567.71,-84.91C567.71,-84.91 567.71,-103.79 567.71,-103.79"/>
<polygon fill="black" stroke="black" points="564.21,-103.79 567.71,-113.79 571.21,-103.79 564.21,-103.79"/>
</g>
<!-- StimLibConnectionModule -->
<g id="node5" class="node">
<title>StimLibConnectionModule</title>
<polygon fill="#8dd3c7" stroke="black" points="529.99,-84.8 526.99,-88.8 505.99,-88.8 502.99,-84.8 360.01,-84.8 360.01,-48.8 529.99,-48.8 529.99,-84.8"/>
<text text-anchor="middle" x="445" y="-62.6" font-family="Times,serif" font-size="14.00">StimLibConnectionModule</text>
</g>
<!-- StimLibConnectionModule&#45;&gt;StimFeatureSettingsFeatureServiceStateModule -->
<g id="edge4" class="edge">
<title>StimLibConnectionModule&#45;&gt;StimFeatureSettingsFeatureServiceStateModule</title>
<path fill="none" stroke="black" d="M445,-84.91C445,-84.91 445,-103.79 445,-103.79"/>
<polygon fill="black" stroke="black" points="441.5,-103.79 445,-113.79 448.5,-103.79 441.5,-103.79"/>
</g>
<!-- StimLibModalModule -->
<g id="node6" class="node">
<title>StimLibModalModule</title>
<polygon fill="#8dd3c7" stroke="black" points="342,-84.8 339,-88.8 318,-88.8 315,-84.8 200,-84.8 200,-48.8 342,-48.8 342,-84.8"/>
<text text-anchor="middle" x="271" y="-62.6" font-family="Times,serif" font-size="14.00">StimLibModalModule</text>
</g>
<!-- StimLibModalModule&#45;&gt;StimFeatureSettingsFeatureServiceStateModule -->
<g id="edge5" class="edge">
<title>StimLibModalModule&#45;&gt;StimFeatureSettingsFeatureServiceStateModule</title>
<path fill="none" stroke="black" d="M322.24,-84.91C322.24,-84.91 322.24,-103.79 322.24,-103.79"/>
<polygon fill="black" stroke="black" points="318.74,-103.79 322.24,-113.79 325.74,-103.79 318.74,-103.79"/>
</g>
</g>
</svg>
