<?xml version="1.0" encoding="UTF-8" standalone="no"?>
<!DOCTYPE svg PUBLIC "-//W3C//DTD SVG 1.1//EN"
 "http://www.w3.org/Graphics/SVG/1.1/DTD/svg11.dtd">
<!-- Generated by graphviz version 2.47.3 (20210619.1520)
 -->
<!-- Title: dependencies Pages: 1 -->
<svg width="392pt" height="247pt"
 viewBox="0.00 0.00 392.00 246.80" xmlns="http://www.w3.org/2000/svg" xmlns:xlink="http://www.w3.org/1999/xlink">
<g id="graph0" class="graph" transform="scale(1 1) rotate(0) translate(4 242.8)">
<title>dependencies</title>
<polygon fill="white" stroke="transparent" points="-4,4 -4,-242.8 388,-242.8 388,4 -4,4"/>
<text text-anchor="middle" x="192" y="-8.2" font-family="sans-serif" font-size="14.00">dependencies</text>
<g id="clust1" class="cluster">
<title>cluster_StimFeatureSettingsFeatureParamConfigServerModule</title>
<polygon fill="none" stroke="black" stroke-dasharray="1,5" points="8,-32.8 8,-230.8 376,-230.8 376,-32.8 8,-32.8"/>
</g>
<g id="clust4" class="cluster">
<title>cluster_StimFeatureSettingsFeatureParamConfigServerModule_imports</title>
<polygon fill="none" stroke="black" points="232,-40.8 232,-92.8 368,-92.8 368,-40.8 232,-40.8"/>
</g>
<g id="clust2" class="cluster">
<title>cluster_StimFeatureSettingsFeatureParamConfigServerModule_declarations</title>
<polygon fill="none" stroke="black" points="16,-40.8 16,-92.8 224,-92.8 224,-40.8 16,-40.8"/>
</g>
<g id="clust5" class="cluster">
<title>cluster_StimFeatureSettingsFeatureParamConfigServerModule_exports</title>
<polygon fill="none" stroke="black" points="86,-170.8 86,-222.8 298,-222.8 298,-170.8 86,-170.8"/>
</g>
<!-- ParamConfigServerComponent -->
<g id="node1" class="node">
<title>ParamConfigServerComponent</title>
<polygon fill="#ffffb3" stroke="black" points="216.02,-84.8 23.98,-84.8 23.98,-48.8 216.02,-48.8 216.02,-84.8"/>
<text text-anchor="middle" x="120" y="-62.6" font-family="Times,serif" font-size="14.00">ParamConfigServerComponent</text>
</g>
<!-- StimFeatureSettingsFeatureParamConfigServerModule -->
<g id="node2" class="node">
<title>StimFeatureSettingsFeatureParamConfigServerModule</title>
<polygon fill="#8dd3c7" stroke="black" points="355.26,-149.8 352.26,-153.8 331.26,-153.8 328.26,-149.8 28.74,-149.8 28.74,-113.8 355.26,-113.8 355.26,-149.8"/>
<text text-anchor="middle" x="192" y="-127.6" font-family="Times,serif" font-size="14.00">StimFeatureSettingsFeatureParamConfigServerModule</text>
</g>
<!-- ParamConfigServerComponent&#45;&gt;StimFeatureSettingsFeatureParamConfigServerModule -->
<g id="edge1" class="edge">
<title>ParamConfigServerComponent&#45;&gt;StimFeatureSettingsFeatureParamConfigServerModule</title>
<path fill="none" stroke="black" d="M122.56,-84.91C122.56,-84.91 122.56,-103.79 122.56,-103.79"/>
<polygon fill="black" stroke="black" points="119.06,-103.79 122.56,-113.79 126.06,-103.79 119.06,-103.79"/>
</g>
<!-- ParamConfigServerComponent  -->
<g id="node4" class="node">
<title>ParamConfigServerComponent </title>
<polygon fill="#fb8072" stroke="black" points="290.02,-214.8 93.98,-214.8 93.98,-178.8 290.02,-178.8 290.02,-214.8"/>
<text text-anchor="middle" x="192" y="-192.6" font-family="Times,serif" font-size="14.00">ParamConfigServerComponent </text>
</g>
<!-- StimFeatureSettingsFeatureParamConfigServerModule&#45;&gt;ParamConfigServerComponent  -->
<g id="edge3" class="edge">
<title>StimFeatureSettingsFeatureParamConfigServerModule&#45;&gt;ParamConfigServerComponent </title>
<path fill="none" stroke="black" stroke-dasharray="5,2" d="M192,-149.91C192,-149.91 192,-168.79 192,-168.79"/>
<polygon fill="black" stroke="black" points="188.5,-168.79 192,-178.79 195.5,-168.79 188.5,-168.79"/>
</g>
<!-- StimLibUiModule -->
<g id="node3" class="node">
<title>StimLibUiModule</title>
<polygon fill="#8dd3c7" stroke="black" points="359.95,-84.8 356.95,-88.8 335.95,-88.8 332.95,-84.8 240.05,-84.8 240.05,-48.8 359.95,-48.8 359.95,-84.8"/>
<text text-anchor="middle" x="300" y="-62.6" font-family="Times,serif" font-size="14.00">StimLibUiModule</text>
</g>
<!-- StimLibUiModule&#45;&gt;StimFeatureSettingsFeatureParamConfigServerModule -->
<g id="edge2" class="edge">
<title>StimLibUiModule&#45;&gt;StimFeatureSettingsFeatureParamConfigServerModule</title>
<path fill="none" stroke="black" d="M297.7,-84.91C297.7,-84.91 297.7,-103.79 297.7,-103.79"/>
<polygon fill="black" stroke="black" points="294.2,-103.79 297.7,-113.79 301.2,-103.79 294.2,-103.79"/>
</g>
</g>
</svg>
