<?xml version="1.0" encoding="UTF-8" standalone="no"?>
<!DOCTYPE svg PUBLIC "-//W3C//DTD SVG 1.1//EN"
 "http://www.w3.org/Graphics/SVG/1.1/DTD/svg11.dtd">
<!-- Generated by graphviz version 2.47.3 (20210619.1520)
 -->
<!-- Title: dependencies Pages: 1 -->
<svg width="746pt" height="174pt"
 viewBox="0.00 0.00 746.00 173.80" xmlns="http://www.w3.org/2000/svg" xmlns:xlink="http://www.w3.org/1999/xlink">
<g id="graph0" class="graph" transform="scale(1 1) rotate(0) translate(4 169.8)">
<title>dependencies</title>
<polygon fill="white" stroke="transparent" points="-4,4 -4,-169.8 742,-169.8 742,4 -4,4"/>
<text text-anchor="middle" x="369" y="-8.2" font-family="sans-serif" font-size="14.00">dependencies</text>
<g id="clust1" class="cluster">
<title>cluster_StimLibConsoleDomainModule</title>
<polygon fill="none" stroke="black" stroke-dasharray="1,5" points="8,-32.8 8,-157.8 730,-157.8 730,-32.8 8,-32.8"/>
</g>
<g id="clust3" class="cluster">
<title>cluster_StimLibConsoleDomainModule_imports</title>
<polygon fill="none" stroke="black" points="286,-40.8 286,-92.8 722,-92.8 722,-40.8 286,-40.8"/>
</g>
<g id="clust6" class="cluster">
<title>cluster_StimLibConsoleDomainModule_providers</title>
<polygon fill="none" stroke="black" points="16,-40.8 16,-92.8 278,-92.8 278,-40.8 16,-40.8"/>
</g>
<!-- StimFeatureExperimentsDomainModule -->
<g id="node1" class="node">
<title>StimFeatureExperimentsDomainModule</title>
<polygon fill="#8dd3c7" stroke="black" points="713.84,-84.8 710.84,-88.8 689.84,-88.8 686.84,-84.8 470.16,-84.8 470.16,-48.8 713.84,-48.8 713.84,-84.8"/>
<text text-anchor="middle" x="592" y="-62.6" font-family="Times,serif" font-size="14.00">StimFeatureExperimentsDomainModule</text>
</g>
<!-- StimLibConsoleDomainModule -->
<g id="node3" class="node">
<title>StimLibConsoleDomainModule</title>
<polygon fill="#8dd3c7" stroke="black" points="471.44,-149.8 468.44,-153.8 447.44,-153.8 444.44,-149.8 274.56,-149.8 274.56,-113.8 471.44,-113.8 471.44,-149.8"/>
<text text-anchor="middle" x="373" y="-127.6" font-family="Times,serif" font-size="14.00">StimLibConsoleDomainModule</text>
</g>
<!-- StimFeatureExperimentsDomainModule&#45;&gt;StimLibConsoleDomainModule -->
<g id="edge1" class="edge">
<title>StimFeatureExperimentsDomainModule&#45;&gt;StimLibConsoleDomainModule</title>
<path fill="none" stroke="black" d="M469.94,-66.8C464.29,-66.8 460.93,-66.8 460.93,-66.8 460.93,-66.8 460.93,-103.69 460.93,-103.69"/>
<polygon fill="black" stroke="black" points="457.43,-103.69 460.93,-113.69 464.43,-103.69 457.43,-103.69"/>
</g>
<!-- StimLibCommonModule -->
<g id="node2" class="node">
<title>StimLibCommonModule</title>
<polygon fill="#8dd3c7" stroke="black" points="451.57,-84.8 448.57,-88.8 427.57,-88.8 424.57,-84.8 294.43,-84.8 294.43,-48.8 451.57,-48.8 451.57,-84.8"/>
<text text-anchor="middle" x="373" y="-62.6" font-family="Times,serif" font-size="14.00">StimLibCommonModule</text>
</g>
<!-- StimLibCommonModule&#45;&gt;StimLibConsoleDomainModule -->
<g id="edge2" class="edge">
<title>StimLibCommonModule&#45;&gt;StimLibConsoleDomainModule</title>
<path fill="none" stroke="black" d="M373,-84.91C373,-84.91 373,-103.79 373,-103.79"/>
<polygon fill="black" stroke="black" points="369.5,-103.79 373,-113.79 376.5,-103.79 369.5,-103.79"/>
</g>
<!-- HelpLocalCommandHandler -->
<g id="node4" class="node">
<title>HelpLocalCommandHandler</title>
<ellipse fill="#fdb462" stroke="black" cx="147" cy="-66.8" rx="123.26" ry="18"/>
<text text-anchor="middle" x="147" y="-62.6" font-family="Times,serif" font-size="14.00">HelpLocalCommandHandler</text>
</g>
<!-- HelpLocalCommandHandler&#45;&gt;StimLibConsoleDomainModule -->
<g id="edge3" class="edge">
<title>HelpLocalCommandHandler&#45;&gt;StimLibConsoleDomainModule</title>
<path fill="none" stroke="black" d="M270.3,-66.8C279.04,-66.8 284.5,-66.8 284.5,-66.8 284.5,-66.8 284.5,-103.69 284.5,-103.69"/>
<polygon fill="black" stroke="black" points="281,-103.69 284.5,-113.69 288,-103.69 281,-103.69"/>
</g>
</g>
</svg>
