<?xml version="1.0" encoding="UTF-8" standalone="no"?>
<!DOCTYPE svg PUBLIC "-//W3C//DTD SVG 1.1//EN"
 "http://www.w3.org/Graphics/SVG/1.1/DTD/svg11.dtd">
<!-- Generated by graphviz version 2.47.3 (20210619.1520)
 -->
<!-- Title: dependencies Pages: 1 -->
<svg width="426pt" height="247pt"
 viewBox="0.00 0.00 426.00 246.80" xmlns="http://www.w3.org/2000/svg" xmlns:xlink="http://www.w3.org/1999/xlink">
<g id="graph0" class="graph" transform="scale(1 1) rotate(0) translate(4 242.8)">
<title>dependencies</title>
<polygon fill="white" stroke="transparent" points="-4,4 -4,-242.8 422,-242.8 422,4 -4,4"/>
<text text-anchor="middle" x="209" y="-8.2" font-family="sans-serif" font-size="14.00">dependencies</text>
<g id="clust1" class="cluster">
<title>cluster_StimFeatureSettingsFeatureParamConfigExperimentsModule</title>
<polygon fill="none" stroke="black" stroke-dasharray="1,5" points="8,-32.8 8,-230.8 410,-230.8 410,-32.8 8,-32.8"/>
</g>
<g id="clust5" class="cluster">
<title>cluster_StimFeatureSettingsFeatureParamConfigExperimentsModule_exports</title>
<polygon fill="none" stroke="black" points="86,-170.8 86,-222.8 332,-222.8 332,-170.8 86,-170.8"/>
</g>
<g id="clust2" class="cluster">
<title>cluster_StimFeatureSettingsFeatureParamConfigExperimentsModule_declarations</title>
<polygon fill="none" stroke="black" points="160,-40.8 160,-92.8 402,-92.8 402,-40.8 160,-40.8"/>
</g>
<g id="clust4" class="cluster">
<title>cluster_StimFeatureSettingsFeatureParamConfigExperimentsModule_imports</title>
<polygon fill="none" stroke="black" points="16,-40.8 16,-92.8 152,-92.8 152,-40.8 16,-40.8"/>
</g>
<!-- ParamConfigExperimentsComponent -->
<g id="node1" class="node">
<title>ParamConfigExperimentsComponent</title>
<polygon fill="#ffffb3" stroke="black" points="394.24,-84.8 167.76,-84.8 167.76,-48.8 394.24,-48.8 394.24,-84.8"/>
<text text-anchor="middle" x="281" y="-62.6" font-family="Times,serif" font-size="14.00">ParamConfigExperimentsComponent</text>
</g>
<!-- StimFeatureSettingsFeatureParamConfigExperimentsModule -->
<g id="node2" class="node">
<title>StimFeatureSettingsFeatureParamConfigExperimentsModule</title>
<polygon fill="#8dd3c7" stroke="black" points="389.48,-149.8 386.48,-153.8 365.48,-153.8 362.48,-149.8 28.52,-149.8 28.52,-113.8 389.48,-113.8 389.48,-149.8"/>
<text text-anchor="middle" x="209" y="-127.6" font-family="Times,serif" font-size="14.00">StimFeatureSettingsFeatureParamConfigExperimentsModule</text>
</g>
<!-- ParamConfigExperimentsComponent&#45;&gt;StimFeatureSettingsFeatureParamConfigExperimentsModule -->
<g id="edge1" class="edge">
<title>ParamConfigExperimentsComponent&#45;&gt;StimFeatureSettingsFeatureParamConfigExperimentsModule</title>
<path fill="none" stroke="black" d="M278.44,-84.91C278.44,-84.91 278.44,-103.79 278.44,-103.79"/>
<polygon fill="black" stroke="black" points="274.94,-103.79 278.44,-113.79 281.94,-103.79 274.94,-103.79"/>
</g>
<!-- ParamConfigExperimentsComponent  -->
<g id="node4" class="node">
<title>ParamConfigExperimentsComponent </title>
<polygon fill="#fb8072" stroke="black" points="324.24,-214.8 93.76,-214.8 93.76,-178.8 324.24,-178.8 324.24,-214.8"/>
<text text-anchor="middle" x="209" y="-192.6" font-family="Times,serif" font-size="14.00">ParamConfigExperimentsComponent </text>
</g>
<!-- StimFeatureSettingsFeatureParamConfigExperimentsModule&#45;&gt;ParamConfigExperimentsComponent  -->
<g id="edge3" class="edge">
<title>StimFeatureSettingsFeatureParamConfigExperimentsModule&#45;&gt;ParamConfigExperimentsComponent </title>
<path fill="none" stroke="black" stroke-dasharray="5,2" d="M209,-149.91C209,-149.91 209,-168.79 209,-168.79"/>
<polygon fill="black" stroke="black" points="205.5,-168.79 209,-178.79 212.5,-168.79 205.5,-168.79"/>
</g>
<!-- StimLibUiModule -->
<g id="node3" class="node">
<title>StimLibUiModule</title>
<polygon fill="#8dd3c7" stroke="black" points="143.95,-84.8 140.95,-88.8 119.95,-88.8 116.95,-84.8 24.05,-84.8 24.05,-48.8 143.95,-48.8 143.95,-84.8"/>
<text text-anchor="middle" x="84" y="-62.6" font-family="Times,serif" font-size="14.00">StimLibUiModule</text>
</g>
<!-- StimLibUiModule&#45;&gt;StimFeatureSettingsFeatureParamConfigExperimentsModule -->
<g id="edge2" class="edge">
<title>StimLibUiModule&#45;&gt;StimFeatureSettingsFeatureParamConfigExperimentsModule</title>
<path fill="none" stroke="black" d="M86.24,-84.91C86.24,-84.91 86.24,-103.79 86.24,-103.79"/>
<polygon fill="black" stroke="black" points="82.74,-103.79 86.24,-113.79 89.74,-103.79 82.74,-103.79"/>
</g>
</g>
</svg>
