<?xml version="1.0" encoding="UTF-8" standalone="no"?>
<!DOCTYPE svg PUBLIC "-//W3C//DTD SVG 1.1//EN"
 "http://www.w3.org/Graphics/SVG/1.1/DTD/svg11.dtd">
<!-- Generated by graphviz version 2.47.3 (20210619.1520)
 -->
<!-- Title: dependencies Pages: 1 -->
<svg width="1246pt" height="174pt"
 viewBox="0.00 0.00 1246.00 173.80" xmlns="http://www.w3.org/2000/svg" xmlns:xlink="http://www.w3.org/1999/xlink">
<g id="graph0" class="graph" transform="scale(1 1) rotate(0) translate(4 169.8)">
<title>dependencies</title>
<polygon fill="white" stroke="transparent" points="-4,4 -4,-169.8 1242,-169.8 1242,4 -4,4"/>
<text text-anchor="middle" x="619" y="-8.2" font-family="sans-serif" font-size="14.00">dependencies</text>
<g id="clust1" class="cluster">
<title>cluster_StimFeatureAuthFeatureModule</title>
<polygon fill="none" stroke="black" stroke-dasharray="1,5" points="8,-32.8 8,-157.8 1230,-157.8 1230,-32.8 8,-32.8"/>
</g>
<g id="clust7" class="cluster">
<title>cluster_StimFeatureAuthFeatureModule_imports</title>
<polygon fill="none" stroke="black" points="568,-40.8 568,-92.8 1222,-92.8 1222,-40.8 568,-40.8"/>
</g>
<g id="clust2" class="cluster">
<title>cluster_StimFeatureAuthFeatureModule_declarations</title>
<polygon fill="none" stroke="black" points="16,-40.8 16,-92.8 560,-92.8 560,-40.8 16,-40.8"/>
</g>
<!-- AuthComponent -->
<g id="node1" class="node">
<title>AuthComponent</title>
<polygon fill="#ffffb3" stroke="black" points="551.83,-84.8 442.17,-84.8 442.17,-48.8 551.83,-48.8 551.83,-84.8"/>
<text text-anchor="middle" x="497" y="-62.6" font-family="Times,serif" font-size="14.00">AuthComponent</text>
</g>
<!-- StimFeatureAuthFeatureModule -->
<g id="node5" class="node">
<title>StimFeatureAuthFeatureModule</title>
<polygon fill="#8dd3c7" stroke="black" points="595.96,-149.8 592.96,-153.8 571.96,-153.8 568.96,-149.8 398.04,-149.8 398.04,-113.8 595.96,-113.8 595.96,-149.8"/>
<text text-anchor="middle" x="497" y="-127.6" font-family="Times,serif" font-size="14.00">StimFeatureAuthFeatureModule</text>
</g>
<!-- AuthComponent&#45;&gt;StimFeatureAuthFeatureModule -->
<g id="edge1" class="edge">
<title>AuthComponent&#45;&gt;StimFeatureAuthFeatureModule</title>
<path fill="none" stroke="black" d="M497,-84.91C497,-84.91 497,-103.79 497,-103.79"/>
<polygon fill="black" stroke="black" points="493.5,-103.79 497,-113.79 500.5,-103.79 493.5,-103.79"/>
</g>
<!-- LoginComponent -->
<g id="node2" class="node">
<title>LoginComponent</title>
<polygon fill="#ffffb3" stroke="black" points="424.28,-84.8 309.72,-84.8 309.72,-48.8 424.28,-48.8 424.28,-84.8"/>
<text text-anchor="middle" x="367" y="-62.6" font-family="Times,serif" font-size="14.00">LoginComponent</text>
</g>
<!-- LoginComponent&#45;&gt;StimFeatureAuthFeatureModule -->
<g id="edge2" class="edge">
<title>LoginComponent&#45;&gt;StimFeatureAuthFeatureModule</title>
<path fill="none" stroke="black" d="M411.2,-84.91C411.2,-84.91 411.2,-103.79 411.2,-103.79"/>
<polygon fill="black" stroke="black" points="407.7,-103.79 411.2,-113.79 414.7,-103.79 407.7,-103.79"/>
</g>
<!-- LogoutComponent -->
<g id="node3" class="node">
<title>LogoutComponent</title>
<polygon fill="#ffffb3" stroke="black" points="291.78,-84.8 170.22,-84.8 170.22,-48.8 291.78,-48.8 291.78,-84.8"/>
<text text-anchor="middle" x="231" y="-62.6" font-family="Times,serif" font-size="14.00">LogoutComponent</text>
</g>
<!-- LogoutComponent&#45;&gt;StimFeatureAuthFeatureModule -->
<g id="edge3" class="edge">
<title>LogoutComponent&#45;&gt;StimFeatureAuthFeatureModule</title>
<path fill="none" stroke="black" d="M231,-84.82C231,-102.17 231,-125.8 231,-125.8 231,-125.8 387.95,-125.8 387.95,-125.8"/>
<polygon fill="black" stroke="black" points="387.95,-129.3 397.95,-125.8 387.95,-122.3 387.95,-129.3"/>
</g>
<!-- RegisterComponent -->
<g id="node4" class="node">
<title>RegisterComponent</title>
<polygon fill="#ffffb3" stroke="black" points="151.98,-84.8 24.02,-84.8 24.02,-48.8 151.98,-48.8 151.98,-84.8"/>
<text text-anchor="middle" x="88" y="-62.6" font-family="Times,serif" font-size="14.00">RegisterComponent</text>
</g>
<!-- RegisterComponent&#45;&gt;StimFeatureAuthFeatureModule -->
<g id="edge4" class="edge">
<title>RegisterComponent&#45;&gt;StimFeatureAuthFeatureModule</title>
<path fill="none" stroke="black" d="M88,-85.08C88,-106.12 88,-137.8 88,-137.8 88,-137.8 387.99,-137.8 387.99,-137.8"/>
<polygon fill="black" stroke="black" points="387.99,-141.3 397.99,-137.8 387.99,-134.3 387.99,-141.3"/>
</g>
<!-- StimFeatureAuthDomainModule -->
<g id="node6" class="node">
<title>StimFeatureAuthDomainModule</title>
<polygon fill="#8dd3c7" stroke="black" points="1213.58,-84.8 1210.58,-88.8 1189.58,-88.8 1186.58,-84.8 1012.42,-84.8 1012.42,-48.8 1213.58,-48.8 1213.58,-84.8"/>
<text text-anchor="middle" x="1113" y="-62.6" font-family="Times,serif" font-size="14.00">StimFeatureAuthDomainModule</text>
</g>
<!-- StimFeatureAuthDomainModule&#45;&gt;StimFeatureAuthFeatureModule -->
<g id="edge5" class="edge">
<title>StimFeatureAuthDomainModule&#45;&gt;StimFeatureAuthFeatureModule</title>
<path fill="none" stroke="black" d="M1113,-85.08C1113,-106.12 1113,-137.8 1113,-137.8 1113,-137.8 605.97,-137.8 605.97,-137.8"/>
<polygon fill="black" stroke="black" points="605.97,-134.3 595.97,-137.8 605.97,-141.3 605.97,-134.3"/>
</g>
<!-- StimFeatureAuthFeatureRoutingModule -->
<g id="node7" class="node">
<title>StimFeatureAuthFeatureRoutingModule</title>
<polygon fill="#8dd3c7" stroke="black" points="994.57,-84.8 991.57,-88.8 970.57,-88.8 967.57,-84.8 751.43,-84.8 751.43,-48.8 994.57,-48.8 994.57,-84.8"/>
<text text-anchor="middle" x="873" y="-62.6" font-family="Times,serif" font-size="14.00">StimFeatureAuthFeatureRoutingModule</text>
</g>
<!-- StimFeatureAuthFeatureRoutingModule&#45;&gt;StimFeatureAuthFeatureModule -->
<g id="edge6" class="edge">
<title>StimFeatureAuthFeatureRoutingModule&#45;&gt;StimFeatureAuthFeatureModule</title>
<path fill="none" stroke="black" d="M873,-84.82C873,-102.17 873,-125.8 873,-125.8 873,-125.8 606.28,-125.8 606.28,-125.8"/>
<polygon fill="black" stroke="black" points="606.28,-122.3 596.28,-125.8 606.28,-129.3 606.28,-122.3"/>
</g>
<!-- StimLibCommonModule -->
<g id="node8" class="node">
<title>StimLibCommonModule</title>
<polygon fill="#8dd3c7" stroke="black" points="733.57,-84.8 730.57,-88.8 709.57,-88.8 706.57,-84.8 576.43,-84.8 576.43,-48.8 733.57,-48.8 733.57,-84.8"/>
<text text-anchor="middle" x="655" y="-62.6" font-family="Times,serif" font-size="14.00">StimLibCommonModule</text>
</g>
<!-- StimLibCommonModule&#45;&gt;StimFeatureAuthFeatureModule -->
<g id="edge7" class="edge">
<title>StimLibCommonModule&#45;&gt;StimFeatureAuthFeatureModule</title>
<path fill="none" stroke="black" d="M586.1,-84.91C586.1,-84.91 586.1,-103.79 586.1,-103.79"/>
<polygon fill="black" stroke="black" points="582.6,-103.79 586.1,-113.79 589.6,-103.79 582.6,-103.79"/>
</g>
</g>
</svg>
