<?xml version="1.0" encoding="UTF-8" standalone="no"?>
<!DOCTYPE svg PUBLIC "-//W3C//DTD SVG 1.1//EN"
 "http://www.w3.org/Graphics/SVG/1.1/DTD/svg11.dtd">
<!-- Generated by graphviz version 2.47.3 (20210619.1520)
 -->
<!-- Title: dependencies Pages: 1 -->
<svg width="1246pt" height="174pt"
 viewBox="0.00 0.00 1246.00 173.80" xmlns="http://www.w3.org/2000/svg" xmlns:xlink="http://www.w3.org/1999/xlink">
<g id="graph0" class="graph" transform="scale(1 1) rotate(0) translate(4 169.8)">
<title>dependencies</title>
<polygon fill="white" stroke="transparent" points="-4,4 -4,-169.8 1242,-169.8 1242,4 -4,4"/>
<text text-anchor="middle" x="619" y="-8.2" font-family="sans-serif" font-size="14.00">dependencies</text>
<g id="clust1" class="cluster">
<title>cluster_StimFeatureAuthFeatureModule</title>
<polygon fill="none" stroke="black" stroke-dasharray="1,5" points="8,-32.8 8,-157.8 1230,-157.8 1230,-32.8 8,-32.8"/>
</g>
<g id="clust2" class="cluster">
<title>cluster_StimFeatureAuthFeatureModule_declarations</title>
<polygon fill="none" stroke="black" points="678,-40.8 678,-92.8 1222,-92.8 1222,-40.8 678,-40.8"/>
</g>
<g id="clust7" class="cluster">
<title>cluster_StimFeatureAuthFeatureModule_imports</title>
<polygon fill="none" stroke="black" points="16,-40.8 16,-92.8 670,-92.8 670,-40.8 16,-40.8"/>
</g>
<!-- AuthComponent -->
<g id="node1" class="node">
<title>AuthComponent</title>
<polygon fill="#ffffb3" stroke="black" points="1213.83,-84.8 1104.17,-84.8 1104.17,-48.8 1213.83,-48.8 1213.83,-84.8"/>
<text text-anchor="middle" x="1159" y="-62.6" font-family="Times,serif" font-size="14.00">AuthComponent</text>
</g>
<!-- StimFeatureAuthFeatureModule -->
<g id="node5" class="node">
<title>StimFeatureAuthFeatureModule</title>
<polygon fill="#8dd3c7" stroke="black" points="848.96,-149.8 845.96,-153.8 824.96,-153.8 821.96,-149.8 651.04,-149.8 651.04,-113.8 848.96,-113.8 848.96,-149.8"/>
<text text-anchor="middle" x="750" y="-127.6" font-family="Times,serif" font-size="14.00">StimFeatureAuthFeatureModule</text>
</g>
<!-- AuthComponent&#45;&gt;StimFeatureAuthFeatureModule -->
<g id="edge1" class="edge">
<title>AuthComponent&#45;&gt;StimFeatureAuthFeatureModule</title>
<path fill="none" stroke="black" d="M1159,-85.08C1159,-106.12 1159,-137.8 1159,-137.8 1159,-137.8 859.01,-137.8 859.01,-137.8"/>
<polygon fill="black" stroke="black" points="859.01,-134.3 849.01,-137.8 859.01,-141.3 859.01,-134.3"/>
</g>
<!-- LoginComponent -->
<g id="node2" class="node">
<title>LoginComponent</title>
<polygon fill="#ffffb3" stroke="black" points="1086.28,-84.8 971.72,-84.8 971.72,-48.8 1086.28,-48.8 1086.28,-84.8"/>
<text text-anchor="middle" x="1029" y="-62.6" font-family="Times,serif" font-size="14.00">LoginComponent</text>
</g>
<!-- LoginComponent&#45;&gt;StimFeatureAuthFeatureModule -->
<g id="edge2" class="edge">
<title>LoginComponent&#45;&gt;StimFeatureAuthFeatureModule</title>
<path fill="none" stroke="black" d="M1029,-84.82C1029,-102.17 1029,-125.8 1029,-125.8 1029,-125.8 859.15,-125.8 859.15,-125.8"/>
<polygon fill="black" stroke="black" points="859.15,-122.3 849.15,-125.8 859.15,-129.3 859.15,-122.3"/>
</g>
<!-- LogoutComponent -->
<g id="node3" class="node">
<title>LogoutComponent</title>
<polygon fill="#ffffb3" stroke="black" points="953.78,-84.8 832.22,-84.8 832.22,-48.8 953.78,-48.8 953.78,-84.8"/>
<text text-anchor="middle" x="893" y="-62.6" font-family="Times,serif" font-size="14.00">LogoutComponent</text>
</g>
<!-- LogoutComponent&#45;&gt;StimFeatureAuthFeatureModule -->
<g id="edge3" class="edge">
<title>LogoutComponent&#45;&gt;StimFeatureAuthFeatureModule</title>
<path fill="none" stroke="black" d="M840.55,-84.91C840.55,-84.91 840.55,-103.79 840.55,-103.79"/>
<polygon fill="black" stroke="black" points="837.05,-103.79 840.55,-113.79 844.05,-103.79 837.05,-103.79"/>
</g>
<!-- RegisterComponent -->
<g id="node4" class="node">
<title>RegisterComponent</title>
<polygon fill="#ffffb3" stroke="black" points="813.98,-84.8 686.02,-84.8 686.02,-48.8 813.98,-48.8 813.98,-84.8"/>
<text text-anchor="middle" x="750" y="-62.6" font-family="Times,serif" font-size="14.00">RegisterComponent</text>
</g>
<!-- RegisterComponent&#45;&gt;StimFeatureAuthFeatureModule -->
<g id="edge4" class="edge">
<title>RegisterComponent&#45;&gt;StimFeatureAuthFeatureModule</title>
<path fill="none" stroke="black" d="M750,-84.91C750,-84.91 750,-103.79 750,-103.79"/>
<polygon fill="black" stroke="black" points="746.5,-103.79 750,-113.79 753.5,-103.79 746.5,-103.79"/>
</g>
<!-- StimFeatureAuthDomainModule -->
<g id="node6" class="node">
<title>StimFeatureAuthDomainModule</title>
<polygon fill="#8dd3c7" stroke="black" points="661.58,-84.8 658.58,-88.8 637.58,-88.8 634.58,-84.8 460.42,-84.8 460.42,-48.8 661.58,-48.8 661.58,-84.8"/>
<text text-anchor="middle" x="561" y="-62.6" font-family="Times,serif" font-size="14.00">StimFeatureAuthDomainModule</text>
</g>
<!-- StimFeatureAuthDomainModule&#45;&gt;StimFeatureAuthFeatureModule -->
<g id="edge5" class="edge">
<title>StimFeatureAuthDomainModule&#45;&gt;StimFeatureAuthFeatureModule</title>
<path fill="none" stroke="black" d="M656.28,-84.91C656.28,-84.91 656.28,-103.79 656.28,-103.79"/>
<polygon fill="black" stroke="black" points="652.78,-103.79 656.28,-113.79 659.78,-103.79 652.78,-103.79"/>
</g>
<!-- StimFeatureAuthFeatureRoutingModule -->
<g id="node7" class="node">
<title>StimFeatureAuthFeatureRoutingModule</title>
<polygon fill="#8dd3c7" stroke="black" points="442.57,-84.8 439.57,-88.8 418.57,-88.8 415.57,-84.8 199.43,-84.8 199.43,-48.8 442.57,-48.8 442.57,-84.8"/>
<text text-anchor="middle" x="321" y="-62.6" font-family="Times,serif" font-size="14.00">StimFeatureAuthFeatureRoutingModule</text>
</g>
<!-- StimFeatureAuthFeatureRoutingModule&#45;&gt;StimFeatureAuthFeatureModule -->
<g id="edge6" class="edge">
<title>StimFeatureAuthFeatureRoutingModule&#45;&gt;StimFeatureAuthFeatureModule</title>
<path fill="none" stroke="black" d="M321,-84.82C321,-102.17 321,-125.8 321,-125.8 321,-125.8 641.04,-125.8 641.04,-125.8"/>
<polygon fill="black" stroke="black" points="641.04,-129.3 651.04,-125.8 641.04,-122.3 641.04,-129.3"/>
</g>
<!-- StimLibCommonModule -->
<g id="node8" class="node">
<title>StimLibCommonModule</title>
<polygon fill="#8dd3c7" stroke="black" points="181.57,-84.8 178.57,-88.8 157.57,-88.8 154.57,-84.8 24.43,-84.8 24.43,-48.8 181.57,-48.8 181.57,-84.8"/>
<text text-anchor="middle" x="103" y="-62.6" font-family="Times,serif" font-size="14.00">StimLibCommonModule</text>
</g>
<!-- StimLibCommonModule&#45;&gt;StimFeatureAuthFeatureModule -->
<g id="edge7" class="edge">
<title>StimLibCommonModule&#45;&gt;StimFeatureAuthFeatureModule</title>
<path fill="none" stroke="black" d="M103,-85.08C103,-106.12 103,-137.8 103,-137.8 103,-137.8 641.03,-137.8 641.03,-137.8"/>
<polygon fill="black" stroke="black" points="641.03,-141.3 651.03,-137.8 641.03,-134.3 641.03,-141.3"/>
</g>
</g>
</svg>
