<?xml version="1.0" encoding="UTF-8" standalone="no"?>
<!DOCTYPE svg PUBLIC "-//W3C//DTD SVG 1.1//EN"
 "http://www.w3.org/Graphics/SVG/1.1/DTD/svg11.dtd">
<!-- Generated by graphviz version 2.47.3 (20210619.1520)
 -->
<!-- Title: dependencies Pages: 1 -->
<svg width="1377pt" height="247pt"
 viewBox="0.00 0.00 1377.00 246.80" xmlns="http://www.w3.org/2000/svg" xmlns:xlink="http://www.w3.org/1999/xlink">
<g id="graph0" class="graph" transform="scale(1 1) rotate(0) translate(4 242.8)">
<title>dependencies</title>
<polygon fill="white" stroke="transparent" points="-4,4 -4,-242.8 1373,-242.8 1373,4 -4,4"/>
<text text-anchor="middle" x="684.5" y="-8.2" font-family="sans-serif" font-size="14.00">dependencies</text>
<g id="clust1" class="cluster">
<title>cluster_StimFeatureNavigationFeatureModule</title>
<polygon fill="none" stroke="black" stroke-dasharray="1,5" points="8,-32.8 8,-230.8 1361,-230.8 1361,-32.8 8,-32.8"/>
</g>
<g id="clust7" class="cluster">
<title>cluster_StimFeatureNavigationFeatureModule_exports</title>
<polygon fill="none" stroke="black" points="397,-170.8 397,-222.8 939,-222.8 939,-170.8 397,-170.8"/>
</g>
<g id="clust6" class="cluster">
<title>cluster_StimFeatureNavigationFeatureModule_imports</title>
<polygon fill="none" stroke="black" points="556,-40.8 556,-92.8 1353,-92.8 1353,-40.8 556,-40.8"/>
</g>
<g id="clust2" class="cluster">
<title>cluster_StimFeatureNavigationFeatureModule_declarations</title>
<polygon fill="none" stroke="black" points="16,-40.8 16,-92.8 548,-92.8 548,-40.8 16,-40.8"/>
</g>
<!-- NavigationButtonsAddonDirective -->
<g id="node1" class="node">
<title>NavigationButtonsAddonDirective</title>
<polygon fill="#ffffb3" stroke="black" points="539.96,-84.8 328.04,-84.8 328.04,-48.8 539.96,-48.8 539.96,-84.8"/>
<text text-anchor="middle" x="434" y="-62.6" font-family="Times,serif" font-size="14.00">NavigationButtonsAddonDirective</text>
</g>
<!-- StimFeatureNavigationFeatureModule -->
<g id="node4" class="node">
<title>StimFeatureNavigationFeatureModule</title>
<polygon fill="#8dd3c7" stroke="black" points="740.17,-149.8 737.17,-153.8 716.17,-153.8 713.17,-149.8 507.83,-149.8 507.83,-113.8 740.17,-113.8 740.17,-149.8"/>
<text text-anchor="middle" x="624" y="-127.6" font-family="Times,serif" font-size="14.00">StimFeatureNavigationFeatureModule</text>
</g>
<!-- NavigationButtonsAddonDirective&#45;&gt;StimFeatureNavigationFeatureModule -->
<g id="edge1" class="edge">
<title>NavigationButtonsAddonDirective&#45;&gt;StimFeatureNavigationFeatureModule</title>
<path fill="none" stroke="black" d="M523.95,-84.91C523.95,-84.91 523.95,-103.79 523.95,-103.79"/>
<polygon fill="black" stroke="black" points="520.45,-103.79 523.95,-113.79 527.45,-103.79 520.45,-103.79"/>
</g>
<!-- NavigationComponent -->
<g id="node2" class="node">
<title>NavigationComponent</title>
<polygon fill="#ffffb3" stroke="black" points="309.54,-84.8 166.46,-84.8 166.46,-48.8 309.54,-48.8 309.54,-84.8"/>
<text text-anchor="middle" x="238" y="-62.6" font-family="Times,serif" font-size="14.00">NavigationComponent</text>
</g>
<!-- NavigationComponent&#45;&gt;StimFeatureNavigationFeatureModule -->
<g id="edge2" class="edge">
<title>NavigationComponent&#45;&gt;StimFeatureNavigationFeatureModule</title>
<path fill="none" stroke="black" d="M238,-84.82C238,-102.17 238,-125.8 238,-125.8 238,-125.8 497.66,-125.8 497.66,-125.8"/>
<polygon fill="black" stroke="black" points="497.66,-129.3 507.66,-125.8 497.66,-122.3 497.66,-129.3"/>
</g>
<!-- SidebarComponent -->
<g id="node3" class="node">
<title>SidebarComponent</title>
<polygon fill="#ffffb3" stroke="black" points="148.1,-84.8 23.9,-84.8 23.9,-48.8 148.1,-48.8 148.1,-84.8"/>
<text text-anchor="middle" x="86" y="-62.6" font-family="Times,serif" font-size="14.00">SidebarComponent</text>
</g>
<!-- SidebarComponent&#45;&gt;StimFeatureNavigationFeatureModule -->
<g id="edge3" class="edge">
<title>SidebarComponent&#45;&gt;StimFeatureNavigationFeatureModule</title>
<path fill="none" stroke="black" d="M86,-85.08C86,-106.12 86,-137.8 86,-137.8 86,-137.8 497.59,-137.8 497.59,-137.8"/>
<polygon fill="black" stroke="black" points="497.59,-141.3 507.59,-137.8 497.59,-134.3 497.59,-141.3"/>
</g>
<!-- NavigationButtonsAddonDirective  -->
<g id="node9" class="node">
<title>NavigationButtonsAddonDirective </title>
<polygon fill="#fb8072" stroke="black" points="930.96,-214.8 715.04,-214.8 715.04,-178.8 930.96,-178.8 930.96,-214.8"/>
<text text-anchor="middle" x="823" y="-192.6" font-family="Times,serif" font-size="14.00">NavigationButtonsAddonDirective </text>
</g>
<!-- StimFeatureNavigationFeatureModule&#45;&gt;NavigationButtonsAddonDirective  -->
<g id="edge8" class="edge">
<title>StimFeatureNavigationFeatureModule&#45;&gt;NavigationButtonsAddonDirective </title>
<path fill="none" stroke="black" stroke-dasharray="5,2" d="M727.68,-149.91C727.68,-149.91 727.68,-168.79 727.68,-168.79"/>
<polygon fill="black" stroke="black" points="724.18,-168.79 727.68,-178.79 731.18,-168.79 724.18,-168.79"/>
</g>
<!-- NavigationComponent  -->
<g id="node10" class="node">
<title>NavigationComponent </title>
<polygon fill="#fb8072" stroke="black" points="697.54,-214.8 550.46,-214.8 550.46,-178.8 697.54,-178.8 697.54,-214.8"/>
<text text-anchor="middle" x="624" y="-192.6" font-family="Times,serif" font-size="14.00">NavigationComponent </text>
</g>
<!-- StimFeatureNavigationFeatureModule&#45;&gt;NavigationComponent  -->
<g id="edge9" class="edge">
<title>StimFeatureNavigationFeatureModule&#45;&gt;NavigationComponent </title>
<path fill="none" stroke="black" stroke-dasharray="5,2" d="M624,-149.91C624,-149.91 624,-168.79 624,-168.79"/>
<polygon fill="black" stroke="black" points="620.5,-168.79 624,-178.79 627.5,-168.79 620.5,-168.79"/>
</g>
<!-- SidebarComponent  -->
<g id="node11" class="node">
<title>SidebarComponent </title>
<polygon fill="#fb8072" stroke="black" points="532.6,-214.8 405.4,-214.8 405.4,-178.8 532.6,-178.8 532.6,-214.8"/>
<text text-anchor="middle" x="469" y="-192.6" font-family="Times,serif" font-size="14.00">SidebarComponent </text>
</g>
<!-- StimFeatureNavigationFeatureModule&#45;&gt;SidebarComponent  -->
<g id="edge10" class="edge">
<title>StimFeatureNavigationFeatureModule&#45;&gt;SidebarComponent </title>
<path fill="none" stroke="black" stroke-dasharray="5,2" d="M520.36,-149.91C520.36,-149.91 520.36,-168.79 520.36,-168.79"/>
<polygon fill="black" stroke="black" points="516.86,-168.79 520.36,-178.79 523.86,-168.79 516.86,-168.79"/>
</g>
<!-- StimFeatureAuthDomainModule -->
<g id="node5" class="node">
<title>StimFeatureAuthDomainModule</title>
<polygon fill="#8dd3c7" stroke="black" points="1344.58,-84.8 1341.58,-88.8 1320.58,-88.8 1317.58,-84.8 1143.42,-84.8 1143.42,-48.8 1344.58,-48.8 1344.58,-84.8"/>
<text text-anchor="middle" x="1244" y="-62.6" font-family="Times,serif" font-size="14.00">StimFeatureAuthDomainModule</text>
</g>
<!-- StimFeatureAuthDomainModule&#45;&gt;StimFeatureNavigationFeatureModule -->
<g id="edge4" class="edge">
<title>StimFeatureAuthDomainModule&#45;&gt;StimFeatureNavigationFeatureModule</title>
<path fill="none" stroke="black" d="M1244,-85.08C1244,-106.12 1244,-137.8 1244,-137.8 1244,-137.8 750.25,-137.8 750.25,-137.8"/>
<polygon fill="black" stroke="black" points="750.25,-134.3 740.25,-137.8 750.25,-141.3 750.25,-134.3"/>
</g>
<!-- StimFeatureNavigationDomainModule -->
<g id="node6" class="node">
<title>StimFeatureNavigationDomainModule</title>
<polygon fill="#8dd3c7" stroke="black" points="1125.79,-84.8 1122.79,-88.8 1101.79,-88.8 1098.79,-84.8 890.21,-84.8 890.21,-48.8 1125.79,-48.8 1125.79,-84.8"/>
<text text-anchor="middle" x="1008" y="-62.6" font-family="Times,serif" font-size="14.00">StimFeatureNavigationDomainModule</text>
</g>
<!-- StimFeatureNavigationDomainModule&#45;&gt;StimFeatureNavigationFeatureModule -->
<g id="edge5" class="edge">
<title>StimFeatureNavigationDomainModule&#45;&gt;StimFeatureNavigationFeatureModule</title>
<path fill="none" stroke="black" d="M910.54,-84.82C910.54,-102.17 910.54,-125.8 910.54,-125.8 910.54,-125.8 750.13,-125.8 750.13,-125.8"/>
<polygon fill="black" stroke="black" points="750.13,-122.3 740.13,-125.8 750.13,-129.3 750.13,-122.3"/>
</g>
<!-- StimLibConnectionModule -->
<g id="node7" class="node">
<title>StimLibConnectionModule</title>
<polygon fill="#8dd3c7" stroke="black" points="871.99,-84.8 868.99,-88.8 847.99,-88.8 844.99,-84.8 702.01,-84.8 702.01,-48.8 871.99,-48.8 871.99,-84.8"/>
<text text-anchor="middle" x="787" y="-62.6" font-family="Times,serif" font-size="14.00">StimLibConnectionModule</text>
</g>
<!-- StimLibConnectionModule&#45;&gt;StimFeatureNavigationFeatureModule -->
<g id="edge6" class="edge">
<title>StimLibConnectionModule&#45;&gt;StimFeatureNavigationFeatureModule</title>
<path fill="none" stroke="black" d="M721.04,-84.91C721.04,-84.91 721.04,-103.79 721.04,-103.79"/>
<polygon fill="black" stroke="black" points="717.54,-103.79 721.04,-113.79 724.54,-103.79 717.54,-103.79"/>
</g>
<!-- StimLibUiModule -->
<g id="node8" class="node">
<title>StimLibUiModule</title>
<polygon fill="#8dd3c7" stroke="black" points="683.95,-84.8 680.95,-88.8 659.95,-88.8 656.95,-84.8 564.05,-84.8 564.05,-48.8 683.95,-48.8 683.95,-84.8"/>
<text text-anchor="middle" x="624" y="-62.6" font-family="Times,serif" font-size="14.00">StimLibUiModule</text>
</g>
<!-- StimLibUiModule&#45;&gt;StimFeatureNavigationFeatureModule -->
<g id="edge7" class="edge">
<title>StimLibUiModule&#45;&gt;StimFeatureNavigationFeatureModule</title>
<path fill="none" stroke="black" d="M624,-84.91C624,-84.91 624,-103.79 624,-103.79"/>
<polygon fill="black" stroke="black" points="620.5,-103.79 624,-113.79 627.5,-103.79 620.5,-103.79"/>
</g>
</g>
</svg>
