<?xml version="1.0" encoding="UTF-8" standalone="no"?>
<!DOCTYPE svg PUBLIC "-//W3C//DTD SVG 1.1//EN"
 "http://www.w3.org/Graphics/SVG/1.1/DTD/svg11.dtd">
<!-- Generated by graphviz version 2.47.3 (20210619.1520)
 -->
<!-- Title: dependencies Pages: 1 -->
<svg width="336pt" height="174pt"
 viewBox="0.00 0.00 336.00 173.80" xmlns="http://www.w3.org/2000/svg" xmlns:xlink="http://www.w3.org/1999/xlink">
<g id="graph0" class="graph" transform="scale(1 1) rotate(0) translate(4 169.8)">
<title>dependencies</title>
<polygon fill="white" stroke="transparent" points="-4,4 -4,-169.8 332,-169.8 332,4 -4,4"/>
<text text-anchor="middle" x="164" y="-8.2" font-family="sans-serif" font-size="14.00">dependencies</text>
<g id="clust1" class="cluster">
<title>cluster_StimFeatureAboutModule</title>
<polygon fill="none" stroke="black" stroke-dasharray="1,5" points="8,-32.8 8,-157.8 320,-157.8 320,-32.8 8,-32.8"/>
</g>
<g id="clust4" class="cluster">
<title>cluster_StimFeatureAboutModule_imports</title>
<polygon fill="none" stroke="black" points="156,-40.8 156,-92.8 312,-92.8 312,-40.8 156,-40.8"/>
</g>
<g id="clust2" class="cluster">
<title>cluster_StimFeatureAboutModule_declarations</title>
<polygon fill="none" stroke="black" points="16,-40.8 16,-92.8 148,-92.8 148,-40.8 16,-40.8"/>
</g>
<!-- AboutComponent -->
<g id="node1" class="node">
<title>AboutComponent</title>
<polygon fill="#ffffb3" stroke="black" points="140.33,-84.8 23.67,-84.8 23.67,-48.8 140.33,-48.8 140.33,-84.8"/>
<text text-anchor="middle" x="82" y="-62.6" font-family="Times,serif" font-size="14.00">AboutComponent</text>
</g>
<!-- StimFeatureAboutModule -->
<g id="node2" class="node">
<title>StimFeatureAboutModule</title>
<polygon fill="#8dd3c7" stroke="black" points="245.48,-149.8 242.48,-153.8 221.48,-153.8 218.48,-149.8 82.52,-149.8 82.52,-113.8 245.48,-113.8 245.48,-149.8"/>
<text text-anchor="middle" x="164" y="-127.6" font-family="Times,serif" font-size="14.00">StimFeatureAboutModule</text>
</g>
<!-- AboutComponent&#45;&gt;StimFeatureAboutModule -->
<g id="edge1" class="edge">
<title>AboutComponent&#45;&gt;StimFeatureAboutModule</title>
<path fill="none" stroke="black" d="M111.34,-84.91C111.34,-84.91 111.34,-103.79 111.34,-103.79"/>
<polygon fill="black" stroke="black" points="107.84,-103.79 111.34,-113.79 114.84,-103.79 107.84,-103.79"/>
</g>
<!-- AboutRoutingModule -->
<g id="node3" class="node">
<title>AboutRoutingModule</title>
<polygon fill="#8dd3c7" stroke="black" points="303.67,-84.8 300.67,-88.8 279.67,-88.8 276.67,-84.8 164.33,-84.8 164.33,-48.8 303.67,-48.8 303.67,-84.8"/>
<text text-anchor="middle" x="234" y="-62.6" font-family="Times,serif" font-size="14.00">AboutRoutingModule</text>
</g>
<!-- AboutRoutingModule&#45;&gt;StimFeatureAboutModule -->
<g id="edge2" class="edge">
<title>AboutRoutingModule&#45;&gt;StimFeatureAboutModule</title>
<path fill="none" stroke="black" d="M204.83,-84.91C204.83,-84.91 204.83,-103.79 204.83,-103.79"/>
<polygon fill="black" stroke="black" points="201.33,-103.79 204.83,-113.79 208.33,-103.79 201.33,-103.79"/>
</g>
</g>
</svg>
